SplineFontDB: 3.2
FontName: GaramondLibre-Italic
FullName: Garamond Libre Italic
FamilyName: Garamond Libre
Weight: Regular
Copyright: (c) 2019-2020 D. Benjamin Miller; available under the X11 license\nBased on Unicode Fonts for Ancient Scripts; George Douros; 2017
Version: 1.4
ItalicAngle: -14.4
UnderlinePosition: -290
UnderlineWidth: 34
Ascent: 800
Descent: 200
InvalidEm: 0
sfntRevision: 0x00010000
LayerCount: 2
Layer: 0 0 "Back" 1
Layer: 1 0 "Fore" 0
XUID: [1021 921 275376880 14411516]
StyleMap: 0x0001
FSType: 0
OS2Version: 4
OS2_WeightWidthSlopeOnly: 0
OS2_UseTypoMetrics: 0
CreationTime: 1511978616
ModificationTime: 1588176850
PfmFamily: 17
TTFWeight: 400
TTFWidth: 5
LineGap: 0
VLineGap: 0
Panose: 2 2 6 2 9 8 5 9 10 3
OS2TypoAscent: 0
OS2TypoAOffset: 1
OS2TypoDescent: 0
OS2TypoDOffset: 1
OS2TypoLinegap: 0
OS2WinAscent: 0
OS2WinAOffset: 1
OS2WinDescent: 0
OS2WinDOffset: 1
HheadAscent: 0
HheadAOffset: 1
HheadDescent: 0
HheadDOffset: 1
OS2SubXSize: 807
OS2SubYSize: 697
OS2SubXOff: -47
OS2SubYOff: 166
OS2SupXSize: 807
OS2SupYSize: 697
OS2SupXOff: 92
OS2SupYOff: 335
OS2StrikeYSize: 39
OS2StrikeYPos: 244
OS2CapHeight: 738
OS2XHeight: 407
OS2FamilyClass: 258
OS2Vendor: 'Free'
OS2CodePages: 2000019f.dfd70000
OS2UnicodeRanges: e00002ff.4200f8fb.0d000021.00800040
Lookup: 4 0 0 "'hlig' Historic Ligatures in Greek lookup 0" { "'hlig' Historic Ligatures in Greek lookup 0 subtable"  } ['hlig' ('grek' <'dflt' > ) ]
Lookup: 4 0 0 "'dlig' Discretionary Ligatures in Greek lookup 1" { "'dlig' Discretionary Ligatures in Greek lookup 1 subtable"  } ['dlig' ('grek' <'dflt' > ) ]
Lookup: 4 0 0 "'ccmp' Glyph Composition/Decomposition in Greek lookup 2" { "'ccmp' Glyph Composition/Decomposition in Greek lookup 2 subtable"  } ['ccmp' ('grek' <'dflt' > ) ]
Lookup: 4 0 0 "'dlig' Discretionary Ligatures in Latin lookup 3" { "'dlig' Discretionary Ligatures in Latin lookup 3 subtable"  } ['dlig' ('latn' <'dflt' > ) ]

StartChar: .notdef
Encoding: 1114112 -1 0
Width: 824
VWidth: 1099
GlyphClass: 2
Flags: W
HStem: -143 44<247 683> 21 94<354.423 426.306> 292 60<417.75 538.104> 562 60<362.833 446.645> 725 44<247 683>
VStem: 203 44<-99 725> 341 93<35.4233 100.577> 357 60<179 299> 560 60<373.955 486.991> 683 44<-99 725>
LayerCount: 2
Fore
SplineSet
727 -143 m 1xfcc0
 203 -143 l 1
 203 769 l 1
 727 769 l 1
 727 -143 l 1xfcc0
683 -99 m 1
 683 725 l 1
 247 725 l 1
 247 -99 l 1
 683 -99 l 1
620 432 m 0
 620 388 605 353 576 328 c 0
 548 304 512 292 468 292 c 0
 452 292 435 295 417 299 c 1
 417 179 l 1
 357 179 l 1
 357 337 l 1xfdc0
 395 366 l 1
 427 357 452 352 468 352 c 0
 529 352 560 379 560 432 c 0
 560 497 491 540 354 562 c 1
 364 622 l 1
 394 617 l 2
 453 607 503 589 543 562 c 0
 594 528 620 485 620 432 c 0
434 68 m 256xfec0
 434 55 429 44 420 35 c 0
 411 26 400 21 387 21 c 256
 374 21 363 26 354 35 c 0
 345 44 341 55 341 68 c 256
 341 81 345 92 354 101 c 0
 363 110 374 115 387 115 c 256
 400 115 411 110 420 101 c 0
 429 92 434 81 434 68 c 256xfec0
EndSplineSet
EndChar

StartChar: exclam
Encoding: 33 33 4
Width: 263
VWidth: 1099
GlyphClass: 2
Flags: W
HStem: -15 131<61.5193 144.481> 716 20G<264 286>
VStem: 44 118<6.65772 94.343>
LayerCount: 2
Fore
SplineSet
316 683 m 0
 316 665 310 639 299 606 c 2
 152 184 l 2
 149 177 143 173 134 173 c 0
 122 173 116 175 116 180 c 0
 116 183 119 197 124 222 c 2
 141 312 l 1
 198 589 l 2
 211 653 224 696 238 716 c 0
 247 729 257 736 271 736 c 0
 301 736 316 718 316 683 c 0
162 55 m 0
 162 36 156 20 145 6 c 0
 134 -8 119 -15 100 -15 c 0
 84 -15 70 -9 60 3 c 0
 50 15 44 30 44 47 c 0
 44 66 50 81 61 95 c 0
 72 109 88 116 106 116 c 0
 123 116 137 110 147 98 c 0
 157 86 162 72 162 55 c 0
EndSplineSet
Substitution2: "smcpLowercasetoSmallCapitalslookup20 subtable" exclam_SC
Substitution2: "supsSuperscriptlookup16 subtable" exclam_SUP
Substitution2: "subsSubscriptlookup15 subtable" exclam_sub
Substitution2: "'smcp' Lowercase to Small Capitals lookup 20 subtable" exclam_SC
Substitution2: "'sups' Superscript lookup 16 subtable" exclam_SUP
Substitution2: "'subs' Subscript lookup 15 subtable" exclam_sub
EndChar

StartChar: quotedbl
Encoding: 34 34 5
Width: 362
VWidth: 1099
GlyphClass: 2
Flags: W
HStem: 496 282
VStem: 142 110<688.812 755.678> 309 110<688.812 755.678>
LayerCount: 2
Fore
SplineSet
419 744 m 0
 419 732 414 718 405 701 c 2
 298 506 l 2
 294 499 290 496 283 496 c 2
 268 496 l 2
 261 496 258 499 260 506 c 2
 309 708 l 2
 320 755 344 778 379 778 c 0
 406 778 419 767 419 744 c 0
252 744 m 0
 252 732 247 718 238 701 c 2
 132 506 l 2
 128 499 123 496 116 496 c 2
 102 496 l 2
 95 496 91 499 93 506 c 2
 142 708 l 2
 153 755 177 778 212 778 c 0
 239 778 252 767 252 744 c 0
EndSplineSet
EndChar

StartChar: numbersign
Encoding: 35 35 6
Width: 549
VWidth: 1099
GlyphClass: 2
Flags: W
HStem: 235 68<80.5605 149 219 338 408 484.138> 418 68<125.561 205 275 394 464 529.138>
LayerCount: 2
Fore
SplineSet
539 726 m 2
 464 486 l 1
 526 486 l 2
 534 486 538 482 538 476 c 256
 538 470 534 455 527 432 c 0
 524 423 519 418 510 418 c 2
 444 418 l 1
 408 303 l 1
 481 303 l 2
 489 303 493 299 493 293 c 256
 493 287 489 272 482 249 c 0
 479 240 474 235 465 235 c 2
 387 235 l 1
 312 -9 l 2
 310 -15 306 -18 300 -18 c 2
 270 -18 l 2
 263 -18 261 -14 264 -5 c 2
 338 235 l 1
 198 235 l 1
 123 -9 l 2
 121 -15 117 -18 111 -18 c 2
 81 -18 l 2
 74 -18 72 -14 75 -5 c 2
 149 235 l 1
 83 235 l 2
 76 235 73 239 73 246 c 0
 73 253 76 267 83 289 c 0
 86 298 91 303 100 303 c 2
 170 303 l 1
 205 418 l 1
 128 418 l 2
 121 418 118 422 118 429 c 0
 118 436 121 450 128 472 c 0
 131 481 136 486 145 486 c 2
 226 486 l 1
 301 730 l 2
 303 736 307 739 313 739 c 2
 343 739 l 2
 350 739 353 735 350 726 c 2
 275 486 l 1
 415 486 l 1
 490 730 l 2
 492 736 496 739 502 739 c 2
 532 739 l 2
 539 739 542 735 539 726 c 2
394 418 m 1
 255 418 l 1
 219 303 l 1
 359 303 l 1
 394 418 l 1
EndSplineSet
Substitution2: "smcpLowercasetoSmallCapitalslookup20 subtable" numbersign_SC
Substitution2: "caseCaseSensitiveFormslookup17 subtable" numbersign_CAS
Substitution2: "supsSuperscriptlookup16 subtable" numbersign_SUP
Substitution2: "subsSubscriptlookup15 subtable" numbersign_sub
Substitution2: "'smcp' Lowercase to Small Capitals lookup 20 subtable" numbersign_SC
Substitution2: "'case' Case-Sensitive Forms lookup 17 subtable" numbersign_CAS
Substitution2: "'sups' Superscript lookup 16 subtable" numbersign_SUP
Substitution2: "'subs' Subscript lookup 15 subtable" numbersign_sub
EndChar

StartChar: dollar
Encoding: 36 36 7
Width: 481
VWidth: 1099
GlyphClass: 2
Flags: W
HStem: -13 41<116.187 181> 693 43<273.279 351>
VStem: 33 60<40.5 120.38> 127 91<487.321 625.883> 167 34<-88.9883 -53.8235> 352 92<93.75 226.268> 439 59<573.17 680.5>
LayerCount: 2
Fore
SplineSet
498 674 m 0xf2
 498 670 496 653 489 623 c 0
 482 593 477 576 476 573 c 0
 473 567 468 564 459 564 c 0
 444 564 436 567 436 573 c 0
 436 577 436 582 437 589 c 0
 438 596 439 601 439 605 c 0xf2
 439 644 421 671 386 686 c 1
 315 393 l 1
 361 347 390 316 402 300 c 0
 430 264 444 228 444 194 c 0
 444 186 443 179 443 170 c 0
 440 114 416 68 369 34 c 0
 326 2 276 -14 218 -15 c 1xf4
 201 -81 l 2
 200 -86 194 -89 183 -89 c 0
 172 -89 167 -85 167 -77 c 0
 167 -74 167 -72 167 -71 c 2xe8
 181 -13 l 1
 123 -8 77 5 42 28 c 0
 36 32 33 38 33 43 c 0
 33 46 38 65 48 98 c 0
 58 131 64 150 66 154 c 0
 69 160 75 162 84 162 c 0
 99 162 106 160 106 156 c 0
 106 152 104 144 100 130 c 0
 96 116 93 105 93 97 c 0
 93 53 126 30 191 28 c 1
 260 315 l 1
 257 318 247 327 231 342 c 0
 193 379 166 414 149 447 c 0
 134 477 127 504 127 529 c 0
 127 589 147 639 187 678 c 0
 227 717 276 736 337 736 c 0
 345 736 353 735 361 734 c 1
 379 808 l 2
 380 813 386 816 397 816 c 0
 408 816 414 812 414 804 c 0
 414 802 413 800 413 799 c 2
 396 728 l 1
 406 725 418 722 429 718 c 0
 476 702 498 687 498 674 c 0xf2
351 693 m 1
 346 693 l 2
 309 694 278 681 254 656 c 0
 230 631 218 600 218 562 c 0
 218 520 241 474 286 424 c 1
 351 693 l 1
352 154 m 0xe4
 352 193 331 237 289 284 c 1
 228 30 l 1
 263 35 293 48 315 68 c 0
 340 91 352 119 352 154 c 0xe4
EndSplineSet
Substitution2: "smcpLowercasetoSmallCapitalslookup20 subtable" dollar_SC
Substitution2: "supsSuperscriptlookup16 subtable" dollar_SUP
Substitution2: "subsSubscriptlookup15 subtable" dollar_sub
Substitution2: "'smcp' Lowercase to Small Capitals lookup 20 subtable" dollar_SC
Substitution2: "'sups' Superscript lookup 16 subtable" dollar_SUP
Substitution2: "'subs' Subscript lookup 15 subtable" dollar_sub
EndChar

StartChar: percent
Encoding: 37 37 8
Width: 830
VWidth: 1099
GlyphClass: 2
Flags: W
HStem: -237 67<558.621 655.743> 187 71<602.555 714.511> 267 68<176.561 274.504> 692 70<221.27 333.806> 709 20G<768 812.5>
VStem: 88 55<375.095 576.585> 360 56<455.69 664.906> 469 56<-130.507 73.3558> 741 57<-46.0398 159.355>
LayerCount: 2
Fore
SplineSet
416 597 m 0xf780
 416 516 397 441 358 375 c 0
 315 303 266 267 210 267 c 0
 170 267 138 287 115 326 c 0
 96 359 88 397 88 440 c 0
 88 519 107 591 146 656 c 0
 188 727 237 762 292 762 c 0
 333 762 364 744 387 708 c 0
 406 677 416 640 416 597 c 0xf780
817 723 m 0
 817 722 817 721 815 718 c 2
 107 -209 l 2
 101 -217 94 -221 86 -221 c 2
 48 -221 l 2
 43 -221 41 -219 41 -215 c 0
 41 -214 42 -212 44 -209 c 2
 751 718 l 2
 757 726 764 729 772 729 c 2
 810 729 l 2xef80
 815 729 817 727 817 723 c 0
798 92 m 0
 798 11 778 -63 739 -129 c 0
 696 -201 647 -237 591 -237 c 0
 551 -237 520 -217 497 -178 c 0
 478 -145 469 -107 469 -64 c 0
 469 15 488 87 527 152 c 0
 569 223 619 258 674 258 c 0
 715 258 746 240 769 204 c 0
 788 173 798 135 798 92 c 0
360 581 m 0
 360 655 332 692 277 692 c 0xf780
 239 692 207 669 181 624 c 0
 156 581 143 529 143 470 c 0
 143 439 149 410 160 385 c 0
 174 351 194 335 221 335 c 0
 257 335 290 361 319 414 c 0
 347 464 360 520 360 581 c 0
741 76 m 0
 741 150 713 187 658 187 c 0
 620 187 588 164 562 119 c 0
 537 76 525 25 525 -34 c 0
 525 -65 530 -94 541 -119 c 0
 555 -153 576 -170 603 -170 c 0
 639 -170 671 -144 700 -91 c 0
 728 -41 741 15 741 76 c 0
EndSplineSet
Substitution2: "smcpLowercasetoSmallCapitalslookup20 subtable" percent_SC
Substitution2: "supsSuperscriptlookup16 subtable" percent_SUP
Substitution2: "subsSubscriptlookup15 subtable" percent_sub
Substitution2: "'smcp' Lowercase to Small Capitals lookup 20 subtable" percent_SC
Substitution2: "'sups' Superscript lookup 16 subtable" percent_SUP
Substitution2: "'subs' Subscript lookup 15 subtable" percent_sub
EndChar

StartChar: ampersand
Encoding: 38 38 9
Width: 846
VWidth: 1099
GlyphClass: 2
Flags: W
HStem: -16 63<247.74 438.721> 352 50<785.5 852.682> 389 119<867.474 926.6> 472 45<575.229 670.351> 485 47<264.478 354.5>
VStem: 76 74<140.802 258.39> 467 67<320.371 413.926> 610 69<707.269 812.554> 671 29<346.797 440> 867 67<402.345 490.913>
LayerCount: 2
Fore
SplineSet
934 445 m 0xa6c0
 934 414 924 395 905 389 c 0xa6c0
 895 386 879 382 858 376 c 0
 856 375 844 371 821 362 c 0
 804 355 792 352 787 352 c 0
 784 352 781 355 776 361 c 0
 749 395 724 422 700 440 c 1xc6c0
 700 406 699 373 696 343 c 0
 693 309 678 264 652 206 c 0
 626 148 583 97 523 52 c 0
 463 7 393 -16 314 -16 c 0
 243 -16 186 4 143 42 c 0
 98 82 76 138 76 207 c 0
 76 243 85 283 102 328 c 0
 120 376 152 421 199 463 c 0
 250 509 298 532 345 532 c 0
 364 532 378 529 387 523 c 0
 395 517 405 505 415 488 c 1
 459 524 499 562 534 603 c 0
 584 661 610 707 610 741 c 0
 610 752 605 763 597 774 c 0
 589 785 584 793 584 799 c 0
 584 812 589 822 597 831 c 0
 605 840 615 845 628 845 c 0
 662 845 679 825 679 785 c 0xcf40
 679 670 503 491 150 247 c 1
 150 237 l 2
 150 175 169 129 207 96 c 0
 245 63 291 47 341 47 c 0
 391 47 442 64 496 99 c 0
 551 135 595 187 626 255 c 0
 654 316 668 381 671 453 c 1
 656 466 639 472 616 472 c 0
 593 472 574 464 558 448 c 0
 542 432 534 419 534 408 c 0
 534 399 537 386 542 370 c 0
 547 354 550 342 550 334 c 0
 550 313 538 302 514 302 c 0
 482 302 467 317 467 346 c 0
 467 385 488 424 530 462 c 0
 571 499 611 517 650 517 c 0
 677 517 705 507 732 487 c 0
 737 483 758 465 794 432 c 0
 815 412 832 402 846 402 c 256xd6c0
 860 402 867 413 867 436 c 0
 867 441 866 448 863 458 c 0
 860 468 858 475 858 479 c 0
 858 498 870 508 893 508 c 0
 920 508 934 487 934 445 c 0xa6c0
332 451 m 0
 332 474 320 485 296 485 c 0x8e40
 282 485 264 475 240 456 c 0
 194 419 165 364 152 290 c 1
 231 344 290 389 331 425 c 1
 332 434 332 442 332 451 c 0
EndSplineSet
Substitution2: "smcpLowercasetoSmallCapitalslookup20 subtable" ampersand_SC
Substitution2: "supsSuperscriptlookup16 subtable" ampersand_SUP
Substitution2: "subsSubscriptlookup15 subtable" ampersand_sub
Substitution2: "'smcp' Lowercase to Small Capitals lookup 20 subtable" ampersand_SC
Substitution2: "'sups' Superscript lookup 16 subtable" ampersand_SUP
Substitution2: "'subs' Subscript lookup 15 subtable" ampersand_sub
EndChar

StartChar: quotesingle
Encoding: 39 39 10
Width: 196
VWidth: 1099
GlyphClass: 2
Flags: W
HStem: 496 282
VStem: 142 110<688.812 755.678>
LayerCount: 2
Fore
SplineSet
252 744 m 0
 252 732 247 718 238 701 c 2
 132 506 l 2
 128 499 123 496 116 496 c 2
 102 496 l 2
 95 496 91 499 93 506 c 2
 142 708 l 2
 153 755 177 778 212 778 c 0
 239 778 252 767 252 744 c 0
EndSplineSet
EndChar

StartChar: parenleft
Encoding: 40 40 11
Width: 263
VWidth: 1099
GlyphClass: 2
Flags: W
VStem: 27 66<-55.1217 284.684>
LayerCount: 2
Fore
SplineSet
367 780 m 0
 367 765 363 753 354 744 c 0
 293 681 250 624 223 574 c 0
 136 413 93 249 93 82 c 0
 93 -7 103 -75 122 -121 c 0
 126 -129 131 -141 138 -157 c 1
 130 -168 119 -174 105 -174 c 0
 95 -174 84 -160 74 -134 c 0
 42 -54 27 36 27 134 c 0
 27 198 34 257 48 311 c 0
 77 420 112 509 154 579 c 0
 200 657 264 728 346 794 c 0
 350 798 354 799 358 799 c 0
 364 799 367 793 367 780 c 0
EndSplineSet
Substitution2: "smcpLowercasetoSmallCapitalslookup20 subtable" parenleft_SC
Substitution2: "caseCaseSensitiveFormslookup17 subtable" parenleft_CAS
Substitution2: "supsSuperscriptlookup16 subtable" parenleft_SUP
Substitution2: "subsSubscriptlookup15 subtable" parenleft_sub
Substitution2: "'smcp' Lowercase to Small Capitals lookup 20 subtable" parenleft_SC
Substitution2: "'case' Case-Sensitive Forms lookup 17 subtable" parenleft_CAS
Substitution2: "'sups' Superscript lookup 16 subtable" parenleft_SUP
Substitution2: "'subs' Subscript lookup 15 subtable" parenleft_sub
EndChar

StartChar: parenright
Encoding: 41 41 12
Width: 263
VWidth: 1099
GlyphClass: 2
Flags: W
VStem: 226 66<340.316 680.122>
LayerCount: 2
Fore
SplineSet
292 491 m 0
 292 427 285 368 271 314 c 0
 242 205 207 116 165 46 c 0
 119 -32 55 -103 -27 -169 c 0
 -31 -173 -35 -174 -39 -174 c 0
 -45 -174 -48 -168 -48 -155 c 0
 -48 -140 -44 -128 -35 -119 c 0
 26 -56 69 1 96 51 c 0
 183 212 226 376 226 543 c 0
 226 632 216 700 197 746 c 0
 193 754 188 766 181 782 c 1
 189 793 200 799 214 799 c 0
 224 799 235 785 245 759 c 0
 277 679 292 589 292 491 c 0
EndSplineSet
Substitution2: "smcpLowercasetoSmallCapitalslookup20 subtable" parenright_SC
Substitution2: "caseCaseSensitiveFormslookup17 subtable" parenright_CAS
Substitution2: "supsSuperscriptlookup16 subtable" parenright_SUP
Substitution2: "subsSubscriptlookup15 subtable" parenright_sub
Substitution2: "'smcp' Lowercase to Small Capitals lookup 20 subtable" parenright_SC
Substitution2: "'case' Case-Sensitive Forms lookup 17 subtable" parenright_CAS
Substitution2: "'sups' Superscript lookup 16 subtable" parenright_SUP
Substitution2: "'subs' Subscript lookup 15 subtable" parenright_sub
EndChar

StartChar: asterisk
Encoding: 42 42 13
Width: 527
VWidth: 1099
GlyphClass: 2
Flags: W
HStem: 521 85<419.938 566.796>
VStem: 351 34<521 528.856> 352 99<682.562 763.375> 361 89<363.33 446.891 681.295 764.67>
LayerCount: 2
Fore
SplineSet
451 736 m 0xa0
 451 724 447 712 440 700 c 2
 385 607 l 2xc0
 382 601 377 598 370 598 c 0
 358 598 352 604 352 617 c 0xa0
 352 618 355 654 361 726 c 0x90
 364 759 378 776 402 776 c 0
 415 776 426 772 436 765 c 0
 446 758 451 748 451 736 c 0xa0
571 564 m 0
 571 535 555 521 524 521 c 0
 518 521 478 529 403 546 c 0
 394 548 390 554 389 563 c 1
 389 564 l 1
 389 573 394 579 403 581 c 2
 509 604 l 2
 514 605 519 606 525 606 c 0
 556 606 571 592 571 564 c 0
326 595 m 0
 326 584 320 578 308 578 c 0
 305 578 304 579 301 580 c 2
 201 623 l 2
 177 633 165 647 165 666 c 0
 165 676 170 687 179 697 c 0
 188 707 198 712 208 712 c 0
 223 712 236 704 250 689 c 2
 322 608 l 2
 325 605 326 601 326 595 c 0
450 391 m 0x90
 450 380 445 370 436 363 c 0
 427 356 415 353 403 353 c 0
 378 353 364 370 361 403 c 2x90
 351 510 l 2
 350 519 354 526 363 529 c 1
 364 529 l 2
 365 529 365 530 367 530 c 0
 376 530 382 527 385 521 c 2xc0
 439 428 l 2
 446 416 450 404 450 391 c 0x90
326 531 m 0
 326 527 325 522 322 519 c 2
 250 439 l 2
 236 424 221 416 206 416 c 0
 196 416 187 421 178 431 c 0
 169 441 165 452 165 462 c 0
 165 481 178 495 202 506 c 0
 270 535 304 550 307 550 c 0
 320 550 326 544 326 531 c 0
EndSplineSet
EndChar

StartChar: plus
Encoding: 43 43 14
Width: 593
VWidth: 1099
GlyphClass: 2
Flags: W
HStem: 212 68<54 266 334 546>
VStem: 266 68<0 212 280 492>
LayerCount: 2
Fore
SplineSet
546 226 m 2
 546 217 541 212 532 212 c 2
 334 212 l 1
 334 14 l 2
 334 5 329 0 320 0 c 2
 280 0 l 2
 271 0 266 5 266 14 c 2
 266 212 l 1
 68 212 l 2
 59 212 54 217 54 226 c 2
 54 266 l 2
 54 275 59 280 68 280 c 2
 266 280 l 1
 266 478 l 2
 266 487 271 492 280 492 c 2
 320 492 l 2
 329 492 334 487 334 478 c 2
 334 280 l 1
 532 280 l 2
 541 280 546 275 546 266 c 2
 546 226 l 2
EndSplineSet
Substitution2: "smcpLowercasetoSmallCapitalslookup20 subtable" plus_SC
Substitution2: "caseCaseSensitiveFormslookup17 subtable" plus_CAS
Substitution2: "supsSuperscriptlookup16 subtable" plus_SUP
Substitution2: "subsSubscriptlookup15 subtable" plus_sub
Substitution2: "'smcp' Lowercase to Small Capitals lookup 20 subtable" plus_SC
Substitution2: "'case' Case-Sensitive Forms lookup 17 subtable" plus_CAS
Substitution2: "'sups' Superscript lookup 16 subtable" plus_SUP
Substitution2: "'subs' Subscript lookup 15 subtable" plus_sub
EndChar

StartChar: comma
Encoding: 44 44 15
Width: 263
VWidth: 1099
GlyphClass: 2
Flags: W
HStem: -179 40<-5.24359 48.1073>
VStem: 107 77<-88.4496 3.32288>
LayerCount: 2
Fore
SplineSet
184 -14 m 0
 184 -56 166 -93 131 -125 c 0
 115 -139 96 -151 72 -162 c 0
 47 -174 24 -179 5 -179 c 0
 -3 -179 -6 -176 -6 -171 c 0
 -6 -155 -3 -145 2 -139 c 1
 21 -131 39 -123 58 -115 c 1
 91 -97 107 -74 107 -44 c 0
 107 -22 95 -1 69 17 c 0
 43 35 30 50 30 63 c 0
 30 78 36 92 46 101 c 0
 56 110 69 115 84 115 c 0
 115 115 140 101 159 72 c 0
 176 47 184 18 184 -14 c 0
EndSplineSet
Substitution2: "smcpLowercasetoSmallCapitalslookup20 subtable" comma_SC
Substitution2: "supsSuperscriptlookup16 subtable" comma_SUP
Substitution2: "subsSubscriptlookup15 subtable" comma_sub
Substitution2: "'smcp' Lowercase to Small Capitals lookup 20 subtable" comma_SC
Substitution2: "'sups' Superscript lookup 16 subtable" comma_SUP
Substitution2: "'subs' Subscript lookup 15 subtable" comma_sub
EndChar

StartChar: hyphen
Encoding: 45 45 16
Width: 328
VWidth: 1099
GlyphClass: 2
Flags: W
HStem: 212 68<50 286>
VStem: 50 236<212 280>
LayerCount: 2
Fore
SplineSet
286 226 m 2
 286 217 281 212 272 212 c 2
 64 212 l 2
 55 212 50 217 50 226 c 2
 50 266 l 2
 50 275 55 280 64 280 c 2
 272 280 l 2
 281 280 286 275 286 266 c 2
 286 226 l 2
EndSplineSet
Substitution2: "smcpLowercasetoSmallCapitalslookup20 subtable" hyphen_SC
Substitution2: "caseCaseSensitiveFormslookup17 subtable" hyphen_CAS
Substitution2: "supsSuperscriptlookup16 subtable" hyphen_SUP
Substitution2: "subsSubscriptlookup15 subtable" hyphen_sub
Substitution2: "'smcp' Lowercase to Small Capitals lookup 20 subtable" hyphen_SC
Substitution2: "'case' Case-Sensitive Forms lookup 17 subtable" hyphen_CAS
Substitution2: "'sups' Superscript lookup 16 subtable" hyphen_SUP
Substitution2: "'subs' Subscript lookup 15 subtable" hyphen_sub
EndChar

StartChar: period
Encoding: 46 46 17
Width: 263
VWidth: 1099
GlyphClass: 2
Flags: W
HStem: -15 139<43.5647 133.436>
VStem: 26 125<2.47806 102.342>
LayerCount: 2
Fore
SplineSet
151 55 m 256
 151 36 145 20 134 7 c 0
 122 -7 108 -15 89 -15 c 0
 71 -15 56 -7 44 6 c 0
 32 19 26 35 26 54 c 0
 26 73 31 89 43 103 c 0
 55 117 70 124 89 124 c 256
 108 124 122 117 134 104 c 0
 146 91 151 74 151 55 c 256
EndSplineSet
Substitution2: "smcpLowercasetoSmallCapitalslookup20 subtable" period_SC
Substitution2: "supsSuperscriptlookup16 subtable" period_SUP
Substitution2: "subsSubscriptlookup15 subtable" period_sub
Substitution2: "'smcp' Lowercase to Small Capitals lookup 20 subtable" period_SC
Substitution2: "'sups' Superscript lookup 16 subtable" period_SUP
Substitution2: "'subs' Subscript lookup 15 subtable" period_sub
EndChar

StartChar: slash
Encoding: 47 47 18
Width: 478
VWidth: 1099
GlyphClass: 2
Flags: W
LayerCount: 2
Fore
SplineSet
514 797 m 1
 31 -171 l 1
 -26 -171 l 1
 458 797 l 1
 514 797 l 1
EndSplineSet
Substitution2: "Single Substitution lookup 87 subtable" fraction
Substitution2: "smcpLowercasetoSmallCapitalslookup20 subtable" slash_SC
Substitution2: "caseCaseSensitiveFormslookup17 subtable" slash_CAS
Substitution2: "supsSuperscriptlookup16 subtable" slash_SUP
Substitution2: "subsSubscriptlookup15 subtable" slash_sub
Substitution2: "Single Substitution lookup 48 subtable" fraction
Substitution2: "'smcp' Lowercase to Small Capitals lookup 20 subtable" slash_SC
Substitution2: "'case' Case-Sensitive Forms lookup 17 subtable" slash_CAS
Substitution2: "'sups' Superscript lookup 16 subtable" slash_SUP
Substitution2: "'subs' Subscript lookup 15 subtable" slash_sub
EndChar

StartChar: zero
Encoding: 48 48 19
Width: 527
VWidth: 1099
GlyphClass: 2
Flags: W
HStem: -15 84<201.562 322.653> 654 89<281.912 407.797>
VStem: 74 61<162.408 427.848> 471 62<305.802 577.695>
LayerCount: 2
Fore
SplineSet
533 491 m 0
 533 365 506 251 450 150 c 0
 389 40 320 -15 242 -15 c 0
 184 -15 140 16 110 78 c 0
 86 127 74 184 74 248 c 0
 74 370 101 481 157 581 c 0
 217 689 284 743 361 743 c 0
 414 743 457 718 489 668 c 0
 515 626 529 576 532 519 c 0
 532 511 533 502 533 491 c 0
471 466 m 0
 471 516 462 558 443 591 c 0
 420 633 386 654 339 654 c 0
 281 654 231 616 191 541 c 0
 154 472 135 390 135 295 c 0
 135 243 143 197 160 154 c 0
 183 97 216 69 259 69 c 0
 316 69 366 112 410 199 c 0
 450 279 471 368 471 466 c 0
EndSplineSet
Substitution2: "onumOldstyleFigureslookup10-0 subtable" zero_os
Substitution2: "Single Substitution lookup 89 subtable" uni2080
Substitution2: "Single Substitution lookup 87 subtable" uni2070
Substitution2: "smcpLowercasetoSmallCapitalslookup20 subtable" zero_SC
Substitution2: "supsSuperscriptlookup16 subtable" zero_SUP
Substitution2: "subsSubscriptlookup15 subtable" zero_sub
Substitution2: "onumOldstyleFigureslookup10 subtable" zero_os
Substitution2: "dnomDenominatorslookup9 subtable" uni2080
Substitution2: "numrNumeratorslookup8 subtable" uni2070
Substitution2: "Single Substitution lookup 49 subtable" uni2080
Substitution2: "Single Substitution lookup 48 subtable" uni2070
Substitution2: "'smcp' Lowercase to Small Capitals lookup 20 subtable" zero_SC
Substitution2: "'sups' Superscript lookup 16 subtable" zero_SUP
Substitution2: "'subs' Subscript lookup 15 subtable" zero_sub
Substitution2: "'dnom' Denominators lookup 9 subtable" uni2080
Substitution2: "'numr' Numerators lookup 8 subtable" uni2070
EndChar

StartChar: one
Encoding: 49 49 20
Width: 527
VWidth: 1099
GlyphClass: 2
Flags: W
HStem: -7 38<110 194.374 398 414.149> 708 20G<429.5 444>
LayerCount: 2
Fore
SplineSet
462 723 m 0
 462 722 462 721 462 720 c 2
 305 110 l 2
 302 99 300 88 300 79 c 0
 300 55 313 40 338 34 c 0
 348 31 370 31 404 31 c 0
 411 31 415 28 415 23 c 0
 415 3 409 -7 398 -7 c 1
 399 -7 384 -6 352 -4 c 0
 315 -1 282 0 255 0 c 256
 228 0 195 -1 157 -4 c 0
 124 -6 109 -7 110 -7 c 1
 105 -7 102 -3 102 3 c 0
 102 16 105 24 112 28 c 0
 115 30 124 31 138 31 c 0
 183 31 211 53 223 99 c 2
 359 625 l 1
 280 581 232 559 215 559 c 0
 210 559 207 564 207 573 c 0
 207 584 209 592 212 596 c 0
 214 599 219 602 228 606 c 0
 281 631 341 669 409 721 c 0
 415 726 424 728 435 728 c 0
 453 728 462 727 462 723 c 0
EndSplineSet
Substitution2: "onumOldstyleFigureslookup10-0 subtable" one_os
Substitution2: "ornmOrnamentslookup44 subtable" gortyna_1
Substitution2: "Single Substitution lookup 89 subtable" uni2081
Substitution2: "Single Substitution lookup 87 subtable" uni00B9
Substitution2: "smcpLowercasetoSmallCapitalslookup20 subtable" one_SC
Substitution2: "supsSuperscriptlookup16 subtable" one_SUP
Substitution2: "subsSubscriptlookup15 subtable" one_sub
Substitution2: "onumOldstyleFigureslookup10 subtable" one_os
Substitution2: "dnomDenominatorslookup9 subtable" uni2081
Substitution2: "numrNumeratorslookup8 subtable" uni00B9
Substitution2: "Single Substitution lookup 49 subtable" uni2081
Substitution2: "Single Substitution lookup 48 subtable" uni00B9
Substitution2: "'ornm' Ornaments lookup 44 subtable" gortyna_1
Substitution2: "'smcp' Lowercase to Small Capitals lookup 20 subtable" one_SC
Substitution2: "'sups' Superscript lookup 16 subtable" one_SUP
Substitution2: "'subs' Subscript lookup 15 subtable" one_sub
Substitution2: "'dnom' Denominators lookup 9 subtable" uni2081
Substitution2: "'numr' Numerators lookup 8 subtable" uni00B9
EndChar

StartChar: two
Encoding: 50 50 21
Width: 527
VWidth: 1099
GlyphClass: 2
Flags: W
HStem: 0 83<160 424.858> 656 87<250.369 363.346>
VStem: 409 88<460.477 610.601>
LayerCount: 2
Fore
SplineSet
497 565 m 0
 497 434 385 273 160 83 c 1
 457 83 l 2
 464 83 467 80 467 75 c 0
 467 71 460 59 448 37 c 0
 436 15 428 3 425 2 c 0
 422 1 417 0 408 0 c 2
 69 0 l 2
 62 0 59 4 59 11 c 0
 59 21 61 30 66 39 c 0
 68 43 71 47 76 51 c 0
 187 150 268 235 317 307 c 0
 378 396 409 473 409 538 c 0
 409 575 397 604 375 625 c 0
 353 646 324 656 287 656 c 0
 264 656 240 649 214 634 c 0
 196 624 177 610 157 593 c 0
 140 578 132 571 132 571 c 0
 130 571 125 573 118 579 c 0
 111 585 108 588 108 590 c 0
 108 591 109 594 111 597 c 0
 184 694 260 743 339 743 c 0
 386 743 425 725 455 688 c 0
 483 654 497 613 497 565 c 0
EndSplineSet
Substitution2: "onumOldstyleFigureslookup10-0 subtable" two_os
Substitution2: "ornmOrnamentslookup44 subtable" gortyna_2
Substitution2: "Single Substitution lookup 89 subtable" uni2082
Substitution2: "Single Substitution lookup 87 subtable" uni00B2
Substitution2: "smcpLowercasetoSmallCapitalslookup20 subtable" two_SC
Substitution2: "supsSuperscriptlookup16 subtable" two_SUP
Substitution2: "subsSubscriptlookup15 subtable" two_sub
Substitution2: "onumOldstyleFigureslookup10 subtable" two_os
Substitution2: "dnomDenominatorslookup9 subtable" uni2082
Substitution2: "numrNumeratorslookup8 subtable" uni00B2
Substitution2: "Single Substitution lookup 49 subtable" uni2082
Substitution2: "Single Substitution lookup 48 subtable" uni00B2
Substitution2: "'ornm' Ornaments lookup 44 subtable" gortyna_2
Substitution2: "'smcp' Lowercase to Small Capitals lookup 20 subtable" two_SC
Substitution2: "'sups' Superscript lookup 16 subtable" two_SUP
Substitution2: "'subs' Subscript lookup 15 subtable" two_sub
Substitution2: "'dnom' Denominators lookup 9 subtable" uni2082
Substitution2: "'numr' Numerators lookup 8 subtable" uni00B2
EndChar

StartChar: three
Encoding: 51 51 22
Width: 527
VWidth: 1099
GlyphClass: 2
Flags: W
HStem: -15 54<93.5 227.038> 378 28<217.24 251.81> 672 71<257.742 371.94>
VStem: 381 86<197.681 340.985> 406 85<549.413 639.919>
LayerCount: 2
Fore
SplineSet
491 612 m 0xe8
 491 583 475 551 443 515 c 0
 418 487 389 462 357 442 c 1
 391 433 418 415 438 386 c 0
 457 358 467 326 467 291 c 0
 467 218 429 148 355 84 c 0
 278 18 195 -15 105 -15 c 0
 82 -15 62 -11 44 -2 c 0
 21 9 10 26 10 46 c 0
 10 79 27 96 59 96 c 0
 78 96 98 86 119 67 c 0
 140 48 159 39 178 39 c 0
 200 39 224 44 249 55 c 0
 289 73 320 103 345 143 c 0
 369 182 381 225 381 269 c 0xf0
 381 301 371 328 353 349 c 0
 334 372 309 384 277 384 c 0
 272 384 265 383 255 381 c 0
 245 379 238 378 233 378 c 0
 230 378 226 381 222 386 c 0
 218 391 215 394 215 397 c 0
 215 401 218 404 222 406 c 0
 254 421 277 431 291 439 c 0
 315 453 336 468 353 484 c 0
 388 518 406 551 406 583 c 0
 406 609 397 631 377 647 c 0
 357 663 334 672 307 672 c 0
 261 672 220 654 184 616 c 0
 182 614 180 612 179 612 c 0
 177 612 174 615 168 620 c 0
 162 625 160 627 160 629 c 0
 160 631 161 633 162 635 c 0
 180 665 205 690 239 711 c 0
 273 732 307 743 341 743 c 0
 381 743 415 731 444 708 c 0
 475 683 491 651 491 612 c 0xe8
EndSplineSet
Substitution2: "onumOldstyleFigureslookup10-0 subtable" three_os
Substitution2: "ornmOrnamentslookup44 subtable" gortyna_3
Substitution2: "Single Substitution lookup 89 subtable" uni2083
Substitution2: "Single Substitution lookup 87 subtable" uni00B3
Substitution2: "smcpLowercasetoSmallCapitalslookup20 subtable" three_SC
Substitution2: "supsSuperscriptlookup16 subtable" three_SUP
Substitution2: "subsSubscriptlookup15 subtable" three_sub
Substitution2: "onumOldstyleFigureslookup10 subtable" three_os
Substitution2: "dnomDenominatorslookup9 subtable" uni2083
Substitution2: "numrNumeratorslookup8 subtable" uni00B3
Substitution2: "Single Substitution lookup 49 subtable" uni2083
Substitution2: "Single Substitution lookup 48 subtable" uni00B3
Substitution2: "'ornm' Ornaments lookup 44 subtable" gortyna_3
Substitution2: "'smcp' Lowercase to Small Capitals lookup 20 subtable" three_SC
Substitution2: "'sups' Superscript lookup 16 subtable" three_SUP
Substitution2: "'subs' Subscript lookup 15 subtable" three_sub
Substitution2: "'dnom' Denominators lookup 9 subtable" uni2083
Substitution2: "'numr' Numerators lookup 8 subtable" uni00B3
EndChar

StartChar: four
Encoding: 52 52 23
Width: 527
VWidth: 1099
GlyphClass: 2
Flags: W
HStem: 223 63<116 307 398 511.26>
LayerCount: 2
Fore
SplineSet
518 277 m 0
 518 268 515 254 508 236 c 0
 505 227 500 223 492 223 c 2
 382 223 l 1
 329 15 l 2
 326 5 320 0 310 0 c 2
 265 0 l 2
 257 0 254 3 254 10 c 0
 254 13 257 30 265 62 c 0
 274 98 288 152 307 223 c 1
 78 223 l 2
 64 223 57 238 57 267 c 0
 57 277 58 284 62 288 c 2
 473 734 l 2
 478 740 488 742 504 742 c 0
 510 742 513 740 513 736 c 0
 513 734 505 699 487 631 c 2
 398 286 l 1
 508 286 l 2
 515 286 518 283 518 277 c 0
409 616 m 1
 116 286 l 1
 323 286 l 1
 409 616 l 1
EndSplineSet
Substitution2: "onumOldstyleFigureslookup10-0 subtable" four_os
Substitution2: "ornmOrnamentslookup44 subtable" gortyna_4
Substitution2: "Single Substitution lookup 89 subtable" uni2084
Substitution2: "Single Substitution lookup 87 subtable" uni2074
Substitution2: "smcpLowercasetoSmallCapitalslookup20 subtable" four_SC
Substitution2: "supsSuperscriptlookup16 subtable" four_SUP
Substitution2: "subsSubscriptlookup15 subtable" four_sub
Substitution2: "onumOldstyleFigureslookup10 subtable" four_os
Substitution2: "dnomDenominatorslookup9 subtable" uni2084
Substitution2: "numrNumeratorslookup8 subtable" uni2074
Substitution2: "Single Substitution lookup 49 subtable" uni2084
Substitution2: "Single Substitution lookup 48 subtable" uni2074
Substitution2: "'ornm' Ornaments lookup 44 subtable" gortyna_4
Substitution2: "'smcp' Lowercase to Small Capitals lookup 20 subtable" four_SC
Substitution2: "'sups' Superscript lookup 16 subtable" four_SUP
Substitution2: "'subs' Subscript lookup 15 subtable" four_sub
Substitution2: "'dnom' Denominators lookup 9 subtable" uni2084
Substitution2: "'numr' Numerators lookup 8 subtable" uni2074
EndChar

StartChar: five
Encoding: 53 53 24
Width: 527
VWidth: 1099
GlyphClass: 2
Flags: W
HStem: -19 42<78.1729 127.714> 645 83<253.023 478.633>
VStem: 370 85<228.641 375.156>
LayerCount: 2
Fore
SplineSet
505 720 m 0
 505 711 495 691 475 661 c 0
 468 650 459 645 449 645 c 2
 283 645 l 2
 268 645 256 637 247 622 c 0
 240 610 236 602 236 597 c 0
 236 594 237 593 240 591 c 0
 269 573 288 560 296 554 c 0
 316 540 334 526 348 512 c 0
 420 442 455 372 455 303 c 0
 455 233 414 165 330 100 c 0
 267 51 193 12 108 -18 c 0
 106 -19 104 -19 102 -19 c 0
 97 -19 94 -18 91 -15 c 0
 80 -3 75 6 75 11 c 0
 75 15 78 20 84 23 c 0
 95 28 111 36 134 47 c 0
 198 80 251 117 291 156 c 0
 343 207 370 256 370 305 c 0
 370 344 348 386 306 432 c 0
 269 472 226 502 176 523 c 0
 165 528 160 531 160 534 c 0
 160 535 192 595 256 713 c 0
 261 723 270 728 280 728 c 2
 495 728 l 2
 502 728 505 725 505 720 c 0
EndSplineSet
Substitution2: "onumOldstyleFigureslookup10-0 subtable" five_os
Substitution2: "ornmOrnamentslookup44 subtable" gortyna_5
Substitution2: "Single Substitution lookup 89 subtable" uni2085
Substitution2: "Single Substitution lookup 87 subtable" uni2075
Substitution2: "smcpLowercasetoSmallCapitalslookup20 subtable" five_SC
Substitution2: "supsSuperscriptlookup16 subtable" five_SUP
Substitution2: "subsSubscriptlookup15 subtable" five_sub
Substitution2: "onumOldstyleFigureslookup10 subtable" five_os
Substitution2: "dnomDenominatorslookup9 subtable" uni2085
Substitution2: "numrNumeratorslookup8 subtable" uni2075
Substitution2: "Single Substitution lookup 49 subtable" uni2085
Substitution2: "Single Substitution lookup 48 subtable" uni2075
Substitution2: "'ornm' Ornaments lookup 44 subtable" gortyna_5
Substitution2: "'smcp' Lowercase to Small Capitals lookup 20 subtable" five_SC
Substitution2: "'sups' Superscript lookup 16 subtable" five_SUP
Substitution2: "'subs' Subscript lookup 15 subtable" five_sub
Substitution2: "'dnom' Denominators lookup 9 subtable" uni2085
Substitution2: "'numr' Numerators lookup 8 subtable" uni2075
EndChar

StartChar: six
Encoding: 54 54 25
Width: 527
VWidth: 1099
GlyphClass: 2
Flags: W
HStem: -15 35<212.959 320.876> 350 53<246.907 375.464> 699 41<497.301 550.365>
VStem: 64 87<102.914 271.937> 418 86<139.755 306.721>
LayerCount: 2
Fore
SplineSet
551 708 m 0
 551 704 548 702 542 699 c 0
 529 694 511 685 486 674 c 0
 406 636 340 588 289 532 c 0
 236 473 198 405 175 331 c 1
 226 379 282 403 342 403 c 0
 391 403 430 389 460 359 c 0
 490 329 504 290 504 241 c 0
 504 176 481 118 433 66 c 0
 384 12 327 -15 263 -15 c 0
 201 -15 151 8 114 55 c 0
 80 98 64 152 64 216 c 0
 64 241 66 266 71 291 c 0
 94 405 150 499 238 576 c 0
 308 637 406 691 532 739 c 0
 534 740 535 740 537 740 c 0
 546 740 551 729 551 708 c 0
418 235 m 0
 418 268 408 295 388 317 c 0
 368 339 342 350 309 350 c 0
 263 350 226 334 196 303 c 0
 166 272 151 233 151 187 c 0
 151 145 160 110 177 78 c 0
 198 40 228 20 266 20 c 0
 306 20 341 44 373 90 c 0
 403 134 418 182 418 235 c 0
EndSplineSet
Substitution2: "onumOldstyleFigureslookup10-0 subtable" six_os
Substitution2: "ornmOrnamentslookup44 subtable" gortyna_6
Substitution2: "Single Substitution lookup 89 subtable" uni2086
Substitution2: "Single Substitution lookup 87 subtable" uni2076
Substitution2: "smcpLowercasetoSmallCapitalslookup20 subtable" six_SC
Substitution2: "supsSuperscriptlookup16 subtable" six_SUP
Substitution2: "subsSubscriptlookup15 subtable" six_sub
Substitution2: "onumOldstyleFigureslookup10 subtable" six_os
Substitution2: "dnomDenominatorslookup9 subtable" uni2086
Substitution2: "numrNumeratorslookup8 subtable" uni2076
Substitution2: "Single Substitution lookup 49 subtable" uni2086
Substitution2: "Single Substitution lookup 48 subtable" uni2076
Substitution2: "'ornm' Ornaments lookup 44 subtable" gortyna_6
Substitution2: "'smcp' Lowercase to Small Capitals lookup 20 subtable" six_SC
Substitution2: "'sups' Superscript lookup 16 subtable" six_SUP
Substitution2: "'subs' Subscript lookup 15 subtable" six_sub
Substitution2: "'dnom' Denominators lookup 9 subtable" uni2086
Substitution2: "'numr' Numerators lookup 8 subtable" uni2076
EndChar

StartChar: seven
Encoding: 55 55 26
Width: 527
VWidth: 1099
GlyphClass: 2
Flags: W
HStem: 645 83<173.534 486>
LayerCount: 2
Fore
SplineSet
590 715 m 0
 590 707 587 700 583 693 c 2
 164 -18 l 2
 161 -23 156 -26 150 -26 c 0
 145 -26 137 -22 124 -14 c 0
 111 -6 104 0 104 4 c 0
 104 7 105 9 107 12 c 2
 486 645 l 1
 162 645 l 2
 154 645 150 648 150 654 c 0
 150 658 158 678 176 711 c 0
 182 722 190 728 201 728 c 2
 569 728 l 2
 583 728 590 723 590 715 c 0
EndSplineSet
Substitution2: "onumOldstyleFigureslookup10-0 subtable" seven_os
Substitution2: "ornmOrnamentslookup44 subtable" gortyna_7
Substitution2: "Single Substitution lookup 89 subtable" uni2087
Substitution2: "Single Substitution lookup 87 subtable" uni2077
Substitution2: "smcpLowercasetoSmallCapitalslookup20 subtable" seven_SC
Substitution2: "supsSuperscriptlookup16 subtable" seven_SUP
Substitution2: "subsSubscriptlookup15 subtable" seven_sub
Substitution2: "onumOldstyleFigureslookup10 subtable" seven_os
Substitution2: "dnomDenominatorslookup9 subtable" uni2087
Substitution2: "numrNumeratorslookup8 subtable" uni2077
Substitution2: "Single Substitution lookup 49 subtable" uni2087
Substitution2: "Single Substitution lookup 48 subtable" uni2077
Substitution2: "'ornm' Ornaments lookup 44 subtable" gortyna_7
Substitution2: "'smcp' Lowercase to Small Capitals lookup 20 subtable" seven_SC
Substitution2: "'sups' Superscript lookup 16 subtable" seven_SUP
Substitution2: "'subs' Subscript lookup 15 subtable" seven_sub
Substitution2: "'dnom' Denominators lookup 9 subtable" uni2087
Substitution2: "'numr' Numerators lookup 8 subtable" uni2077
EndChar

StartChar: eight
Encoding: 56 56 27
Width: 527
VWidth: 1099
GlyphClass: 2
Flags: W
HStem: -15 35<194.371 302.223> 706 37<295.389 404.936>
VStem: 66 82<72.5548 238.689> 155 85<503.182 631.309> 373 87<105.865 242.393> 451 81<494.624 658.329>
LayerCount: 2
Fore
SplineSet
532 580 m 0xf4
 532 535 516 493 484 455 c 0
 455 421 419 395 374 377 c 1
 431 312 460 251 460 194 c 0xf8
 460 185 459 177 458 170 c 0
 449 113 424 68 382 35 c 0
 340 2 291 -15 233 -15 c 0
 185 -15 146 3 114 37 c 0
 82 71 66 112 66 160 c 0
 66 255 128 323 251 363 c 1
 187 426 155 486 155 545 c 0
 155 598 176 645 218 684 c 0
 259 723 306 743 360 743 c 0
 405 743 445 728 479 696 c 0
 514 663 532 625 532 580 c 0xf4
451 576 m 0xf4
 451 609 443 638 427 663 c 0
 408 692 383 706 352 706 c 0
 320 706 293 692 271 664 c 0
 251 638 240 609 240 576 c 0
 240 545 252 513 277 480 c 0
 291 461 315 435 350 402 c 1
 418 451 451 508 451 576 c 0xf4
373 166 m 0xf8
 373 219 339 278 271 343 c 1
 189 289 148 226 148 152 c 0
 148 119 156 89 171 64 c 0
 189 35 214 20 245 20 c 0
 280 20 311 36 336 68 c 0
 360 97 373 130 373 166 c 0xf8
EndSplineSet
Substitution2: "onumOldstyleFigureslookup10-0 subtable" eight_os
Substitution2: "ornmOrnamentslookup44 subtable" gortyna_8
Substitution2: "Single Substitution lookup 89 subtable" uni2088
Substitution2: "Single Substitution lookup 87 subtable" uni2078
Substitution2: "smcpLowercasetoSmallCapitalslookup20 subtable" eight_SC
Substitution2: "supsSuperscriptlookup16 subtable" eight_SUP
Substitution2: "subsSubscriptlookup15 subtable" eight_sub
Substitution2: "onumOldstyleFigureslookup10 subtable" eight_os
Substitution2: "dnomDenominatorslookup9 subtable" uni2088
Substitution2: "numrNumeratorslookup8 subtable" uni2078
Substitution2: "Single Substitution lookup 49 subtable" uni2088
Substitution2: "Single Substitution lookup 48 subtable" uni2078
Substitution2: "'ornm' Ornaments lookup 44 subtable" gortyna_8
Substitution2: "'smcp' Lowercase to Small Capitals lookup 20 subtable" eight_SC
Substitution2: "'sups' Superscript lookup 16 subtable" eight_SUP
Substitution2: "'subs' Subscript lookup 15 subtable" eight_sub
Substitution2: "'dnom' Denominators lookup 9 subtable" uni2088
Substitution2: "'numr' Numerators lookup 8 subtable" uni2078
EndChar

StartChar: nine
Encoding: 57 57 28
Width: 527
VWidth: 1099
GlyphClass: 2
Flags: W
HStem: -14 44<71.4219 84.9993> 331 53<241.632 365.442> 707 35<293.438 403.903>
VStem: 115 87<424.973 590.267> 455 89<453.713 625.299>
LayerCount: 2
Fore
SplineSet
544 514 m 0
 544 488 541 462 536 436 c 0
 514 324 462 228 377 147 c 0
 297 71 200 17 85 -13 c 0
 85 -13 84 -14 83 -14 c 0
 75 -14 71 -3 71 19 c 0
 71 24 74 28 79 30 c 0
 90 34 106 41 128 50 c 0
 194 81 256 129 311 193 c 0
 366 257 406 324 429 395 c 1
 380 352 328 331 272 331 c 0
 224 331 186 345 158 374 c 0
 130 403 115 442 115 490 c 0
 115 554 138 611 185 663 c 0
 233 716 288 742 351 742 c 0
 411 742 459 718 495 671 c 0
 528 628 544 576 544 514 c 0
455 554 m 0
 455 596 448 630 433 656 c 0
 414 690 386 707 348 707 c 0
 309 707 274 684 244 639 c 0
 216 597 202 549 202 497 c 0
 202 465 211 439 229 418 c 0
 248 395 273 384 305 384 c 0
 355 384 393 400 419 432 c 0
 443 462 455 502 455 554 c 0
EndSplineSet
Substitution2: "onumOldstyleFigureslookup10-0 subtable" nine_os
Substitution2: "ornmOrnamentslookup44 subtable" gortyna_9
Substitution2: "Single Substitution lookup 89 subtable" uni2089
Substitution2: "Single Substitution lookup 87 subtable" uni2079
Substitution2: "smcpLowercasetoSmallCapitalslookup20 subtable" nine_SC
Substitution2: "supsSuperscriptlookup16 subtable" nine_SUP
Substitution2: "subsSubscriptlookup15 subtable" nine_sub
Substitution2: "onumOldstyleFigureslookup10 subtable" nine_os
Substitution2: "dnomDenominatorslookup9 subtable" uni2089
Substitution2: "numrNumeratorslookup8 subtable" uni2079
Substitution2: "Single Substitution lookup 49 subtable" uni2089
Substitution2: "Single Substitution lookup 48 subtable" uni2079
Substitution2: "'ornm' Ornaments lookup 44 subtable" gortyna_9
Substitution2: "'smcp' Lowercase to Small Capitals lookup 20 subtable" nine_SC
Substitution2: "'sups' Superscript lookup 16 subtable" nine_SUP
Substitution2: "'subs' Subscript lookup 15 subtable" nine_sub
Substitution2: "'dnom' Denominators lookup 9 subtable" uni2089
Substitution2: "'numr' Numerators lookup 8 subtable" uni2079
EndChar

StartChar: colon
Encoding: 58 58 29
Width: 263
VWidth: 1099
GlyphClass: 2
Flags: W
HStem: -15 139<43.5647 133.436> 328 138<135.565 225.481>
VStem: 26 125<2.47806 102.342> 117 126<348.658 444.342>
LayerCount: 2
Fore
SplineSet
243 397 m 0xd0
 243 378 237 362 226 348 c 0
 215 334 199 328 180 328 c 0
 162 328 147 335 135 348 c 0
 123 361 117 377 117 396 c 0
 117 415 123 431 135 445 c 0
 147 459 162 466 181 466 c 256
 200 466 215 459 226 446 c 0
 237 433 243 416 243 397 c 0xd0
151 55 m 256xe0
 151 36 145 20 134 7 c 0
 122 -7 108 -15 89 -15 c 0
 71 -15 56 -7 44 6 c 0
 32 19 26 35 26 54 c 0
 26 73 31 89 43 103 c 0
 55 117 70 124 89 124 c 256
 108 124 122 117 134 104 c 0
 146 91 151 74 151 55 c 256xe0
EndSplineSet
Substitution2: "smcpLowercasetoSmallCapitalslookup20 subtable" colon_SC
Substitution2: "supsSuperscriptlookup16 subtable" colon_SUP
Substitution2: "subsSubscriptlookup15 subtable" colon_sub
Substitution2: "'smcp' Lowercase to Small Capitals lookup 20 subtable" colon_SC
Substitution2: "'sups' Superscript lookup 16 subtable" colon_SUP
Substitution2: "'subs' Subscript lookup 15 subtable" colon_sub
EndChar

StartChar: semicolon
Encoding: 59 59 30
Width: 263
VWidth: 1099
GlyphClass: 2
Flags: W
HStem: -179 40<-5.24359 48.1073> 328 138<135.565 225.481>
VStem: 107 77<-88.4496 3.32288> 117 126<348.658 444.342>
LayerCount: 2
Fore
SplineSet
243 397 m 0xd0
 243 378 237 362 226 348 c 0
 215 334 199 328 180 328 c 0
 162 328 147 335 135 348 c 0
 123 361 117 377 117 396 c 0
 117 415 123 431 135 445 c 0
 147 459 162 466 181 466 c 256
 200 466 215 459 226 446 c 0
 237 433 243 416 243 397 c 0xd0
184 -14 m 0xe0
 184 -56 166 -93 131 -125 c 0
 115 -139 96 -151 72 -162 c 0
 47 -174 24 -179 5 -179 c 0
 -3 -179 -6 -176 -6 -171 c 0
 -6 -155 -3 -145 2 -139 c 1
 21 -131 39 -123 58 -115 c 1
 91 -97 107 -74 107 -44 c 0
 107 -22 95 -1 69 17 c 0
 43 35 30 50 30 63 c 0
 30 78 36 92 46 101 c 0
 56 110 69 115 84 115 c 0
 115 115 140 101 159 72 c 0
 176 47 184 18 184 -14 c 0xe0
EndSplineSet
Substitution2: "smcpLowercasetoSmallCapitalslookup20 subtable" semicolon_SC
Substitution2: "supsSuperscriptlookup16 subtable" semicolon_SUP
Substitution2: "subsSubscriptlookup15 subtable" semicolon_sub
Substitution2: "'smcp' Lowercase to Small Capitals lookup 20 subtable" semicolon_SC
Substitution2: "'sups' Superscript lookup 16 subtable" semicolon_SUP
Substitution2: "'subs' Subscript lookup 15 subtable" semicolon_sub
EndChar

StartChar: less
Encoding: 60 60 31
Width: 593
VWidth: 1099
GlyphClass: 2
Flags: W
HStem: -15 21G<551 555>
LayerCount: 2
Fore
SplineSet
583 36 m 0
 583 34 582 32 581 30 c 2
 565 -6 l 2
 562 -12 558 -15 552 -15 c 0
 550 -15 548 -14 546 -13 c 2
 62 212 l 2
 56 215 54 219 54 226 c 2
 54 266 l 2
 54 273 56 277 62 280 c 2
 546 505 l 2
 548 506 550 507 552 507 c 0
 558 507 562 504 565 498 c 2
 581 462 l 2
 582 460 583 458 583 456 c 0
 583 450 580 447 575 444 c 2
 150 246 l 1
 575 48 l 2
 580 45 583 42 583 36 c 0
EndSplineSet
EndChar

StartChar: equal
Encoding: 61 61 32
Width: 593
VWidth: 1099
GlyphClass: 2
Flags: W
HStem: 99 68<54 546> 325 68<54 546>
LayerCount: 2
Fore
SplineSet
546 339 m 2
 546 330 541 325 532 325 c 2
 68 325 l 2
 59 325 54 330 54 339 c 2
 54 379 l 2
 54 388 59 393 68 393 c 2
 532 393 l 2
 541 393 546 388 546 379 c 2
 546 339 l 2
546 113 m 2
 546 104 541 99 532 99 c 2
 68 99 l 2
 59 99 54 104 54 113 c 2
 54 153 l 2
 54 162 59 167 68 167 c 2
 532 167 l 2
 541 167 546 162 546 153 c 2
 546 113 l 2
EndSplineSet
Substitution2: "smcpLowercasetoSmallCapitalslookup20 subtable" equal_SC
Substitution2: "caseCaseSensitiveFormslookup17 subtable" equal_CAS
Substitution2: "supsSuperscriptlookup16 subtable" equal_SUP
Substitution2: "subsSubscriptlookup15 subtable" equal_sub
Substitution2: "'smcp' Lowercase to Small Capitals lookup 20 subtable" equal_SC
Substitution2: "'case' Case-Sensitive Forms lookup 17 subtable" equal_CAS
Substitution2: "'sups' Superscript lookup 16 subtable" equal_SUP
Substitution2: "'subs' Subscript lookup 15 subtable" equal_sub
EndChar

StartChar: greater
Encoding: 62 62 33
Width: 593
VWidth: 1099
GlyphClass: 2
Flags: W
HStem: -15 21G<39 43>
LayerCount: 2
Fore
SplineSet
540 226 m 2
 540 219 538 215 532 212 c 2
 48 -13 l 2
 46 -14 44 -15 42 -15 c 0
 36 -15 33 -12 30 -6 c 2
 13 30 l 2
 12 32 11 34 11 36 c 0
 11 42 14 45 19 48 c 2
 444 246 l 1
 19 444 l 2
 14 447 11 450 11 456 c 0
 11 458 12 460 13 462 c 2
 30 498 l 2
 33 504 36 507 42 507 c 0
 44 507 46 506 48 505 c 2
 532 280 l 2
 538 277 540 273 540 266 c 2
 540 226 l 2
EndSplineSet
EndChar

StartChar: question
Encoding: 63 63 34
Width: 385
VWidth: 1099
GlyphClass: 2
Flags: W
HStem: -15 131<108.519 192.481> 175 82<183.902 271.623> 655 81<204.141 335.496>
VStem: 91 118<6.61157 95.3884> 106 58<269.314 373.896> 366 54<538.377 637.936>
LayerCount: 2
Fore
SplineSet
420 559 m 0xec
 420 497 397 455 353 432 c 1
 312 420 271 408 230 397 c 0
 186 384 164 360 164 323 c 0
 164 279 186 257 231 257 c 0
 266 257 284 246 284 224 c 0
 284 212 280 200 272 190 c 0
 264 180 253 175 241 175 c 0
 207 175 176 195 147 237 c 0
 120 275 106 313 106 348 c 0
 106 359 106 368 108 375 c 0
 120 421 146 454 186 473 c 1
 239 489 239 489 292 505 c 0
 331 518 355 541 364 573 c 0
 366 579 366 586 366 592 c 0
 366 612 359 627 344 639 c 0
 330 650 314 655 294 655 c 0
 290 655 290 655 281 655 c 0
 275 655 270 655 267 655 c 0
 222 655 200 667 200 693 c 0
 200 721 215 736 247 736 c 0
 298 736 340 719 372 686 c 0
 404 653 420 611 420 559 c 0xec
209 53 m 0xf4
 209 35 204 19 193 6 c 0
 182 -7 167 -15 149 -15 c 0
 132 -15 118 -8 107 4 c 0
 96 16 91 31 91 48 c 0
 91 67 97 83 108 96 c 0
 119 109 135 116 153 116 c 0
 170 116 184 110 194 98 c 0
 204 86 209 71 209 53 c 0xf4
EndSplineSet
Substitution2: "smcpLowercasetoSmallCapitalslookup20 subtable" question_SC
Substitution2: "supsSuperscriptlookup16 subtable" question_SUP
Substitution2: "subsSubscriptlookup15 subtable" question_sub
Substitution2: "'smcp' Lowercase to Small Capitals lookup 20 subtable" question_SC
Substitution2: "'sups' Superscript lookup 16 subtable" question_SUP
Substitution2: "'subs' Subscript lookup 15 subtable" question_sub
EndChar

StartChar: at
Encoding: 64 64 35
Width: 898
VWidth: 1099
GlyphClass: 2
Flags: W
HStem: -197 50<269.413 527.969> 3 53<273.978 362.206 537.216 657.871> 383 68<378.092 446.979> 620 44<422.192 671.647>
VStem: 31 63<36.869 290.288> 205 65<52.2344 218.041> 493 23<93.3125 132.997> 832 54<263.567 460.707>
LayerCount: 2
Fore
SplineSet
886 341 m 0
 886 260 853 184 786 112 c 0
 718 39 644 3 564 3 c 0
 530 3 509 16 500 41 c 0
 496 53 493 80 493 122 c 0
 493 129 492 133 488 133 c 0
 487 133 475 121 454 98 c 0
 429 71 405 49 383 34 c 0
 350 11 319 0 290 0 c 0
 233 0 205 37 205 111 c 0
 205 175 222 245 258 319 c 0
 301 407 350 451 407 451 c 0
 429 451 451 432 472 394 c 0
 487 368 499 338 508 306 c 1
 517 325 528 356 542 403 c 0
 544 412 549 425 555 442 c 1
 562 457 576 464 595 464 c 0
 607 464 617 460 627 451 c 0
 637 442 642 431 642 419 c 0
 642 415 601 325 519 149 c 0
 517 145 516 140 516 135 c 0
 516 117 522 99 533 83 c 0
 546 65 560 56 576 56 c 0
 640 56 699 92 754 165 c 0
 806 233 832 302 832 370 c 0
 832 449 806 511 754 556 c 0
 705 599 641 620 561 620 c 0
 434 620 324 573 232 479 c 0
 140 385 94 276 94 149 c 0
 94 57 120 -15 172 -68 c 0
 224 -121 296 -147 387 -147 c 0
 440 -147 496 -137 557 -116 c 0
 618 -95 669 -68 710 -35 c 1
 710 -39 l 2
 710 -87 669 -127 587 -159 c 0
 522 -184 461 -197 402 -197 c 0
 298 -197 210 -163 139 -95 c 0
 67 -26 31 60 31 163 c 0
 31 299 82 416 184 516 c 0
 286 614 405 664 541 664 c 0
 638 664 720 634 785 576 c 0
 852 515 886 437 886 341 c 0
491 255 m 1
 474 340 452 383 426 383 c 0
 394 383 362 355 329 298 c 0
 302 251 285 208 277 168 c 0
 272 144 270 124 270 107 c 0
 270 69 281 50 303 50 c 0
 335 50 378 83 432 150 c 0
 457 181 477 216 491 255 c 1
EndSplineSet
Substitution2: "smcpLowercasetoSmallCapitalslookup20 subtable" at_SC
Substitution2: "supsSuperscriptlookup16 subtable" at_SUP
Substitution2: "subsSubscriptlookup15 subtable" at_sub
Substitution2: "'smcp' Lowercase to Small Capitals lookup 20 subtable" at_SC
Substitution2: "'sups' Superscript lookup 16 subtable" at_SUP
Substitution2: "'subs' Subscript lookup 15 subtable" at_sub
EndChar

StartChar: A
Encoding: 65 65 36
Width: 733
VWidth: 1099
GlyphClass: 2
Flags: W
HStem: -6 35<-34.9019 30.375 130.724 192.139 403.848 473.751 589.858 654.272> 282 42<301 488> 717 20G<556 565>
VStem: 488 85<47.5669 282 324 580>
LayerCount: 2
Fore
SplineSet
655 22 m 0
 655 3 650 -6 639 -6 c 0
 637 -6 625 -6 603 -4 c 0
 573 -1 546 0 525 0 c 0
 505 0 480 -1 448 -4 c 0
 425 -6 413 -6 410 -6 c 0
 405 -6 403 -3 403 3 c 0
 403 13 406 21 411 26 c 1
 425 28 439 31 454 33 c 1
 476 40 488 62 488 101 c 2
 488 282 l 1
 270 282 l 1
 147 114 l 2
 133 95 126 77 126 62 c 0
 126 40 146 29 185 29 c 0
 190 29 193 27 193 22 c 0
 193 3 187 -6 175 -6 c 0
 173 -6 161 -6 141 -4 c 0
 113 -1 90 0 70 0 c 0
 51 0 27 -1 -2 -4 c 0
 -23 -6 -35 -6 -37 -6 c 0
 -42 -6 -44 -4 -44 0 c 0
 -44 13 -41 21 -35 26 c 0
 -33 28 -25 29 -10 29 c 0
 15 29 44 51 76 95 c 2
 540 730 l 2
 544 735 551 737 561 737 c 0
 569 737 573 726 573 704 c 2
 573 101 l 2
 573 77 578 59 589 47 c 0
 598 38 612 33 631 31 c 0
 647 29 655 26 655 22 c 0
488 324 m 1
 488 580 l 1
 301 324 l 1
 488 324 l 1
EndSplineSet
Substitution2: "Single Substitution lookup 105 subtable" A_swash1
Substitution2: "Single Substitution lookup 103 subtable" A_swash
Substitution2: "c2scCapitalstoSmallCapitalslookup21 subtable" A_SC
Substitution2: "supsSuperscriptlookup16 subtable" A_SUP
Substitution2: "subsSubscriptlookup15 subtable" A_sub
Substitution2: "Single Substitution lookup 56 subtable" A_swash1
Substitution2: "Single Substitution lookup 55 subtable" A_swash
Substitution2: "'c2sc' Capitals to Small Capitals lookup 21 subtable" A_SC
Substitution2: "'sups' Superscript lookup 16 subtable" A_SUP
Substitution2: "'subs' Subscript lookup 15 subtable" A_sub
EndChar

StartChar: B
Encoding: 66 66 37
Width: 598
VWidth: 1099
GlyphClass: 2
Flags: W
HStem: -7 43<191.648 358.646> -6 32<12.5191 70.6662> 368 43<262 402.438> 686 31<165.266 214.758> 694 43<335.629 462.256>
VStem: 474 99<137.14 294.017> 505 102<500.294 651.575>
LayerCount: 2
Fore
SplineSet
607 575 m 0x2a
 607 526 584 485 540 451 c 0
 503 423 458 404 404 394 c 1
 451 381 490 360 520 332 c 0
 555 299 573 261 573 216 c 0
 573 149 537 94 465 50 c 0
 403 12 336 -7 264 -7 c 0xac
 248 -7 223 -5 190 -3 c 0
 157 -1 131 0 115 0 c 0
 104 0 88 -1 67 -3 c 0
 46 -5 30 -6 19 -6 c 0
 14 -6 12 -3 12 3 c 0
 12 12 14 20 20 26 c 1
 37 29 38 30 55 33 c 0
 75 39 90 60 99 95 c 2
 235 623 l 2
 238 636 240 645 240 652 c 0
 240 669 231 680 215 684 c 0
 210 685 194 686 169 686 c 0
 165 686 164 688 164 691 c 0
 164 701 167 710 173 717 c 0x74
 177 722 208 727 264 732 c 0
 311 736 345 737 366 737 c 0
 429 737 482 726 525 703 c 0
 580 674 607 632 607 575 c 0x2a
505 580 m 0x2a
 505 656 462 694 375 694 c 0
 358 694 346 692 340 687 c 0
 334 682 328 671 324 654 c 2
 262 411 l 1
 286 411 l 2
 346 411 397 425 436 450 c 0
 483 480 505 523 505 580 c 0x2a
474 224 m 0xa4
 474 271 458 308 426 334 c 0
 396 358 357 370 309 370 c 0
 304 370 285 369 251 368 c 1
 186 117 l 2
 183 106 182 97 182 88 c 0
 182 54 205 36 252 36 c 0
 312 36 363 52 405 84 c 0
 451 119 474 166 474 224 c 0xa4
EndSplineSet
Substitution2: "c2scCapitalstoSmallCapitalslookup21 subtable" B_SC
Substitution2: "swshSwashinLatinlookup18 subtable" B_swash
Substitution2: "supsSuperscriptlookup16 subtable" B_SUP
Substitution2: "subsSubscriptlookup15 subtable" B_sub
Substitution2: "'c2sc' Capitals to Small Capitals lookup 21 subtable" B_SC
Substitution2: "'swsh' Swash in Latin lookup 18 subtable" B_swash
Substitution2: "'sups' Superscript lookup 16 subtable" B_SUP
Substitution2: "'subs' Subscript lookup 15 subtable" B_sub
EndChar

StartChar: C
Encoding: 67 67 38
Width: 733
VWidth: 1099
GlyphClass: 2
Flags: W
HStem: -15 43<344.703 541.229> 693 43<413.267 634.735>
VStem: 84 96<217.333 442.535> 732 58<516.154 621.5>
LayerCount: 2
Fore
SplineSet
790 620 m 0
 790 617 787 600 780 568 c 0
 773 536 769 519 768 516 c 0
 765 509 758 506 749 506 c 0
 735 506 729 509 729 514 c 0
 729 518 729 523 730 530 c 0
 731 537 732 542 732 546 c 0
 732 578 717 609 687 637 c 0
 647 675 594 693 528 693 c 0
 431 693 348 653 279 574 c 0
 213 498 180 411 180 312 c 0
 180 229 207 160 258 107 c 0
 309 54 376 28 459 28 c 0
 498 28 536 42 574 69 c 0
 599 87 627 120 660 169 c 0
 663 173 666 175 670 175 c 0
 673 175 678 172 685 168 c 0
 692 164 695 160 695 157 c 0
 695 154 689 136 678 104 c 0
 667 72 660 53 657 48 c 0
 652 38 646 30 638 26 c 0
 587 -1 521 -15 438 -15 c 0
 334 -15 249 20 182 91 c 0
 117 160 84 248 84 353 c 0
 84 457 124 546 206 620 c 0
 291 697 395 736 519 736 c 0
 631 736 720 701 786 630 c 0
 789 627 790 623 790 620 c 0
EndSplineSet
Substitution2: "Single Substitution lookup 99 subtable" C_swash1
Substitution2: "c2scCapitalstoSmallCapitalslookup21 subtable" C_SC
Substitution2: "swshSwashinLatinlookup18 subtable" C_swash
Substitution2: "supsSuperscriptlookup16 subtable" C_SUP
Substitution2: "subsSubscriptlookup15 subtable" C_sub
Substitution2: "Single Substitution lookup 53 subtable" C_swash1
Substitution2: "'c2sc' Capitals to Small Capitals lookup 21 subtable" C_SC
Substitution2: "'swsh' Swash in Latin lookup 18 subtable" C_swash
Substitution2: "'sups' Superscript lookup 16 subtable" C_SUP
Substitution2: "'subs' Subscript lookup 15 subtable" C_sub
EndChar

StartChar: D
Encoding: 68 68 39
Width: 791
VWidth: 1099
GlyphClass: 2
Flags: W
HStem: -6 36<-7.29688 75.7243 216.876 399.719> 694 43<276.769 534.178>
VStem: 697 97<289.663 546.04>
LayerCount: 2
Fore
SplineSet
794 422 m 0
 794 307 753 208 670 123 c 0
 583 35 482 -9 368 -9 c 0
 340 -9 299 -8 244 -5 c 0
 189 -2 148 0 120 0 c 0
 106 0 86 -1 59 -3 c 0
 32 -5 12 -6 -2 -6 c 0
 -7 -6 -9 -4 -9 0 c 0
 -9 19 0 29 19 30 c 0
 46 32 65 38 77 49 c 0
 89 60 99 82 107 114 c 2
 234 609 l 2
 239 627 241 642 241 652 c 0
 241 677 228 689 201 689 c 0
 196 689 188 689 178 687 c 0
 168 685 161 684 156 684 c 0
 153 684 151 687 151 691 c 0
 151 701 155 710 161 719 c 0
 170 731 258 737 423 737 c 0
 534 737 622 712 686 664 c 0
 758 610 794 529 794 422 c 0
697 428 m 0
 697 606 592 694 383 694 c 0
 355 694 337 680 330 652 c 2
 199 143 l 2
 194 124 192 107 192 92 c 0
 192 54 220 35 276 35 c 0
 289 35 300 36 310 36 c 0
 425 40 519 78 590 149 c 0
 661 220 697 313 697 428 c 0
EndSplineSet
Substitution2: "c2scCapitalstoSmallCapitalslookup21 subtable" D_SC
Substitution2: "swshSwashinLatinlookup18 subtable" D_swash
Substitution2: "supsSuperscriptlookup16 subtable" D_SUP
Substitution2: "subsSubscriptlookup15 subtable" D_sub
Substitution2: "'c2sc' Capitals to Small Capitals lookup 21 subtable" D_SC
Substitution2: "'swsh' Swash in Latin lookup 18 subtable" D_swash
Substitution2: "'sups' Superscript lookup 16 subtable" D_SUP
Substitution2: "'subs' Subscript lookup 15 subtable" D_sub
EndChar

StartChar: E
Encoding: 69 69 40
Width: 617
VWidth: 1099
GlyphClass: 2
Flags: W
HStem: -6 35<-6.51831 70.5168> -3 46<195.136 466.423> 358 43<264 427.713> 680 41<343.332 553.633> 692 36<156.976 214.618>
VStem: 425 34<295.012 332.812> 428 74<331 462.5>
LayerCount: 2
Fore
SplineSet
627 716 m 0x34
 627 711 618 668 600 588 c 0
 599 582 594 579 585 579 c 2
 578 579 l 2
 574 579 572 583 572 591 c 0
 571 622 566 644 556 657 c 0
 544 672 522 680 491 680 c 2
 380 680 l 2
 362 680 350 676 343 670 c 0
 338 665 333 655 328 638 c 2
 264 401 l 1
 399 401 l 2
 423 401 442 411 457 433 c 0
 472 455 480 466 482 466 c 2
 496 466 l 2
 500 466 502 464 502 461 c 256x32
 502 458 498 445 491 423 c 0
 482 397 477 383 477 382 c 0
 473 365 468 339 459 305 c 0
 457 299 452 295 443 295 c 0
 431 295 425 297 425 302 c 0x34
 425 306 425 311 426 318 c 0
 427 325 428 329 428 333 c 0x32
 428 350 418 358 397 358 c 2
 251 358 l 1
 194 149 l 2
 189 129 186 112 186 97 c 0
 186 73 196 57 217 49 c 0
 229 45 250 43 279 43 c 0
 371 43 432 49 459 61 c 0
 475 68 490 80 503 96 c 0
 514 111 525 126 536 141 c 0
 540 146 543 148 547 148 c 0
 550 148 555 146 561 143 c 0
 567 140 570 137 570 135 c 0
 570 134 553 95 519 18 c 0
 514 8 511 2 509 0 c 0
 505 -4 499 -5 489 -5 c 0
 452 -5 396 -5 321 -3 c 0
 246 -1 191 0 154 0 c 0
 137 0 111 -1 77 -3 c 0x74
 43 -5 17 -6 0 -6 c 0
 -5 -6 -8 -4 -8 0 c 0
 -8 17 -1 27 13 29 c 0
 27 31 40 33 54 35 c 1
 72 42 84 60 92 88 c 2
 238 617 l 2
 242 630 243 641 243 651 c 0
 243 671 234 684 215 689 c 0
 207 692 189 692 163 692 c 0
 158 692 156 694 156 698 c 0
 156 718 162 728 173 728 c 0xac
 193 728 222 727 262 725 c 0
 302 723 331 721 351 721 c 0
 380 721 423 722 480 724 c 0
 537 726 580 727 609 727 c 0
 621 727 627 723 627 716 c 0x34
EndSplineSet
Substitution2: "c2scCapitalstoSmallCapitalslookup21 subtable" E_SC
Substitution2: "swshSwashinLatinlookup18 subtable" E_swash
Substitution2: "supsSuperscriptlookup16 subtable" E_SUP
Substitution2: "subsSubscriptlookup15 subtable" E_sub
Substitution2: "'c2sc' Capitals to Small Capitals lookup 21 subtable" E_SC
Substitution2: "'swsh' Swash in Latin lookup 18 subtable" E_swash
Substitution2: "'sups' Superscript lookup 16 subtable" E_SUP
Substitution2: "'subs' Subscript lookup 15 subtable" E_sub
EndChar

StartChar: F
Encoding: 70 70 41
Width: 521
VWidth: 1099
GlyphClass: 2
Flags: W
HStem: -6 35<4.91796 72.6191 209.428 269.233> 358 43<262 436.557> 680 41<337.286 525.682> 692 36<149.851 209.572>
VStem: 435 33<295.003 330.858> 437 72<329.5 462.5> 551 53<603.179 656.832>
LayerCount: 2
Fore
SplineSet
604 715 m 0xe6
 604 714 600 693 592 653 c 0
 584 613 580 592 579 588 c 0
 577 582 573 579 565 579 c 256
 557 579 553 580 552 581 c 0
 551 582 551 588 551 596 c 0
 551 630 539 653 517 666 c 0
 501 675 475 680 439 680 c 2
 373 680 l 2
 355 680 343 677 337 671 c 0
 332 666 327 655 323 638 c 2
 262 401 l 1
 406 401 l 2
 430 401 449 411 464 433 c 0
 479 455 487 466 488 466 c 2
 502 466 l 2
 506 466 509 464 509 461 c 256xe6
 509 458 505 445 498 423 c 0
 490 397 486 384 486 382 c 0
 483 364 476 339 468 305 c 0
 466 299 461 295 452 295 c 0
 441 295 435 297 435 302 c 0xea
 435 305 435 311 436 317 c 0
 437 323 437 328 437 331 c 0
 437 349 426 358 405 358 c 2
 251 358 l 1
 186 104 l 2
 183 91 181 80 181 71 c 0
 181 51 190 39 209 33 c 0
 218 30 235 29 262 29 c 0
 267 29 270 27 270 23 c 0
 270 3 265 -6 254 -6 c 0
 251 -6 238 -6 214 -4 c 0
 181 -1 153 0 131 0 c 0
 103 0 75 -1 46 -3 c 0
 17 -5 3 -6 5 -6 c 1
 0 -6 -2 -4 -2 0 c 0
 -2 18 7 28 24 30 c 0
 49 33 65 37 73 44 c 0
 84 54 92 71 98 95 c 2
 233 617 l 2
 237 631 238 642 238 650 c 0
 238 670 229 683 210 689 c 0
 201 692 184 692 157 692 c 0
 152 692 149 695 149 699 c 0
 149 718 155 728 166 728 c 0xd6
 186 728 215 727 255 725 c 0
 295 723 324 721 344 721 c 0
 371 721 412 722 465 724 c 0
 518 726 558 727 585 727 c 0
 598 727 604 723 604 715 c 0xe6
EndSplineSet
Substitution2: "c2scCapitalstoSmallCapitalslookup21 subtable" F_SC
Substitution2: "swshSwashinLatinlookup18 subtable" F_swash
Substitution2: "supsSuperscriptlookup16 subtable" F_SUP
Substitution2: "subsSubscriptlookup15 subtable" F_sub
Substitution2: "'c2sc' Capitals to Small Capitals lookup 21 subtable" F_SC
Substitution2: "'swsh' Swash in Latin lookup 18 subtable" F_swash
Substitution2: "'sups' Superscript lookup 16 subtable" F_SUP
Substitution2: "'subs' Subscript lookup 15 subtable" F_sub
EndChar

StartChar: G
Encoding: 71 71 42
Width: 811
VWidth: 1099
GlyphClass: 2
Flags: W
HStem: -15 43<348.717 543.5> 285 36<531 623.825 732.221 794> 693 43<417.046 648.676>
VStem: 88 97<209.213 443.652> 741 60<527.155 639>
LayerCount: 2
Fore
SplineSet
802 314 m 0
 802 299 800 290 798 288 c 0
 796 286 788 285 775 285 c 0
 744 285 724 268 714 233 c 2
 657 33 l 2
 654 23 639 13 612 5 c 0
 564 -8 506 -15 439 -15 c 0
 336 -15 252 19 186 86 c 0
 120 153 88 239 88 343 c 0
 88 451 128 542 209 618 c 0
 294 697 399 736 525 736 c 0
 567 736 615 728 668 713 c 0
 728 695 769 674 794 650 c 0
 798 646 801 641 801 637 c 0
 801 631 797 611 790 576 c 0
 783 541 778 522 776 517 c 0
 773 511 768 508 759 508 c 0
 746 508 739 510 739 516 c 0
 739 520 739 525 740 532 c 0
 741 539 741 543 741 547 c 0
 741 604 710 646 649 672 c 0
 616 686 577 693 531 693 c 0
 434 693 351 653 283 574 c 0
 218 498 185 411 185 312 c 0
 185 227 211 158 263 106 c 0
 315 54 382 28 467 28 c 0
 540 28 588 69 612 151 c 0
 628 205 636 236 636 245 c 0
 636 271 602 285 531 285 c 0
 523 285 519 288 519 294 c 0
 519 312 523 321 531 321 c 1
 527 321 542 320 575 317 c 0
 604 315 633 314 662 314 c 256
 691 314 721 315 750 317 c 0
 784 320 798 321 794 321 c 1
 799 321 802 319 802 314 c 0
EndSplineSet
Substitution2: "c2scCapitalstoSmallCapitalslookup21 subtable" G_SC
Substitution2: "swshSwashinLatinlookup18 subtable" G_swash
Substitution2: "supsSuperscriptlookup16 subtable" G_SUP
Substitution2: "subsSubscriptlookup15 subtable" G_sub
Substitution2: "'c2sc' Capitals to Small Capitals lookup 21 subtable" G_SC
Substitution2: "'swsh' Swash in Latin lookup 18 subtable" G_swash
Substitution2: "'sups' Superscript lookup 16 subtable" G_SUP
Substitution2: "'subs' Subscript lookup 15 subtable" G_sub
EndChar

StartChar: H
Encoding: 72 72 43
Width: 784
VWidth: 1099
GlyphClass: 2
Flags: W
HStem: -6 35<3.14355 69 188.391 264.047 443.023 514.387 651.382 712.062> 358 43<265 617> 692 36<158.115 215.618 356.379 423.901 606.115 681.609 801.426 871.901>
LayerCount: 2
Fore
SplineSet
877 722 m 0
 877 719 875 711 872 701 c 0
 870 696 861 692 844 691 c 0
 824 690 810 685 801 677 c 0
 791 668 782 651 775 627 c 2
 632 104 l 2
 628 90 626 79 626 71 c 0
 626 52 634 39 651 34 c 0
 659 31 676 30 700 30 c 0
 709 30 713 28 713 24 c 0
 713 4 708 -6 698 -6 c 0
 695 -6 682 -6 658 -4 c 0
 625 -1 597 0 575 0 c 0
 553 0 524 -1 490 -4 c 0
 465 -6 453 -6 450 -6 c 0
 445 -6 442 -3 442 3 c 0
 442 14 446 21 452 26 c 0
 454 28 456 29 459 29 c 0
 484 29 502 34 515 44 c 0
 528 54 537 71 544 95 c 2
 617 358 l 1
 253 358 l 1
 180 95 l 2
 178 87 177 79 177 73 c 0
 177 44 204 29 258 29 c 0
 263 29 265 27 265 24 c 0
 265 4 260 -6 249 -6 c 0
 246 -6 234 -6 210 -4 c 0
 177 -1 149 0 127 0 c 0
 105 0 76 -1 42 -4 c 0
 17 -6 5 -6 2 -6 c 0
 -3 -6 -6 -3 -6 3 c 0
 -6 14 -3 22 3 26 c 0
 6 28 13 29 24 29 c 0
 60 29 84 51 96 95 c 2
 240 617 l 2
 244 630 245 641 245 651 c 0
 245 671 235 684 216 689 c 0
 208 692 190 692 164 692 c 0
 159 692 157 694 157 698 c 0
 157 718 164 728 175 728 c 0
 177 728 189 727 213 725 c 0
 246 722 273 721 296 721 c 0
 317 721 346 722 381 725 c 0
 406 727 419 728 422 728 c 0
 427 728 429 726 429 722 c 256
 429 718 427 711 424 701 c 0
 422 696 413 693 397 690 c 0
 377 687 364 683 356 677 c 0
 343 667 333 651 327 627 c 2
 265 401 l 1
 628 401 l 1
 690 627 l 2
 692 635 693 642 693 648 c 0
 693 677 666 692 612 692 c 0
 607 692 605 694 605 698 c 0
 605 718 612 728 623 728 c 0
 625 728 637 727 661 725 c 0
 694 722 721 721 744 721 c 0
 766 721 794 722 829 725 c 0
 854 727 868 728 871 728 c 0
 875 728 877 726 877 722 c 0
EndSplineSet
Substitution2: "c2scCapitalstoSmallCapitalslookup21 subtable" H_SC
Substitution2: "swshSwashinLatinlookup18 subtable" H_swash
Substitution2: "supsSuperscriptlookup16 subtable" H_SUP
Substitution2: "subsSubscriptlookup15 subtable" H_sub
Substitution2: "'c2sc' Capitals to Small Capitals lookup 21 subtable" H_SC
Substitution2: "'swsh' Swash in Latin lookup 18 subtable" H_swash
Substitution2: "'sups' Superscript lookup 16 subtable" H_SUP
Substitution2: "'subs' Subscript lookup 15 subtable" H_sub
EndChar

StartChar: I
Encoding: 73 73 44
Width: 347
VWidth: 1099
GlyphClass: 2
Flags: W
HStem: -6 36<-0.232952 75.683 211.428 270.16> 692 36<156.896 212.618 347.426 419>
LayerCount: 2
Fore
SplineSet
426 722 m 0
 426 719 424 711 421 701 c 0
 419 696 410 693 392 692 c 0
 371 691 356 685 347 677 c 0
 336 668 328 651 322 627 c 2
 187 104 l 2
 184 91 183 80 183 71 c 0
 183 51 192 39 211 33 c 0
 220 30 237 29 264 29 c 0
 269 29 271 27 271 23 c 0
 271 3 265 -6 255 -6 c 0
 252 -6 239 -6 215 -4 c 0
 182 -1 155 0 133 0 c 0
 111 0 82 -1 48 -4 c 0
 23 -6 10 -6 7 -6 c 0
 2 -6 -1 -4 -1 0 c 2
 -1 3 l 2
 -1 15 2 22 7 26 c 0
 11 29 19 30 32 30 c 0
 66 30 89 52 100 95 c 2
 234 617 l 2
 238 631 240 643 240 652 c 0
 240 671 231 684 213 689 c 0
 205 692 188 692 163 692 c 0
 158 692 156 695 156 699 c 0
 156 718 162 728 173 728 c 0
 175 728 188 727 212 725 c 0
 245 722 272 721 294 721 c 0
 321 721 349 723 378 725 c 0
 407 727 421 728 419 728 c 1
 424 728 426 726 426 722 c 0
EndSplineSet
Substitution2: "c2scCapitalstoSmallCapitalslookup21 subtable" I_SC
Substitution2: "swshSwashinLatinlookup18 subtable" I_swash
Substitution2: "supsSuperscriptlookup16 subtable" I_SUP
Substitution2: "subsSubscriptlookup15 subtable" I_sub
Substitution2: "'c2sc' Capitals to Small Capitals lookup 21 subtable" I_SC
Substitution2: "'swsh' Swash in Latin lookup 18 subtable" I_swash
Substitution2: "'sups' Superscript lookup 16 subtable" I_SUP
Substitution2: "'subs' Subscript lookup 15 subtable" I_sub
EndChar

StartChar: J
Encoding: 74 74 45
Width: 328
VWidth: 1099
GlyphClass: 2
Flags: W
HStem: -230 51<-46.5 29.3716> 692 36<141.75 200.572 337.426 407.901>
LayerCount: 2
Fore
SplineSet
412 721 m 0
 412 717 411 710 408 701 c 0
 406 696 397 692 380 691 c 0
 360 690 346 685 337 677 c 0
 327 668 319 651 313 627 c 2
 166 17 l 2
 151 -47 129 -101 101 -143 c 0
 63 -201 16 -230 -37 -230 c 0
 -56 -230 -72 -226 -85 -216 c 0
 -99 -206 -106 -191 -106 -172 c 0
 -106 -148 -93 -136 -68 -136 c 0
 -56 -136 -44 -143 -32 -158 c 0
 -20 -173 -8 -179 3 -179 c 0
 13 -179 21 -175 28 -165 c 0
 38 -151 52 -107 70 -31 c 2
 226 617 l 2
 229 629 230 639 230 649 c 0
 230 669 220 683 201 689 c 0
 192 692 175 692 148 692 c 0
 143 692 141 695 141 699 c 0
 141 718 146 728 156 728 c 0
 159 728 173 727 196 725 c 0
 229 722 256 721 279 721 c 0
 302 721 330 722 364 725 c 0
 388 727 401 728 404 728 c 0
 409 728 412 725 412 721 c 0
EndSplineSet
Substitution2: "c2scCapitalstoSmallCapitalslookup21 subtable" J_SC
Substitution2: "swshSwashinLatinlookup18 subtable" J_swash
Substitution2: "supsSuperscriptlookup16 subtable" J_SUP
Substitution2: "subsSubscriptlookup15 subtable" J_sub
Substitution2: "'c2sc' Capitals to Small Capitals lookup 21 subtable" J_SC
Substitution2: "'swsh' Swash in Latin lookup 18 subtable" J_swash
Substitution2: "'sups' Superscript lookup 16 subtable" J_SUP
Substitution2: "'subs' Subscript lookup 15 subtable" J_sub
EndChar

StartChar: K
Encoding: 75 75 46
Width: 714
VWidth: 1099
GlyphClass: 2
Flags: W
HStem: -6 35<-4.31033 72.625 188.865 253.225 412.793 489.339 611.772 669.25> 692 36<150.75 210.572 347.426 414 531.647 601.201 692.58 767.903>
LayerCount: 2
Fore
SplineSet
772 722 m 256
 772 718 771 711 768 701 c 0
 766 695 760 693 750 693 c 0
 724 693 691 678 654 647 c 2
 385 424 l 1
 568 100 l 2
 595 53 624 29 658 29 c 0
 666 29 670 27 670 23 c 0
 670 3 665 -6 654 -6 c 1
 656 -6 643 -5 617 -3 c 0
 591 -1 564 0 539 0 c 0
 518 0 491 -1 458 -4 c 0
 435 -6 422 -6 419 -6 c 0
 414 -6 412 -3 412 3 c 0
 412 14 415 21 421 26 c 1
 421 26 421 26 460 30 c 0
 481 32 491 41 491 55 c 0
 491 64 487 77 477 95 c 2
 322 374 l 1
 237 304 l 1
 184 95 l 2
 182 87 180 79 180 71 c 0
 180 43 203 29 248 29 c 0
 252 29 254 27 254 23 c 0
 254 3 249 -6 238 -6 c 0
 236 -6 224 -6 201 -4 c 0
 169 -1 143 0 122 0 c 256
 101 0 74 -1 41 -4 c 0
 18 -6 6 -6 3 -6 c 0
 -2 -6 -5 -3 -5 3 c 0
 -5 15 -2 22 4 26 c 0
 7 28 14 29 26 29 c 0
 64 29 88 51 99 95 c 2
 233 617 l 2
 237 631 238 642 238 650 c 0
 238 670 230 683 211 689 c 0
 202 692 184 692 157 692 c 0
 152 692 150 695 150 699 c 0
 150 718 155 728 166 728 c 0
 169 728 181 727 205 725 c 0
 238 722 266 721 288 721 c 0
 315 721 344 723 373 725 c 0
 402 727 416 728 414 728 c 1
 419 728 422 726 422 722 c 0
 422 719 420 711 417 701 c 0
 415 696 405 692 389 691 c 0
 370 690 356 685 347 677 c 0
 336 667 327 651 321 627 c 2
 251 358 l 1
 570 625 l 2
 592 644 603 658 603 669 c 0
 603 684 582 692 539 692 c 0
 533 692 531 695 531 701 c 0
 531 719 537 728 549 728 c 0
 551 728 563 727 583 725 c 0
 612 722 635 721 655 721 c 0
 674 721 699 722 729 725 c 0
 750 727 763 728 765 728 c 0
 770 728 772 726 772 722 c 256
EndSplineSet
Substitution2: "Single Substitution lookup 113 subtable" K_short
Substitution2: "c2scCapitalstoSmallCapitalslookup21 subtable" K_SC
Substitution2: "swshSwashinLatinlookup18 subtable" K_swash
Substitution2: "supsSuperscriptlookup16 subtable" K_SUP
Substitution2: "subsSubscriptlookup15 subtable" K_sub
Substitution2: "Single Substitution lookup 57 subtable" K_short
Substitution2: "'c2sc' Capitals to Small Capitals lookup 21 subtable" K_SC
Substitution2: "'swsh' Swash in Latin lookup 18 subtable" K_swash
Substitution2: "'sups' Superscript lookup 16 subtable" K_SUP
Substitution2: "'subs' Subscript lookup 15 subtable" K_sub
EndChar

StartChar: L
Encoding: 76 76 47
Width: 617
VWidth: 1099
GlyphClass: 2
Flags: W
HStem: -6 36<8.09815 74.5752> -5 48<199.869 472.427> 692 36<151.75 211.572 348.425 415>
LayerCount: 2
Fore
SplineSet
575 131 m 256x60
 575 129 558 91 526 18 c 0
 521 8 519 2 517 0 c 0
 513 -4 506 -5 497 -5 c 0x60
 461 -5 408 -4 336 -2 c 0
 264 0 209 1 173 1 c 0
 156 1 102 -1 11 -6 c 0
 6 -6 4 -5 4 0 c 0
 4 4 5 11 8 20 c 0
 10 25 18 29 34 30 c 0xa0
 53 31 66 36 75 44 c 0
 85 54 94 71 100 95 c 2
 234 617 l 2
 238 631 240 642 240 650 c 0
 240 670 231 683 212 689 c 0
 203 692 185 692 158 692 c 0
 153 692 151 695 151 699 c 0
 151 718 156 728 167 728 c 0
 170 728 183 727 206 725 c 0
 239 722 266 721 289 721 c 0
 317 721 345 723 374 725 c 0
 403 727 416 728 415 728 c 1
 420 728 423 726 423 722 c 0
 423 718 421 711 418 701 c 0
 416 696 406 692 390 691 c 0
 370 690 357 685 348 677 c 0
 337 667 328 651 322 627 c 2
 199 149 l 2
 193 127 190 110 190 97 c 0
 190 73 201 57 223 49 c 0
 235 45 257 43 287 43 c 0
 378 43 438 49 465 61 c 0
 481 68 496 80 510 96 c 0
 521 111 533 127 544 142 c 0
 547 146 550 148 554 148 c 0
 557 148 560 146 566 141 c 0
 572 136 575 133 575 131 c 256x60
EndSplineSet
Substitution2: "c2scCapitalstoSmallCapitalslookup21 subtable" L_SC
Substitution2: "swshSwashinLatinlookup18 subtable" L_swash
Substitution2: "supsSuperscriptlookup16 subtable" L_SUP
Substitution2: "subsSubscriptlookup15 subtable" L_sub
Substitution2: "'c2sc' Capitals to Small Capitals lookup 21 subtable" L_SC
Substitution2: "'swsh' Swash in Latin lookup 18 subtable" L_swash
Substitution2: "'sups' Superscript lookup 16 subtable" L_SUP
Substitution2: "'subs' Subscript lookup 15 subtable" L_sub
EndChar

StartChar: M
Encoding: 77 77 48
Width: 811
VWidth: 1099
GlyphClass: 2
Flags: W
HStem: -6 35<-30.1787 37.6824 112.617 190.233 507.35 574.25 683.024 764.233> 691 37<173.5 248.675 805.377 868.856>
LayerCount: 2
Fore
SplineSet
878 722 m 0
 878 722 877 721 877 719 c 0
 875 706 872 698 869 695 c 0
 866 692 858 691 844 691 c 0
 810 691 789 670 780 627 c 2
 677 104 l 2
 675 93 674 85 674 77 c 0
 674 55 683 40 701 34 c 0
 710 31 729 29 757 29 c 0
 762 29 765 27 765 23 c 0
 765 3 760 -6 749 -6 c 0
 747 -6 735 -6 712 -4 c 0
 680 -1 654 0 633 0 c 0
 612 0 585 -1 552 -4 c 0
 528 -6 515 -6 512 -6 c 0
 506 -6 504 -4 505 0 c 2
 505 3 l 2
 508 17 512 24 516 27 c 0
 519 29 527 30 541 30 c 0
 568 30 585 52 594 95 c 2
 691 585 l 1
 349 33 l 2
 346 28 340 26 332 26 c 0
 324 26 320 30 320 36 c 2
 283 561 l 1
 112 95 l 2
 108 83 105 73 105 65 c 0
 105 41 131 29 183 29 c 0
 188 29 191 27 191 23 c 0
 191 3 186 -6 175 -6 c 0
 173 -6 162 -6 143 -4 c 0
 117 -1 95 0 77 0 c 0
 59 0 37 -1 9 -4 c 0
 -11 -6 -22 -6 -24 -6 c 0
 -29 -6 -31 -4 -31 0 c 0
 -31 13 -29 21 -23 26 c 1
 -10 29 4 31 17 34 c 1
 39 41 55 61 68 95 c 2
 271 642 l 1
 260 675 228 691 178 691 c 0
 174 691 172 693 172 696 c 0
 172 713 177 722 186 722 c 2
 330 728 l 2
 339 728 344 716 346 692 c 2
 382 158 l 1
 706 691 l 2
 721 716 733 728 742 728 c 0
 744 728 750 727 762 725 c 0
 779 722 794 721 805 721 c 0
 813 721 824 723 839 725 c 0
 854 727 865 728 873 728 c 0
 876 728 878 726 878 722 c 0
EndSplineSet
Substitution2: "Single Substitution lookup 105 subtable" M_swash1
Substitution2: "Single Substitution lookup 103 subtable" M_swash
Substitution2: "c2scCapitalstoSmallCapitalslookup21 subtable" M_SC
Substitution2: "supsSuperscriptlookup16 subtable" M_SUP
Substitution2: "subsSubscriptlookup15 subtable" M_sub
Substitution2: "Single Substitution lookup 56 subtable" M_swash1
Substitution2: "Single Substitution lookup 55 subtable" M_swash
Substitution2: "'c2sc' Capitals to Small Capitals lookup 21 subtable" M_SC
Substitution2: "'sups' Superscript lookup 16 subtable" M_SUP
Substitution2: "'subs' Subscript lookup 15 subtable" M_sub
EndChar

StartChar: N
Encoding: 78 78 49
Width: 771
VWidth: 1099
GlyphClass: 2
Flags: W
HStem: -6 35<22.1624 91.6926 173.698 249.104> 692 36<116.728 213.294 646.851 724.421 800.725 863.176>
LayerCount: 2
Fore
SplineSet
864 722 m 0
 864 702 859 692 849 692 c 0
 811 692 786 671 775 627 c 2
 643 118 l 1
 684 45 705 8 705 7 c 0
 705 2 698 -1 683 -1 c 0
 680 -1 676 -1 671 -1 c 0
 666 -1 663 0 660 0 c 0
 627 0 608 3 605 8 c 2
 291 587 l 1
 164 95 l 2
 162 88 161 81 161 74 c 0
 161 44 189 29 243 29 c 0
 248 29 250 27 250 23 c 0
 250 3 244 -6 234 -6 c 0
 232 -6 221 -6 201 -4 c 0
 173 -1 151 0 133 0 c 0
 115 0 92 -1 63 -4 c 0
 43 -6 31 -6 28 -6 c 0
 23 -6 21 -4 21 0 c 0
 21 12 24 21 30 26 c 1
 44 26 65 33 93 44 c 1
 106 54 115 71 121 95 c 2
 261 639 l 1
 238 674 198 692 141 692 c 0
 124 692 116 694 116 699 c 0
 116 718 121 728 132 728 c 0
 133 728 142 727 158 725 c 0
 180 722 199 721 214 721 c 0
 229 721 248 722 272 725 c 0
 289 727 299 728 301 728 c 0
 306 728 311 724 316 715 c 2
 615 171 l 1
 733 627 l 2
 735 635 736 642 736 648 c 0
 736 677 709 692 654 692 c 0
 649 692 646 695 646 699 c 0
 646 718 652 728 663 728 c 0
 665 728 675 727 693 725 c 0
 719 722 740 721 758 721 c 256
 776 721 797 722 824 725 c 0
 843 727 854 728 856 728 c 0
 861 728 864 726 864 722 c 0
EndSplineSet
Substitution2: "Single Substitution lookup 113 subtable" N_short
Substitution2: "c2scCapitalstoSmallCapitalslookup21 subtable" N_SC
Substitution2: "swshSwashinLatinlookup18 subtable" N_swash
Substitution2: "supsSuperscriptlookup16 subtable" N_SUP
Substitution2: "subsSubscriptlookup15 subtable" N_sub
Substitution2: "Single Substitution lookup 57 subtable" N_short
Substitution2: "'c2sc' Capitals to Small Capitals lookup 21 subtable" N_SC
Substitution2: "'swsh' Swash in Latin lookup 18 subtable" N_swash
Substitution2: "'sups' Superscript lookup 16 subtable" N_SUP
Substitution2: "'subs' Subscript lookup 15 subtable" N_sub
EndChar

StartChar: O
Encoding: 79 79 50
Width: 808
VWidth: 1099
GlyphClass: 2
Flags: W
HStem: -15 43<306.214 499.212> 693 43<383.687 577.083>
VStem: 78 98<200.834 449.171> 707 98<271.5 518.438>
LayerCount: 2
Fore
SplineSet
805 382 m 0
 805 274 765 181 684 103 c 0
 603 25 509 -15 401 -15 c 0
 303 -15 225 21 164 90 c 0
 107 156 78 238 78 338 c 0
 78 446 118 540 199 619 c 0
 279 697 374 736 482 736 c 0
 580 736 659 701 719 631 c 0
 776 565 805 482 805 382 c 0
707 414 m 0
 707 489 689 552 653 604 c 0
 613 663 556 693 484 693 c 0
 399 693 326 653 264 573 c 0
 205 497 176 408 176 307 c 0
 176 232 194 169 230 117 c 0
 271 58 327 28 399 28 c 0
 484 28 557 68 619 148 c 0
 678 224 707 313 707 414 c 0
EndSplineSet
Substitution2: "c2scCapitalstoSmallCapitalslookup21 subtable" O_SC
Substitution2: "swshSwashinLatinlookup18 subtable" O_swash
Substitution2: "supsSuperscriptlookup16 subtable" O_SUP
Substitution2: "subsSubscriptlookup15 subtable" O_sub
Substitution2: "'c2sc' Capitals to Small Capitals lookup 21 subtable" O_SC
Substitution2: "'swsh' Swash in Latin lookup 18 subtable" O_swash
Substitution2: "'sups' Superscript lookup 16 subtable" O_SUP
Substitution2: "'subs' Subscript lookup 15 subtable" O_sub
EndChar

StartChar: P
Encoding: 80 80 51
Width: 578
VWidth: 1099
GlyphClass: 2
Flags: W
HStem: -6 36<4.14429 71.683 188.461 266.272> 309 44<310.308 445.277> 317 51<301.172 314.953> 685 34<145.969 205.572> 691 43<331.852 449.025>
VStem: 520 101<446.129 621.426>
LayerCount: 2
Fore
SplineSet
621 537 m 0x8c
 621 479 598 426 551 379 c 0
 504 332 451 309 393 309 c 0xcc
 378 309 360 311 339 317 c 0
 313 325 300 334 300 344 c 0
 300 360 304 368 312 368 c 0xa4
 313 368 314 367 315 367 c 0
 340 358 361 353 377 353 c 0
 421 353 456 374 484 416 c 0
 508 452 520 493 520 540 c 0
 520 583 507 618 479 647 c 0
 451 676 416 691 373 691 c 0xcc
 347 691 330 677 323 649 c 2
 180 95 l 2
 178 88 178 81 178 74 c 0
 178 44 205 29 259 29 c 0
 264 29 267 27 267 23 c 0
 267 3 262 -6 251 -6 c 0
 248 -6 235 -6 212 -4 c 0
 180 -1 151 0 128 0 c 0
 105 0 77 -1 44 -4 c 0
 20 -6 6 -6 3 -6 c 0
 -2 -6 -4 -3 -4 3 c 0
 -4 14 -2 21 4 26 c 0
 7 29 15 30 28 30 c 0
 62 30 85 52 96 95 c 2
 228 610 l 2
 232 624 234 635 234 643 c 0
 234 663 225 676 206 682 c 0
 197 685 180 685 153 685 c 0
 148 685 145 687 145 692 c 0
 145 703 148 713 154 719 c 0x94
 158 723 192 727 254 730 c 0
 302 733 339 734 366 734 c 0
 430 734 488 717 537 684 c 0
 594 647 621 598 621 537 c 0x8c
EndSplineSet
Substitution2: "c2scCapitalstoSmallCapitalslookup21 subtable" P_SC
Substitution2: "swshSwashinLatinlookup18 subtable" P_swash
Substitution2: "supsSuperscriptlookup16 subtable" P_SUP
Substitution2: "subsSubscriptlookup15 subtable" P_sub
Substitution2: "'c2sc' Capitals to Small Capitals lookup 21 subtable" P_SC
Substitution2: "'swsh' Swash in Latin lookup 18 subtable" P_swash
Substitution2: "'sups' Superscript lookup 16 subtable" P_SUP
Substitution2: "'subs' Subscript lookup 15 subtable" P_sub
EndChar

StartChar: Q
Encoding: 81 81 52
Width: 830
VWidth: 1099
GlyphClass: 2
Flags: W
HStem: -240 53<674.762 801.703> -15 43<327 472.163> 693 43<388.504 591.179>
VStem: 76 99<204.01 449.202> 727 99<266.126 516.849>
LayerCount: 2
Fore
SplineSet
826 382 m 0
 826 297 797 219 741 147 c 0
 686 77 617 29 535 4 c 1
 559 -15 582 -41 604 -74 c 0
 620 -98 632 -116 639 -125 c 0
 655 -147 668 -161 679 -169 c 0
 694 -179 712 -185 734 -187 c 0
 754 -188 773 -189 793 -190 c 0
 808 -191 816 -194 816 -199 c 0
 816 -215 811 -227 802 -233 c 0
 796 -237 769 -240 722 -240 c 0
 641 -240 577 -201 532 -123 c 0
 519 -100 497 -68 466 -26 c 0
 463 -22 456 -17 444 -13 c 1
 439 -13 431 -13 422 -14 c 0
 411 -14 404 -15 400 -15 c 0
 313 -15 237 18 175 81 c 0
 109 148 76 234 76 339 c 0
 76 442 116 534 196 613 c 0
 279 695 377 736 491 736 c 0
 591 736 672 701 735 633 c 0
 795 566 826 483 826 382 c 0
727 411 m 0
 727 488 708 553 670 605 c 0
 627 664 568 693 494 693 c 0
 405 693 329 653 265 574 c 0
 205 499 175 412 175 312 c 0
 175 231 197 164 243 111 c 0
 291 55 355 28 435 28 c 0
 516 28 586 68 645 148 c 0
 700 222 727 310 727 411 c 0
EndSplineSet
Substitution2: "c2scCapitalstoSmallCapitalslookup21 subtable" Q_SC
Substitution2: "swshSwashinLatinlookup18 subtable" Q_swash
Substitution2: "supsSuperscriptlookup16 subtable" Q_SUP
Substitution2: "subsSubscriptlookup15 subtable" Q_sub
Substitution2: "'c2sc' Capitals to Small Capitals lookup 21 subtable" Q_SC
Substitution2: "'swsh' Swash in Latin lookup 18 subtable" Q_swash
Substitution2: "'sups' Superscript lookup 16 subtable" Q_SUP
Substitution2: "'subs' Subscript lookup 15 subtable" Q_sub
EndChar

StartChar: R
Encoding: 82 82 53
Width: 714
VWidth: 1099
GlyphClass: 2
Flags: W
HStem: -6 32<-12.5693 64.5938 198.188 261.767 602.712 662.047> 353 43<265 329.381> 694 43<337.297 465.158>
VStem: 533 99<495.583 633.919>
LayerCount: 2
Fore
SplineSet
663 22 m 0
 663 3 658 -6 647 -6 c 0
 641 -6 630 -6 617 -5 c 0
 604 -4 594 -3 588 -3 c 0
 582 -3 574 -4 562 -5 c 0
 550 -6 541 -6 535 -6 c 0
 512 -6 494 8 482 37 c 2
 377 286 l 2
 364 317 349 336 330 344 c 0
 317 350 291 353 254 353 c 1
 187 95 l 2
 185 87 184 78 184 69 c 0
 184 42 209 29 257 29 c 0
 261 29 263 27 263 23 c 0
 263 3 257 -6 247 -6 c 1
 248 -6 235 -5 207 -3 c 0
 179 -1 150 0 122 0 c 0
 99 0 71 -1 37 -4 c 0
 13 -6 -1 -6 -5 -6 c 0
 -10 -6 -13 -3 -13 3 c 0
 -13 15 -10 22 -4 26 c 0
 -1 28 7 29 21 29 c 0
 48 29 69 40 84 60 c 0
 94 74 103 95 111 127 c 2
 235 610 l 2
 239 627 242 640 242 649 c 0
 242 668 233 680 216 684 c 0
 212 685 197 685 169 685 c 0
 158 685 151 687 151 692 c 0
 151 703 155 713 161 719 c 0
 166 724 203 728 270 732 c 0
 325 735 366 737 392 737 c 0
 453 737 505 724 549 700 c 0
 604 670 632 629 632 573 c 0
 632 520 607 474 557 435 c 0
 513 400 464 379 408 371 c 1
 408 370 408 369 409 368 c 0
 436 349 457 321 472 286 c 2
 547 108 l 2
 559 80 573 61 589 49 c 0
 597 43 612 38 632 33 c 0
 647 30 646 29 661 26 c 0
 662 25 663 24 663 22 c 0
533 561 m 0
 533 604 516 638 483 662 c 0
 454 683 417 694 372 694 c 0
 352 694 339 685 334 665 c 2
 265 396 l 1
 274 396 l 2
 447 396 533 451 533 561 c 0
EndSplineSet
Substitution2: "Single Substitution lookup 113 subtable" R_short
Substitution2: "c2scCapitalstoSmallCapitalslookup21 subtable" R_SC
Substitution2: "swshSwashinLatinlookup18 subtable" R_swash
Substitution2: "supsSuperscriptlookup16 subtable" R_SUP
Substitution2: "subsSubscriptlookup15 subtable" R_sub
Substitution2: "Single Substitution lookup 57 subtable" R_short
Substitution2: "'c2sc' Capitals to Small Capitals lookup 21 subtable" R_SC
Substitution2: "'swsh' Swash in Latin lookup 18 subtable" R_swash
Substitution2: "'sups' Superscript lookup 16 subtable" R_SUP
Substitution2: "'subs' Subscript lookup 15 subtable" R_sub
EndChar

StartChar: S
Encoding: 83 83 54
Width: 481
VWidth: 1099
GlyphClass: 2
Flags: W
HStem: -15 43<114.459 287.015> 693 43<273.288 408.62>
VStem: 33 60<40.5 120.38> 127 91<487.869 625.759> 352 92<95.3909 226.317> 439 59<573.17 680.5>
LayerCount: 2
Fore
SplineSet
498 674 m 0xf4
 498 670 496 653 489 623 c 0
 482 593 477 576 476 573 c 0
 473 567 468 564 459 564 c 0
 444 564 436 567 436 573 c 0
 436 577 436 582 437 589 c 0
 438 596 439 601 439 605 c 0xf4
 439 631 430 653 412 669 c 0
 394 685 372 693 346 693 c 0
 309 693 278 681 254 656 c 0
 230 631 218 599 218 562 c 0
 218 522 238 480 277 435 c 1
 313 397 349 359 385 321 c 1
 424 276 444 234 444 194 c 0
 444 186 443 179 443 170 c 0
 440 113 415 68 367 33 c 0
 323 1 273 -15 214 -15 c 0
 142 -15 85 -1 42 28 c 0
 36 32 33 38 33 43 c 0
 33 46 38 65 48 98 c 0
 58 131 64 150 66 154 c 0
 69 160 75 162 84 162 c 0
 99 162 106 160 106 156 c 0
 106 152 104 144 100 130 c 0
 96 116 93 105 93 97 c 0
 93 51 128 28 197 28 c 0
 239 28 274 38 303 59 c 0
 336 82 352 114 352 154 c 0xf8
 352 187 338 221 310 258 c 0
 296 276 270 305 232 342 c 0
 194 379 166 414 149 447 c 0
 134 477 127 504 127 529 c 0
 127 589 147 639 187 678 c 0
 227 717 276 736 337 736 c 0
 364 736 395 730 429 718 c 0
 476 702 498 687 498 674 c 0xf4
EndSplineSet
Substitution2: "Single Substitution lookup 105 subtable" S_swash1
Substitution2: "Single Substitution lookup 103 subtable" S_swash
Substitution2: "c2scCapitalstoSmallCapitalslookup21 subtable" S_SC
Substitution2: "supsSuperscriptlookup16 subtable" S_SUP
Substitution2: "subsSubscriptlookup15 subtable" S_sub
Substitution2: "Single Substitution lookup 56 subtable" S_swash1
Substitution2: "Single Substitution lookup 55 subtable" S_swash
Substitution2: "'c2sc' Capitals to Small Capitals lookup 21 subtable" S_SC
Substitution2: "'sups' Superscript lookup 16 subtable" S_SUP
Substitution2: "'subs' Subscript lookup 15 subtable" S_sub
EndChar

StartChar: T
Encoding: 84 84 55
Width: 636
VWidth: 1099
GlyphClass: 2
Flags: W
HStem: -6 34<144.994 230.757 368.427 424.018> 680 41<191.826 402.994 498.286 683.757>
VStem: 108 36<580.059 626.993>
LayerCount: 2
Fore
SplineSet
764 755 m 1
 764 755 761 746 755 727 c 0
 749 708 743 690 739 672 c 1
 736 653 733 635 730 617 c 0
 725 592 716 580 702 580 c 0
 688 580 681 582 681 587 c 0
 681 593 682 601 685 612 c 0
 688 623 689 632 689 638 c 0
 689 666 671 680 636 680 c 2
 534 680 l 2
 516 680 504 677 498 671 c 0
 493 666 488 655 484 638 c 2
 348 104 l 2
 344 90 342 79 342 71 c 0
 342 51 351 39 368 33 c 0
 377 30 393 29 418 29 c 0
 422 29 425 27 425 23 c 0
 425 3 419 -6 409 -6 c 0
 406 -6 393 -6 368 -4 c 0
 333 -1 305 0 282 0 c 0
 259 0 230 -1 194 -4 c 0
 168 -6 154 -6 151 -6 c 0
 146 -6 144 -4 144 0 c 0
 144 15 148 25 158 28 c 0
 161 29 172 30 191 30 c 0
 226 31 248 53 259 95 c 2
 400 638 l 2
 403 648 403 655 403 661 c 0
 403 674 395 680 377 680 c 2
 237 680 l 2
 203 680 180 666 166 637 c 0
 158 619 151 601 144 583 c 1
 141 581 136 580 129 580 c 0
 115 580 108 583 108 588 c 0
 108 591 112 604 119 627 c 0
 128 655 133 669 133 671 c 0
 136 689 141 716 150 752 c 0
 152 759 159 763 170 763 c 0
 172 763 173 763 177 763 c 0
 180 763 182 763 183 763 c 0
 187 763 190 758 190 748 c 0
 191 730 208 721 242 721 c 2
 667 721 l 2
 697 721 715 728 720 742 c 0
 725 756 733 763 743 763 c 0
 757 763 764 760 764 755 c 1
EndSplineSet
Substitution2: "Single Substitution lookup 101 subtable" T_swash
Substitution2: "c2scCapitalstoSmallCapitalslookup21 subtable" T_SC
Substitution2: "swshSwashinLatinlookup18 subtable" T_swash1
Substitution2: "supsSuperscriptlookup16 subtable" T_SUP
Substitution2: "subsSubscriptlookup15 subtable" T_sub
Substitution2: "Single Substitution lookup 54 subtable" T_swash
Substitution2: "'c2sc' Capitals to Small Capitals lookup 21 subtable" T_SC
Substitution2: "'swsh' Swash in Latin lookup 18 subtable" T_swash1
Substitution2: "'sups' Superscript lookup 16 subtable" T_SUP
Substitution2: "'subs' Subscript lookup 15 subtable" T_sub
EndChar

StartChar: U
Encoding: 85 85 56
Width: 791
VWidth: 1099
GlyphClass: 2
Flags: W
HStem: -15 44<281.187 500.672> 692 36<145.851 205.572 353.472 422.901 642.975 719.916 806.239 858.902>
VStem: 124 85<94.6259 294.844>
LayerCount: 2
Fore
SplineSet
864 721 m 256
 864 717 862 711 859 701 c 0
 857 695 849 691 838 691 c 0
 822 690 811 689 806 687 c 0
 794 682 785 671 781 653 c 2
 694 290 l 2
 666 172 629 92 584 49 c 0
 539 6 468 -15 371 -15 c 0
 206 -15 124 46 124 167 c 0
 124 196 127 227 136 260 c 2
 229 617 l 2
 232 630 234 641 234 650 c 0
 234 670 225 683 206 689 c 0
 197 692 180 692 153 692 c 0
 148 692 145 695 145 699 c 0
 145 718 151 728 162 728 c 0
 165 728 177 727 200 725 c 0
 233 722 263 721 289 721 c 0
 317 721 347 722 381 725 c 0
 405 727 419 728 421 728 c 0
 426 728 428 726 428 722 c 0
 428 718 426 711 423 701 c 0
 421 695 412 692 397 691 c 0
 377 690 363 686 353 681 c 0
 335 671 323 653 316 627 c 2
 222 262 l 2
 214 230 209 202 209 177 c 0
 209 79 271 29 395 29 c 0
 471 29 529 54 570 103 c 0
 601 141 626 201 646 284 c 2
 729 626 l 2
 731 634 732 641 732 648 c 0
 732 677 704 692 649 692 c 0
 644 692 642 693 642 697 c 0
 642 717 647 727 658 727 c 0
 660 727 671 727 688 725 c 0
 712 722 735 721 756 721 c 0
 767 721 784 722 807 724 c 0
 830 726 848 727 859 727 c 0
 862 727 864 725 864 721 c 256
EndSplineSet
Substitution2: "Single Substitution lookup 105 subtable" U_swash
Substitution2: "Single Substitution lookup 103 subtable" U_swash1
Substitution2: "loclLocalizedFormsinLatinlookup31 subtable" V
Substitution2: "c2scCapitalstoSmallCapitalslookup21 subtable" U_SC
Substitution2: "supsSuperscriptlookup16 subtable" U_SUP
Substitution2: "subsSubscriptlookup15 subtable" U_sub
Substitution2: "Single Substitution lookup 56 subtable" U_swash
Substitution2: "Single Substitution lookup 55 subtable" U_swash1
Substitution2: "'locl' Localized Forms in Latin lookup 31 subtable" V
Substitution2: "'c2sc' Capitals to Small Capitals lookup 21 subtable" U_SC
Substitution2: "'sups' Superscript lookup 16 subtable" U_SUP
Substitution2: "'subs' Subscript lookup 15 subtable" U_sub
EndChar

StartChar: V
Encoding: 86 86 57
Width: 752
VWidth: 1099
GlyphClass: 2
Flags: W
HStem: -16 21G<270 277.5> 692 36<135.866 185.023 298.625 380.179 637.635 717.151 825.43 893>
LayerCount: 2
Fore
SplineSet
900 722 m 0
 900 718 898 710 895 701 c 0
 893 695 887 692 877 692 c 0
 844 692 810 671 777 627 c 2
 290 -10 l 2
 287 -14 282 -16 273 -16 c 0
 267 -16 263 -11 262 -1 c 2
 207 613 l 2
 205 639 199 658 189 670 c 0
 183 678 172 684 156 689 c 0
 142 693 135 696 135 699 c 0
 135 718 141 728 152 728 c 0
 154 728 165 727 186 725 c 0
 215 722 241 721 262 721 c 0
 282 721 307 722 337 725 c 0
 359 727 371 728 374 728 c 0
 379 728 381 726 381 722 c 0
 381 709 379 699 373 694 c 1
 358 692 342 691 327 689 c 0
 302 685 289 669 289 644 c 0
 289 641 289 635 290 627 c 2
 335 124 l 1
 704 607 l 2
 718 625 725 641 725 655 c 0
 725 680 698 692 646 692 c 0
 640 692 637 695 637 701 c 0
 637 719 643 728 655 728 c 0
 658 728 670 727 693 725 c 0
 725 722 751 721 772 721 c 0
 799 721 826 723 854 725 c 0
 882 727 894 728 893 728 c 1
 898 728 900 726 900 722 c 0
EndSplineSet
Substitution2: "Single Substitution lookup 105 subtable" V_swash1
Substitution2: "Single Substitution lookup 103 subtable" V_swash
Substitution2: "c2scCapitalstoSmallCapitalslookup21 subtable" V_SC
Substitution2: "supsSuperscriptlookup16 subtable" V_SUP
Substitution2: "subsSubscriptlookup15 subtable" V_sub
Substitution2: "Single Substitution lookup 56 subtable" V_swash1
Substitution2: "Single Substitution lookup 55 subtable" V_swash
Substitution2: "'c2sc' Capitals to Small Capitals lookup 21 subtable" V_SC
Substitution2: "'sups' Superscript lookup 16 subtable" V_SUP
Substitution2: "'subs' Subscript lookup 15 subtable" V_sub
EndChar

StartChar: W
Encoding: 87 87 58
Width: 1003
VWidth: 1099
GlyphClass: 2
Flags: W
HStem: -16 21G<272.5 280.5 551.5 559.5> 692 36<129.976 169.453 282.609 327.987 394.738 447.715 561.563 601.951 672.002 719.642 803.798 858.904 927.751 984.44 1082.21 1141.49>
LayerCount: 2
Fore
SplineSet
1144 722 m 0
 1144 719 1142 711 1139 701 c 0
 1137 695 1133 692 1128 692 c 0
 1099 691 1069 670 1037 627 c 2
 573 -9 l 2
 570 -14 564 -16 555 -16 c 0
 548 -16 544 -5 541 17 c 2
 509 284 l 1
 294 -10 l 2
 291 -14 285 -16 276 -16 c 0
 269 -16 265 -10 264 1 c 2
 189 613 l 2
 186 640 180 660 171 672 c 0
 166 680 157 686 145 690 c 0
 135 694 129 696 129 698 c 0
 129 718 135 728 146 728 c 0
 155 728 169 727 188 725 c 0
 207 723 221 722 230 722 c 0
 247 722 267 723 292 726 c 0
 307 728 316 729 318 729 c 0
 324 729 328 723 328 711 c 0
 328 701 326 695 322 694 c 0
 308 691 295 688 282 685 c 1
 270 680 264 668 264 647 c 0
 264 640 264 634 265 628 c 2
 327 115 l 1
 500 351 l 1
 466 629 l 2
 463 652 457 668 448 677 c 0
 442 683 431 687 415 690 c 0
 401 693 394 695 394 699 c 0
 394 718 399 728 410 728 c 0
 420 728 434 727 454 725 c 0
 474 723 488 722 498 722 c 0
 524 722 556 724 591 729 c 1
 597 727 601 725 602 721 c 0
 602 716 603 711 603 706 c 0
 602 702 600 699 598 696 c 1
 585 693 573 689 561 686 c 1
 550 681 544 671 544 654 c 0
 544 645 545 639 545 636 c 2
 568 444 l 1
 706 633 l 2
 716 647 721 659 721 668 c 0
 721 684 706 692 676 692 c 0
 673 692 671 694 671 698 c 0
 671 718 677 728 690 728 c 0
 699 728 712 727 730 725 c 0
 748 723 762 721 771 721 c 0
 789 721 809 722 831 725 c 0
 847 727 855 728 856 728 c 0
 861 728 864 726 864 722 c 0
 864 719 862 712 859 701 c 0
 857 695 852 692 845 692 c 0
 820 692 792 671 760 627 c 2
 576 376 l 1
 608 118 l 1
 965 607 l 2
 980 628 988 646 988 661 c 0
 988 682 970 692 933 692 c 0
 929 692 927 695 927 700 c 0
 927 719 933 728 946 728 c 0
 956 728 972 727 993 725 c 0
 1014 723 1029 721 1039 721 c 0
 1050 721 1066 723 1088 725 c 0
 1110 727 1126 728 1137 728 c 0
 1142 728 1144 726 1144 722 c 0
EndSplineSet
Substitution2: "c2scCapitalstoSmallCapitalslookup21 subtable" W_SC
Substitution2: "swshSwashinLatinlookup18 subtable" W_swash
Substitution2: "supsSuperscriptlookup16 subtable" W_SUP
Substitution2: "subsSubscriptlookup15 subtable" W_sub
Substitution2: "'c2sc' Capitals to Small Capitals lookup 21 subtable" W_SC
Substitution2: "'swsh' Swash in Latin lookup 18 subtable" W_swash
Substitution2: "'sups' Superscript lookup 16 subtable" W_SUP
Substitution2: "'subs' Subscript lookup 15 subtable" W_sub
EndChar

StartChar: X
Encoding: 88 88 59
Width: 733
VWidth: 1099
GlyphClass: 2
Flags: W
HStem: -6 35<-6.34246 54.875 156.254 233.367 408.793 486.101 599.377 675.282> 692 36<152 216.578 326.759 400.768 545.635 622.041 725.186 795.904>
LayerCount: 2
Fore
SplineSet
801 722 m 256
 801 718 799 711 796 701 c 0
 794 695 789 692 782 692 c 0
 746 691 708 670 668 627 c 2
 441 387 l 1
 567 92 l 2
 585 50 612 29 647 29 c 0
 650 29 650 29 655 29 c 0
 659 29 661 30 662 30 c 0
 671 30 676 27 676 22 c 0
 676 3 671 -6 661 -6 c 0
 658 -6 644 -6 621 -4 c 0
 588 -1 561 0 540 0 c 0
 518 0 490 -1 456 -4 c 0
 432 -6 419 -6 416 -6 c 0
 411 -6 408 -3 408 3 c 0
 408 14 411 21 417 26 c 1
 430 28 443 30 457 31 c 0
 479 34 490 44 490 61 c 0
 490 69 487 81 481 95 c 2
 382 325 l 1
 182 114 l 2
 162 93 151 75 151 61 c 0
 151 40 176 29 224 29 c 0
 230 29 234 26 234 20 c 0
 234 2 228 -6 216 -6 c 0
 214 -6 203 -6 182 -4 c 0
 153 -1 128 0 108 0 c 0
 89 0 65 -1 35 -4 c 0
 14 -6 2 -6 -1 -6 c 0
 -6 -6 -8 -4 -8 0 c 0
 -8 4 -7 11 -4 20 c 0
 -2 26 2 29 10 29 c 0
 36 29 70 51 111 95 c 2
 366 364 l 1
 259 613 l 2
 247 641 234 660 221 671 c 0
 205 685 183 692 156 692 c 0
 142 692 136 694 136 699 c 0
 136 718 141 728 152 728 c 1
 150 728 163 727 190 725 c 0
 217 723 244 721 271 721 c 0
 292 721 320 722 354 725 c 0
 378 727 392 728 395 728 c 0
 400 728 402 726 402 722 c 0
 402 710 399 700 393 694 c 0
 392 693 380 692 360 691 c 0
 337 691 325 683 325 668 c 0
 325 662 327 652 332 640 c 2
 424 425 l 1
 597 607 l 2
 617 628 627 647 627 661 c 0
 627 682 602 692 554 692 c 0
 548 692 545 695 545 701 c 0
 545 719 551 728 563 728 c 0
 565 728 577 727 599 725 c 0
 629 722 655 721 676 721 c 0
 696 721 723 722 755 725 c 0
 778 727 790 728 793 728 c 0
 798 728 801 726 801 722 c 256
EndSplineSet
Substitution2: "c2scCapitalstoSmallCapitalslookup21 subtable" X_SC
Substitution2: "swshSwashinLatinlookup18 subtable" X_swash
Substitution2: "supsSuperscriptlookup16 subtable" X_SUP
Substitution2: "subsSubscriptlookup15 subtable" X_sub
Substitution2: "'c2sc' Capitals to Small Capitals lookup 21 subtable" X_SC
Substitution2: "'swsh' Swash in Latin lookup 18 subtable" X_swash
Substitution2: "'sups' Superscript lookup 16 subtable" X_SUP
Substitution2: "'subs' Subscript lookup 15 subtable" X_sub
EndChar

StartChar: Y
Encoding: 89 89 60
Width: 709
VWidth: 1099
GlyphClass: 2
Flags: W
HStem: -6 35<145.023 232.938 370.38 423.259> 692 36<96.8509 166.991 297.899 374.179 565.635 640.926 759.426 837>
LayerCount: 2
Fore
SplineSet
844 722 m 0
 844 717 843 710 840 701 c 0
 838 695 830 693 817 693 c 0
 783 693 745 671 703 627 c 2
 406 317 l 1
 351 104 l 2
 347 89 345 78 345 70 c 0
 345 51 354 39 370 33 c 0
 378 30 393 29 417 29 c 0
 421 29 424 27 424 23 c 0
 424 3 419 -6 408 -6 c 0
 405 -6 391 -6 367 -4 c 0
 333 -1 304 0 281 0 c 0
 258 0 230 -1 194 -4 c 0
 169 -6 155 -6 152 -6 c 0
 147 -6 144 -3 144 3 c 0
 144 14 148 21 154 26 c 0
 155 26 166 28 187 31 c 0
 208 34 225 39 238 50 c 0
 251 61 260 80 267 107 c 2
 327 341 l 1
 212 613 l 2
 190 666 156 692 112 692 c 0
 101 692 96 694 96 699 c 0
 96 718 102 728 113 728 c 0
 115 728 129 727 153 725 c 0
 187 722 215 721 238 721 c 256
 261 721 290 722 326 725 c 0
 352 727 366 728 368 728 c 0
 373 728 375 726 375 722 c 0
 375 709 373 699 367 694 c 1
 354 693 340 692 327 690 c 0
 305 687 294 676 294 658 c 0
 294 650 297 641 302 627 c 2
 402 377 l 1
 618 607 l 2
 638 628 647 646 647 660 c 0
 647 681 623 692 574 692 c 0
 568 692 565 695 565 701 c 0
 565 719 571 728 583 728 c 0
 586 728 600 727 624 725 c 0
 658 722 685 721 708 721 c 0
 736 721 765 723 795 725 c 0
 825 727 839 728 837 728 c 1
 842 728 844 726 844 722 c 0
EndSplineSet
Substitution2: "c2scCapitalstoSmallCapitalslookup21 subtable" Y_SC
Substitution2: "swshSwashinLatinlookup18 subtable" Y_swash
Substitution2: "supsSuperscriptlookup16 subtable" Y_SUP
Substitution2: "subsSubscriptlookup15 subtable" Y_sub
Substitution2: "'c2sc' Capitals to Small Capitals lookup 21 subtable" Y_SC
Substitution2: "'swsh' Swash in Latin lookup 18 subtable" Y_swash
Substitution2: "'sups' Superscript lookup 16 subtable" Y_SUP
Substitution2: "'subs' Subscript lookup 15 subtable" Y_sub
EndChar

StartChar: Z
Encoding: 90 90 61
Width: 656
VWidth: 1099
GlyphClass: 2
Flags: W
HStem: 0 41<180 478.994> 680 41<206.089 516>
VStem: 126 39<609.035 654.161> 164 37<758.512 778.979>
LayerCount: 2
Fore
SplineSet
630 708 m 0xd0
 630 701 626 692 619 682 c 2
 180 41 l 1
 283 41 l 2
 378 41 442 47 476 60 c 0
 508 71 538 101 565 150 c 0
 570 159 574 163 580 163 c 0
 599 163 609 160 609 154 c 1
 609 156 600 133 584 86 c 0
 579 73 573 53 565 24 c 0
 562 15 558 8 554 5 c 0
 550 2 544 0 535 0 c 2
 83 0 l 2
 69 0 62 4 63 12 c 2
 63 13 l 1
 65 20 69 29 76 39 c 2
 516 680 l 1
 247 680 l 2
 222 680 204 675 193 665 c 0
 185 658 175 642 165 617 c 0
 163 612 158 609 148 609 c 0
 133 609 126 612 126 618 c 0
 126 618 126 619 126 620 c 0xe0
 131 636 138 661 148 694 c 1
 151 711 156 736 164 769 c 0
 167 776 173 779 184 779 c 0
 194 779 200 779 201 777 c 0
 202 775 202 769 202 758 c 0
 202 733 220 721 256 721 c 2
 613 721 l 2
 624 721 630 717 630 708 c 0xd0
EndSplineSet
Substitution2: "Single Substitution lookup 113 subtable" Z_short
Substitution2: "c2scCapitalstoSmallCapitalslookup21 subtable" Z_SC
Substitution2: "swshSwashinLatinlookup18 subtable" Z_swash
Substitution2: "supsSuperscriptlookup16 subtable" Z_SUP
Substitution2: "subsSubscriptlookup15 subtable" Z_sub
Substitution2: "Single Substitution lookup 57 subtable" Z_short
Substitution2: "'c2sc' Capitals to Small Capitals lookup 21 subtable" Z_SC
Substitution2: "'swsh' Swash in Latin lookup 18 subtable" Z_swash
Substitution2: "'sups' Superscript lookup 16 subtable" Z_SUP
Substitution2: "'subs' Subscript lookup 15 subtable" Z_sub
EndChar

StartChar: bracketleft
Encoding: 91 91 62
Width: 263
VWidth: 1099
GlyphClass: 2
Flags: W
HStem: -171 43<24.1052 160.884> 753 44<239.219 397.764>
VStem: -66 90<-164.5 -93.1328>
LayerCount: 2
Fore
SplineSet
401 792 m 0
 401 786 399 778 396 769 c 0
 392 758 388 753 383 753 c 2
 277 753 l 2
 255 753 241 742 235 720 c 2
 25 -95 l 2
 24 -98 24 -101 24 -104 c 0
 24 -120 33 -128 50 -128 c 2
 156 -128 l 2
 161 -128 164 -129 164 -133 c 0
 164 -139 162 -147 159 -156 c 0
 155 -166 151 -171 146 -171 c 2
 -54 -171 l 2
 -62 -171 -66 -168 -66 -161 c 0
 -66 -157 -64 -147 -60 -132 c 2
 169 757 l 2
 176 783 184 797 194 797 c 2
 395 797 l 2
 399 797 401 795 401 792 c 0
EndSplineSet
Substitution2: "smcpLowercasetoSmallCapitalslookup20 subtable" bracketleft_SC
Substitution2: "caseCaseSensitiveFormslookup17 subtable" bracketleft_CAS
Substitution2: "supsSuperscriptlookup16 subtable" bracketleft_SUP
Substitution2: "subsSubscriptlookup15 subtable" bracketleft_sub
Substitution2: "'smcp' Lowercase to Small Capitals lookup 20 subtable" bracketleft_SC
Substitution2: "'case' Case-Sensitive Forms lookup 17 subtable" bracketleft_CAS
Substitution2: "'sups' Superscript lookup 16 subtable" bracketleft_SUP
Substitution2: "'subs' Subscript lookup 15 subtable" bracketleft_sub
EndChar

StartChar: backslash
Encoding: 92 92 63
Width: 549
VWidth: 1099
GlyphClass: 2
Flags: W
LayerCount: 2
Fore
SplineSet
490 -171 m 1
 434 -171 l 1
 157 797 l 1
 213 797 l 1
 490 -171 l 1
EndSplineSet
Substitution2: "smcpLowercasetoSmallCapitalslookup20 subtable" backslash_SC
Substitution2: "caseCaseSensitiveFormslookup17 subtable" backslash_CAS
Substitution2: "supsSuperscriptlookup16 subtable" backslash_SUP
Substitution2: "subsSubscriptlookup15 subtable" backslash_sub
Substitution2: "'smcp' Lowercase to Small Capitals lookup 20 subtable" backslash_SC
Substitution2: "'case' Case-Sensitive Forms lookup 17 subtable" backslash_CAS
Substitution2: "'sups' Superscript lookup 16 subtable" backslash_SUP
Substitution2: "'subs' Subscript lookup 15 subtable" backslash_sub
EndChar

StartChar: bracketright
Encoding: 93 93 64
Width: 263
VWidth: 1099
GlyphClass: 2
Flags: W
HStem: -171 43<-119.538 39.3535> 753 44<118.185 254.941>
VStem: 255 89<718.133 789.5>
LayerCount: 2
Fore
SplineSet
344 786 m 0
 344 782 342 772 338 757 c 2
 110 -132 l 2
 103 -158 95 -171 85 -171 c 2
 -116 -171 l 2
 -120 -171 -122 -170 -122 -167 c 0
 -122 -161 -121 -153 -118 -144 c 0
 -114 -133 -109 -128 -104 -128 c 2
 2 -128 l 2
 24 -128 38 -117 44 -95 c 2
 254 720 l 2
 255 723 255 726 255 729 c 0
 255 745 246 753 229 753 c 2
 122 753 l 2
 117 753 115 754 115 758 c 0
 115 764 117 772 120 781 c 0
 124 791 128 797 133 797 c 2
 333 797 l 2
 341 797 344 793 344 786 c 0
EndSplineSet
Substitution2: "smcpLowercasetoSmallCapitalslookup20 subtable" bracketright_SC
Substitution2: "caseCaseSensitiveFormslookup17 subtable" bracketright_CAS
Substitution2: "supsSuperscriptlookup16 subtable" bracketright_SUP
Substitution2: "subsSubscriptlookup15 subtable" bracketright_sub
Substitution2: "'smcp' Lowercase to Small Capitals lookup 20 subtable" bracketright_SC
Substitution2: "'case' Case-Sensitive Forms lookup 17 subtable" bracketright_CAS
Substitution2: "'sups' Superscript lookup 16 subtable" bracketright_SUP
Substitution2: "'subs' Subscript lookup 15 subtable" bracketright_sub
EndChar

StartChar: asciicircum
Encoding: 94 94 65
Width: 547
VWidth: 1099
GlyphClass: 2
Flags: W
HStem: 533 292
LayerCount: 2
Fore
SplineSet
496 533 m 1
 406 573 333 620 274 673 c 1
 218 622 144 575 53 533 c 1
 53 584 l 1
 102 620 140 656 168 690 c 0
 196 724 222 769 246 825 c 1
 303 825 l 1
 328 769 354 723 381 689 c 0
 408 655 447 620 496 584 c 1
 496 533 l 1
EndSplineSet
EndChar

StartChar: underscore
Encoding: 95 95 66
Width: 545
VWidth: 1099
GlyphClass: 2
Flags: W
HStem: -237 67<-88 458>
LayerCount: 2
Fore
SplineSet
458 -237 m 1
 -88 -237 l 1
 -88 -170 l 1
 458 -170 l 1
 458 -237 l 1
EndSplineSet
EndChar

StartChar: grave
Encoding: 96 96 67
Width: 196
VWidth: 1099
GlyphClass: 2
Flags: W
HStem: 496 282
VStem: 70 110<688.812 755.678> 191 38<496 506>
LayerCount: 2
Fore
SplineSet
229 506 m 2
 231 499 228 496 221 496 c 2
 206 496 l 2
 199 496 195 499 191 506 c 2
 84 701 l 2
 75 718 70 732 70 744 c 0
 70 767 83 778 110 778 c 0
 145 778 169 755 180 708 c 2
 229 506 l 2
EndSplineSet
EndChar

StartChar: a
Encoding: 97 97 68
Width: 453
VWidth: 1099
GlyphClass: 2
Flags: W
HStem: 1 69<52.7282 124.722 285.001 331.086> 354 56<236.894 337>
VStem: 0 68<48.5 160.852> 242 73<27.5859 170.988>
LayerCount: 2
Fore
SplineSet
433 139 m 0
 433 137 432 135 429 131 c 0
 410 103 389 77 364 52 c 0
 330 18 302 1 281 1 c 0
 255 1 242 18 242 51 c 0
 242 78 250 116 266 164 c 1
 188 55 116 0 51 0 c 0
 36 0 23 6 14 17 c 0
 5 28 0 41 0 56 c 0
 0 137 38 216 112 294 c 0
 186 372 260 410 333 410 c 0
 341 410 349 410 357 409 c 1
 361 419 363 428 367 437 c 0
 373 449 380 455 388 455 c 0
 414 455 428 450 428 440 c 0
 428 438 427 437 426 435 c 0
 404 377 383 317 361 259 c 0
 331 174 315 118 315 90 c 0
 315 78 319 73 326 73 c 0
 339 73 356 87 379 116 c 0
 402 145 414 160 416 160 c 0
 419 160 422 157 426 151 c 0
 430 145 433 142 433 139 c 0
320 333 m 0
 320 347 308 354 285 354 c 0
 242 354 195 325 144 267 c 0
 93 209 68 155 68 105 c 0
 68 82 78 70 100 70 c 0
 128 70 172 107 232 180 c 0
 291 252 320 304 320 333 c 0
EndSplineSet
Substitution2: "smcpLowercasetoSmallCapitalslookup20 subtable" A_SC
Substitution2: "supsSuperscriptlookup16 subtable" a_SUP
Substitution2: "subsSubscriptlookup15 subtable" a_sub
Substitution2: "'ornm' Ornaments lookup 44 subtable" Archytas
Substitution2: "'smcp' Lowercase to Small Capitals lookup 20 subtable" A_SC
Substitution2: "'sups' Superscript lookup 16 subtable" a_SUP
Substitution2: "'subs' Subscript lookup 15 subtable" a_sub
EndChar

StartChar: b
Encoding: 98 98 69
Width: 471
VWidth: 1099
GlyphClass: 2
Flags: W
HStem: 0 40<128.032 222.966> 392 59<336.443 429> 698 42<154.593 211.757> 745 20G<299.5 304>
VStem: 48 74<42.9582 158.031> 416 79<260.241 388.744>
LayerCount: 2
Fore
SplineSet
495 350 m 0
 495 267 444 182 342 96 c 0
 266 32 196 0 134 0 c 0
 109 0 89 6 74 18 c 0
 57 31 48 49 48 73 c 0
 48 83 50 94 54 106 c 2
 211 647 l 2
 213 655 214 661 214 667 c 0
 214 683 204 693 184 698 c 0
 164 703 154 708 154 712 c 0
 154 726 159 735 170 740 c 1
 175 740 182 740 191 741 c 0
 201 742 221 747 252 754 c 0
 283 761 299 765 300 765 c 0
 308 765 312 762 312 755 c 0
 312 752 300 713 279 639 c 2
 175 281 l 1
 265 395 345 451 417 451 c 0
 441 451 460 440 475 417 c 0
 488 397 495 375 495 350 c 0
416 344 m 0
 416 376 403 392 377 392 c 0
 332 392 277 353 214 276 c 0
 153 201 122 139 122 92 c 0
 122 57 135 40 159 40 c 0
 209 40 265 78 327 155 c 0
 387 229 416 292 416 344 c 0
EndSplineSet
Substitution2: "smcpLowercasetoSmallCapitalslookup20 subtable" B_SC
Substitution2: "supsSuperscriptlookup16 subtable" b_SUP
Substitution2: "subsSubscriptlookup15 subtable" b_sub
Substitution2: "'ornm' Ornaments lookup 44 subtable" archytas
Substitution2: "'smcp' Lowercase to Small Capitals lookup 20 subtable" B_SC
Substitution2: "'sups' Superscript lookup 16 subtable" b_SUP
Substitution2: "'subs' Subscript lookup 15 subtable" b_sub
EndChar

StartChar: c
Encoding: 99 99 70
Width: 363
VWidth: 1099
GlyphClass: 2
Flags: W
HStem: 0 70<141.744 247.215> 411 40<213.419 301.506>
VStem: 30 81<101.328 269.223> 301 80<357.376 410.266>
LayerCount: 2
Fore
SplineSet
381 386 m 0
 381 375 377 365 369 357 c 0
 361 349 350 345 339 345 c 0
 314 345 301 359 301 387 c 0
 301 388 302 390 302 393 c 0
 302 397 302 397 302 399 c 0
 302 408 292 411 274 411 c 0
 232 411 195 387 161 338 c 0
 127 289 111 234 111 173 c 0
 111 143 118 120 133 101 c 0
 149 80 171 70 200 70 c 0
 219 70 237 76 253 88 c 0
 272 102 283 109 287 110 c 1
 300 104 307 97 307 91 c 0
 307 88 306 87 305 84 c 0
 272 28 227 0 172 0 c 0
 128 0 93 16 67 49 c 0
 42 79 30 117 30 162 c 0
 30 234 56 299 108 360 c 0
 160 421 217 451 279 451 c 0
 304 451 326 447 345 438 c 0
 369 426 381 409 381 386 c 0
EndSplineSet
Substitution2: "smcpLowercasetoSmallCapitalslookup20 subtable" C_SC
Substitution2: "supsSuperscriptlookup16 subtable" c_SUP
Substitution2: "subsSubscriptlookup15 subtable" c_sub
Substitution2: "'smcp' Lowercase to Small Capitals lookup 20 subtable" C_SC
Substitution2: "'sups' Superscript lookup 16 subtable" c_SUP
Substitution2: "'subs' Subscript lookup 15 subtable" c_sub
EndChar

StartChar: d
Encoding: 100 100 71
Width: 489
VWidth: 1099
GlyphClass: 2
Flags: W
HStem: 1 56<87.0045 169.12> 412 39<234.244 324.669> 705 39<384.989 425.709> 745 20G<486 507.5>
VStem: 15 79<63.3976 223.386> 283 66<30.8927 174.344>
LayerCount: 2
Fore
SplineSet
517 755 m 0
 517 753 517 751 516 748 c 2
 351 109 l 2
 350 103 349 97 349 90 c 0
 349 78 354 73 363 73 c 0
 376 73 393 87 416 118 c 0
 439 149 452 164 453 164 c 0
 456 164 459 162 464 157 c 0
 469 152 471 150 471 147 c 0
 471 145 470 142 469 140 c 0
 456 114 435 85 408 55 c 0
 375 19 347 1 326 1 c 0
 297 1 283 19 283 56 c 0
 283 69 290 109 306 176 c 1
 232 59 163 0 98 0 c 0
 72 0 51 13 35 41 c 0
 22 64 15 90 15 118 c 0
 15 190 43 262 99 335 c 0
 158 412 223 451 292 451 c 0
 322 451 347 442 366 424 c 1
 425 670 l 2
 426 673 426 677 426 682 c 0
 426 693 418 701 404 705 c 0
 390 709 383 712 383 715 c 0
 383 732 397 741 423 744 c 0
 429 744 438 746 450 748 c 0
 460 750 472 753 486 758 c 2
 503 765 l 1
 512 765 517 761 517 755 c 0
338 351 m 0
 338 367 333 382 325 393 c 0
 315 406 303 412 288 412 c 0
 255 412 220 389 183 343 c 0
 159 313 138 277 121 238 c 0
 103 195 94 156 94 121 c 0
 94 79 109 57 139 57 c 0
 174 57 217 97 267 178 c 0
 314 254 338 312 338 351 c 0
EndSplineSet
Substitution2: "smcpLowercasetoSmallCapitalslookup20 subtable" D_SC
Substitution2: "supsSuperscriptlookup16 subtable" d_SUP
Substitution2: "subsSubscriptlookup15 subtable" d_sub
Substitution2: "'smcp' Lowercase to Small Capitals lookup 20 subtable" D_SC
Substitution2: "'sups' Superscript lookup 16 subtable" d_SUP
Substitution2: "'subs' Subscript lookup 15 subtable" d_sub
EndChar

StartChar: e
Encoding: 101 101 72
Width: 363
VWidth: 1099
GlyphClass: 2
Flags: W
HStem: 0 57<127.561 234.392> 411 40<209.352 299.998>
VStem: 23 79<82.4566 235.217> 305 68<310.529 407.612>
LayerCount: 2
Fore
SplineSet
373 370 m 0
 373 316 340 275 274 247 c 0
 235 231 179 218 106 209 c 1
 103 189 102 170 102 152 c 0
 102 89 132 57 194 57 c 0
 214 57 236 68 259 89 c 0
 282 110 293 120 292 120 c 1
 295 120 299 118 305 112 c 0
 311 106 313 103 313 100 c 256
 313 97 312 95 310 92 c 0
 265 31 212 0 152 0 c 0
 113 0 81 13 57 41 c 0
 34 67 23 101 23 140 c 0
 23 222 48 294 99 357 c 0
 150 420 209 451 276 451 c 0
 303 451 325 445 343 431 c 0
 363 416 373 396 373 370 c 0
305 364 m 0
 305 396 291 411 265 411 c 0
 232 411 200 391 170 352 c 0
 146 322 128 287 115 248 c 1
 241 263 305 302 305 364 c 0
EndSplineSet
Substitution2: "smcpLowercasetoSmallCapitalslookup20 subtable" E_SC
Substitution2: "supsSuperscriptlookup16 subtable" e_SUP
Substitution2: "subsSubscriptlookup15 subtable" e_sub
Substitution2: "'smcp' Lowercase to Small Capitals lookup 20 subtable" E_SC
Substitution2: "'sups' Superscript lookup 16 subtable" e_SUP
Substitution2: "'subs' Subscript lookup 15 subtable" e_sub
EndChar

StartChar: f
Encoding: 102 102 73
Width: 274
VWidth: 1099
GlyphClass: 2
Flags: W
HStem: -231 61<-118.333 -33.4391> 392 45<59.9608 133 218 315.095> 725 40<319.866 383.96>
LayerCount: 2
Fore
SplineSet
473 698 m 0
 473 672 461 659 436 659 c 0
 420 659 405 670 393 692 c 0
 381 714 367 725 353 725 c 0
 325 725 296 684 266 602 c 0
 255 571 239 516 218 437 c 1
 306 437 l 2
 312 437 316 434 316 427 c 0
 316 403 309 392 295 392 c 2
 205 392 l 1
 149 189 l 2
 116 72 89 -11 68 -60 c 0
 19 -174 -35 -231 -93 -231 c 0
 -131 -231 -149 -216 -149 -186 c 0
 -149 -160 -133 -146 -101 -146 c 0
 -94 -146 -86 -150 -77 -158 c 0
 -68 -166 -61 -170 -56 -170 c 0
 -44 -170 -31 -156 -19 -128 c 0
 1 -81 28 6 62 131 c 2
 133 392 l 1
 68 392 l 2
 61 392 58 394 58 400 c 0
 58 407 59 415 63 423 c 0
 68 433 73 437 79 437 c 2
 145 437 l 1
 172 540 194 609 211 644 c 0
 250 725 304 765 370 765 c 0
 395 765 416 760 436 750 c 0
 461 737 473 720 473 698 c 0
EndSplineSet
Substitution2: "smcpLowercasetoSmallCapitalslookup20 subtable" F_SC
Substitution2: "supsSuperscriptlookup16 subtable" f_SUP
Substitution2: "subsSubscriptlookup15 subtable" f_sub
Substitution2: "'smcp' Lowercase to Small Capitals lookup 20 subtable" F_SC
Substitution2: "'sups' Superscript lookup 16 subtable" f_SUP
Substitution2: "'subs' Subscript lookup 15 subtable" f_sub
EndChar

StartChar: g
Encoding: 103 103 74
Width: 416
VWidth: 1099
GlyphClass: 2
Flags: W
HStem: -233 41<115.888 289.354> 131 40<165.421 256.054> 364 43<372 440.827> 411 40<185.578 291.939>
VStem: -15 68<-144.548 -36.975> 59 70<192.728 346.492> 85 68<64.5 111.88> 317 70<-167.727 -86.2439 248.087 363.36>
LayerCount: 2
Fore
SplineSet
444 399 m 0xfd
 444 393 442 387 438 379 c 0
 434 370 429 365 424 365 c 2
 372 364 l 1
 379 347 382 328 382 309 c 0
 382 261 364 220 329 184 c 0
 294 148 253 131 205 131 c 0
 195 131 184 131 174 133 c 1
 160 120 153 109 153 100 c 0
 153 90 168 76 200 58 c 2
 314 -6 l 2
 363 -34 387 -66 387 -103 c 0
 387 -147 367 -181 325 -204 c 0
 291 -223 250 -233 202 -233 c 0
 137 -233 83 -219 41 -191 c 0
 3 -166 -15 -135 -15 -100 c 0
 -15 -68 -1 -40 27 -15 c 0
 50 5 79 21 114 30 c 1
 95 45 85 58 85 71 c 0xfb
 85 90 103 113 141 142 c 1
 86 164 59 207 59 271 c 0
 59 319 76 361 111 397 c 0
 146 433 187 451 235 451 c 0
 279 451 316 436 345 407 c 1
 435 407 l 2
 441 407 444 404 444 399 c 0xfd
311 330 m 0
 311 384 287 411 238 411 c 0
 204 411 176 392 155 354 c 0
 137 323 129 289 129 252 c 0xfd
 129 228 135 209 147 194 c 0
 160 178 179 171 202 171 c 0
 236 171 264 190 285 227 c 0
 303 259 311 293 311 330 c 0
317 -124 m 0
 317 -104 297 -82 258 -59 c 2
 177 -12 l 2
 175 -11 165 -5 146 7 c 1
 122 1 101 -10 83 -28 c 0
 63 -47 53 -69 53 -93 c 0
 53 -126 73 -152 112 -170 c 0
 143 -185 176 -192 214 -192 c 0
 240 -192 262 -187 281 -177 c 0
 305 -164 317 -147 317 -124 c 0
EndSplineSet
Substitution2: "smcpLowercasetoSmallCapitalslookup20 subtable" G_SC
Substitution2: "supsSuperscriptlookup16 subtable" g_SUP
Substitution2: "subsSubscriptlookup15 subtable" g_sub
Substitution2: "'smcp' Lowercase to Small Capitals lookup 20 subtable" G_SC
Substitution2: "'sups' Superscript lookup 16 subtable" g_SUP
Substitution2: "'subs' Subscript lookup 15 subtable" g_sub
EndChar

StartChar: h
Encoding: 104 104 75
Width: 471
VWidth: 1099
GlyphClass: 2
Flags: W
HStem: 0 61<211.75 292.268> 388 63<309.599 405.5> 699 41<135.663 188.348> 745 20G<275.5 280.5>
VStem: 10 66<9.63876 77.9375> 378 79<233.047 385.712>
LayerCount: 2
Fore
SplineSet
457 352 m 0
 457 306 446 257 425 205 c 0
 405 157 380 114 348 76 c 0
 306 26 269 0 237 0 c 0
 206 0 190 13 190 39 c 0
 190 50 193 61 201 70 c 0
 209 79 219 83 230 83 c 256
 241 83 251 79 258 72 c 0
 265 65 269 61 272 61 c 0
 281 61 292 71 305 90 c 0
 324 118 340 156 355 204 c 0
 370 252 378 291 378 324 c 0
 378 367 367 388 345 388 c 0
 302 388 250 342 188 249 c 0
 137 173 102 106 84 48 c 0
 81 39 79 30 76 21 c 1
 71 12 64 8 54 8 c 0
 24 8 10 14 10 28 c 0
 10 30 10 34 12 40 c 2
 188 647 l 2
 190 655 191 662 191 668 c 0
 191 683 182 694 163 699 c 0
 144 704 135 708 135 712 c 0
 135 726 140 735 151 740 c 1
 167 742 189 744 214 748 c 0
 215 748 227 751 247 757 c 0
 266 762 275 765 276 765 c 0
 285 765 289 762 289 755 c 0
 289 752 288 746 285 736 c 2
 141 241 l 1
 229 381 308 451 380 451 c 0
 431 451 457 418 457 352 c 0
EndSplineSet
Substitution2: "smcpLowercasetoSmallCapitalslookup20 subtable" H_SC
Substitution2: "supsSuperscriptlookup16 subtable" h_SUP
Substitution2: "subsSubscriptlookup15 subtable" h_sub
Substitution2: "'smcp' Lowercase to Small Capitals lookup 20 subtable" H_SC
Substitution2: "'sups' Superscript lookup 16 subtable" h_SUP
Substitution2: "'subs' Subscript lookup 15 subtable" h_sub
EndChar

StartChar: i
Encoding: 105 105 76
Width: 291
VWidth: 1099
GlyphClass: 2
Flags: W
HStem: 0 71<79 157.826> 379 72<142.71 216.922> 607 94<204.423 276.306>
VStem: 47 82<23.261 122.078> 156 82<326.703 430.727> 191 93<621.423 686.577>
LayerCount: 2
Fore
SplineSet
284 654 m 256xf4
 284 641 279 630 270 621 c 0
 261 612 250 607 237 607 c 256
 224 607 213 612 204 621 c 0
 195 630 191 641 191 654 c 256
 191 667 195 678 204 687 c 0
 213 696 224 701 237 701 c 256
 250 701 261 696 270 687 c 0
 279 678 284 667 284 654 c 256xf4
270 138 m 256
 270 135 268 133 267 130 c 0
 251 102 227 74 193 47 c 0
 155 16 123 0 95 0 c 0
 63 0 47 14 47 42 c 0
 47 57 51 76 60 100 c 2
 148 333 l 2
 153 347 156 358 156 366 c 0
 156 374 153 379 146 379 c 0
 136 379 122 371 105 356 c 0
 88 341 78 334 77 334 c 0
 74 334 70 336 65 341 c 0
 60 346 58 350 58 353 c 0
 58 357 59 361 62 364 c 0
 78 383 99 401 124 419 c 0
 154 440 179 451 198 451 c 0
 225 451 238 439 238 414 c 0xf8
 238 396 232 368 218 331 c 2
 138 119 l 2
 132 103 129 91 129 85 c 0
 129 76 134 71 143 71 c 0
 161 71 183 86 209 114 c 0
 235 142 249 156 250 156 c 0
 253 156 257 154 262 149 c 0
 267 144 270 141 270 138 c 256
EndSplineSet
Substitution2: "smcpLowercasetoSmallCapitalslookup20 subtable" I_SC
Substitution2: "supsSuperscriptlookup16 subtable" i_SUP
Substitution2: "subsSubscriptlookup15 subtable" i_sub
Substitution2: "'smcp' Lowercase to Small Capitals lookup 20 subtable" I_SC
Substitution2: "'sups' Superscript lookup 16 subtable" i_SUP
Substitution2: "'subs' Subscript lookup 15 subtable" i_sub
EndChar

StartChar: j
Encoding: 106 106 77
Width: 238
VWidth: 1099
GlyphClass: 2
Flags: W
HStem: -233 51<-71 -5.54083> 378 73<124.082 190> 607 94<179.694 258.306>
VStem: 140 78<302.656 427.317> 172 94<614.694 693.306>
LayerCount: 2
Fore
SplineSet
266 654 m 256xe8
 266 641 261 630 252 621 c 0
 243 612 232 607 219 607 c 256
 206 607 195 612 186 621 c 0
 177 630 172 641 172 654 c 256
 172 667 177 678 186 687 c 0
 195 696 206 701 219 701 c 256
 232 701 243 696 252 687 c 0
 261 678 266 667 266 654 c 256xe8
218 407 m 0xf0
 218 386 211 354 199 312 c 2
 140 108 l 2
 112 11 90 -55 75 -91 c 0
 35 -185 -9 -233 -54 -233 c 0
 -88 -233 -106 -218 -106 -190 c 0
 -106 -165 -94 -153 -71 -153 c 0
 -60 -153 -49 -158 -39 -168 c 0
 -29 -178 -23 -182 -21 -182 c 0
 -14 -182 -7 -170 -1 -147 c 2
 136 341 l 2
 139 350 140 358 140 365 c 0
 140 373 137 378 131 378 c 0
 122 378 108 370 92 355 c 0
 76 340 66 332 64 332 c 0
 61 332 57 335 52 340 c 0
 47 345 45 350 45 353 c 0
 45 355 46 358 49 361 c 0
 96 421 139 451 176 451 c 0
 204 451 218 437 218 407 c 0xf0
EndSplineSet
Substitution2: "smcpLowercasetoSmallCapitalslookup20 subtable" J_SC
Substitution2: "supsSuperscriptlookup16 subtable" j_SUP
Substitution2: "subsSubscriptlookup15 subtable" j_sub
Substitution2: "'smcp' Lowercase to Small Capitals lookup 20 subtable" J_SC
Substitution2: "'sups' Superscript lookup 16 subtable" j_SUP
Substitution2: "'subs' Subscript lookup 15 subtable" j_sub
EndChar

StartChar: k
Encoding: 107 107 78
Width: 489
VWidth: 1099
GlyphClass: 2
Flags: W
HStem: 0 71<302.21 375.163> 388 62<291.583 385.054> 745 20G<265 285.5>
VStem: 15 64<5.29688 38.8226> 388 79<311.752 384.856>
LayerCount: 2
Fore
SplineSet
467 375 m 0
 467 365 466 356 463 348 c 0
 439 273 366 230 244 220 c 1
 260 203 274 183 283 160 c 0
 295 130 302 111 305 106 c 0
 318 83 330 71 344 71 c 0
 362 71 381 82 402 103 c 0
 423 124 434 135 435 135 c 0
 438 135 443 132 449 126 c 0
 455 120 458 116 458 113 c 0
 458 110 457 107 454 103 c 0
 404 34 357 0 314 0 c 0
 291 0 270 15 252 46 c 0
 246 56 233 87 210 140 c 0
 193 179 177 204 163 215 c 0
 162 216 155 220 141 226 c 1
 79 15 l 2
 76 7 72 3 64 3 c 0
 31 3 15 10 15 24 c 0
 15 27 15 28 15 29 c 2
 190 631 l 2
 194 645 196 657 196 667 c 0
 196 683 188 694 172 699 c 0
 156 704 147 709 147 712 c 0
 147 726 153 736 165 740 c 1
 178 741 197 744 222 748 c 0
 230 750 245 754 265 760 c 0
 275 763 281 765 281 765 c 0
 290 765 294 762 294 755 c 0
 294 751 293 744 290 735 c 2
 172 335 l 1
 245 412 314 450 377 450 c 0
 401 450 421 444 438 431 c 0
 457 417 467 399 467 375 c 0
388 350 m 0
 388 375 374 388 346 388 c 0
 316 388 281 373 240 344 c 0
 208 321 179 294 154 263 c 1
 175 260 196 258 217 258 c 0
 256 258 291 265 323 277 c 0
 366 294 388 318 388 350 c 0
EndSplineSet
Substitution2: "smcpLowercasetoSmallCapitalslookup20 subtable" K_SC
Substitution2: "supsSuperscriptlookup16 subtable" k_SUP
Substitution2: "subsSubscriptlookup15 subtable" k_sub
Substitution2: "'smcp' Lowercase to Small Capitals lookup 20 subtable" K_SC
Substitution2: "'sups' Superscript lookup 16 subtable" k_SUP
Substitution2: "'subs' Subscript lookup 15 subtable" k_sub
EndChar

StartChar: l
Encoding: 108 108 79
Width: 274
VWidth: 1099
GlyphClass: 2
Flags: W
HStem: 0 71<60.5 133> 699 41<153.655 202.334> 745 20G<285 292.5>
VStem: 31 81<21.7317 135.938>
LayerCount: 2
Fore
SplineSet
301 755 m 0
 301 753 301 751 300 748 c 2
 117 118 l 2
 114 108 112 100 112 92 c 0
 112 78 117 71 127 71 c 0
 139 71 157 86 184 114 c 0
 211 142 226 157 229 157 c 0
 232 157 236 155 240 150 c 0
 244 145 246 141 246 138 c 0
 246 135 245 133 244 131 c 0
 228 109 202 83 165 53 c 0
 123 18 94 0 75 0 c 0
 46 0 31 13 31 40 c 0
 31 55 35 75 42 100 c 2
 200 647 l 2
 203 656 204 663 204 670 c 0
 204 685 196 694 179 699 c 0
 162 704 153 708 153 712 c 0
 153 727 159 737 170 740 c 1
 183 741 203 744 229 748 c 0
 240 751 255 754 272 759 c 0
 277 761 282 763 288 765 c 1
 297 765 301 762 301 755 c 0
EndSplineSet
Substitution2: "smcpLowercasetoSmallCapitalslookup20 subtable" L_SC
Substitution2: "supsSuperscriptlookup16 subtable" l_SUP
Substitution2: "subsSubscriptlookup15 subtable" l_sub
Substitution2: "'smcp' Lowercase to Small Capitals lookup 20 subtable" L_SC
Substitution2: "'sups' Superscript lookup 16 subtable" l_SUP
Substitution2: "'subs' Subscript lookup 15 subtable" l_sub
EndChar

StartChar: m
Encoding: 109 109 80
Width: 793
VWidth: 1099
GlyphClass: 2
Flags: W
HStem: -5 21G<80.5 88> 390 61<334.509 416.451 587.681 685.285>
VStem: 36 83<8.63678 75.5625> 162 57<307.412 418.432> 283 66<6.68234 68.4095> 393 67<317.17 389.204> 542 85<20.0625 105.391> 661 72<293.914 387.801>
LayerCount: 2
Fore
SplineSet
764 140 m 0
 764 126 737 99 684 59 c 0
 631 19 596 0 580 0 c 0
 555 0 542 11 542 32 c 0
 542 47 548 69 561 100 c 2
 645 303 l 2
 656 329 661 349 661 363 c 0
 661 381 649 390 625 390 c 0
 588 390 545 363 498 309 c 0
 460 265 430 222 411 177 c 1
 398 140 378 87 349 15 c 0
 345 6 340 2 334 2 c 0
 333 2 331 2 329 2 c 0
 320 4 310 6 301 7 c 0
 289 11 283 16 283 23 c 0
 283 26 283 28 284 30 c 2
 361 228 l 2
 382 284 393 325 393 350 c 0
 393 377 383 390 364 390 c 0
 332 390 293 362 249 306 c 0
 214 262 187 219 169 177 c 0
 162 161 145 120 119 56 c 0
 103 16 91 -5 85 -5 c 0
 76 -5 63 0 46 9 c 0
 40 12 36 17 36 23 c 0
 36 26 37 27 38 30 c 2
 138 273 l 2
 154 311 162 339 162 356 c 0
 162 372 155 380 142 380 c 0
 131 380 117 367 100 341 c 0
 83 315 73 301 69 301 c 0
 67 301 63 303 57 307 c 0
 51 311 49 313 49 315 c 0
 49 329 66 355 99 393 c 0
 132 431 157 450 171 450 c 0
 203 450 219 431 219 393 c 0
 219 371 213 342 201 306 c 1
 278 403 346 451 407 451 c 0
 442 451 460 428 460 383 c 0
 460 369 457 347 451 316 c 1
 533 406 604 451 664 451 c 0
 710 451 733 427 733 378 c 0
 733 357 727 332 716 304 c 2
 631 98 l 2
 628 92 627 87 627 82 c 0
 627 75 629 71 633 71 c 0
 643 71 663 85 694 114 c 0
 725 143 743 157 747 157 c 0
 748 157 749 157 751 156 c 0
 760 148 764 143 764 140 c 0
EndSplineSet
Substitution2: "smcpLowercasetoSmallCapitalslookup20 subtable" M_SC
Substitution2: "supsSuperscriptlookup16 subtable" m_SUP
Substitution2: "subsSubscriptlookup15 subtable" m_sub
Substitution2: "'smcp' Lowercase to Small Capitals lookup 20 subtable" M_SC
Substitution2: "'sups' Superscript lookup 16 subtable" m_SUP
Substitution2: "'subs' Subscript lookup 15 subtable" m_sub
EndChar

StartChar: n
Encoding: 110 110 81
Width: 542
VWidth: 1099
GlyphClass: 2
Flags: W
HStem: 0 71<315.423 389.284> 388 63<339.675 437.812>
VStem: 39 63<2.20665 67.4179> 156 55<303.663 408> 296 86<19.6582 108.273> 410 79<312.023 408.97>
LayerCount: 2
Fore
SplineSet
513 138 m 0
 513 135 512 132 509 129 c 0
 485 100 458 74 428 50 c 0
 388 17 356 0 333 0 c 0
 309 0 296 11 296 33 c 0
 296 48 302 70 314 100 c 2
 402 323 l 2
 407 337 410 349 410 360 c 0
 410 379 402 388 386 388 c 0
 345 388 297 353 242 284 c 0
 198 228 164 174 143 122 c 1
 135 97 122 61 102 13 c 0
 97 2 89 -3 81 -3 c 256
 73 -3 64 0 55 5 c 0
 44 11 39 17 39 25 c 0
 39 29 40 32 41 36 c 2
 122 239 l 2
 145 296 156 335 156 358 c 0
 156 372 151 380 142 380 c 0
 126 380 109 366 92 340 c 0
 75 314 65 300 62 300 c 0
 58 300 53 302 47 306 c 0
 41 310 38 313 38 317 c 0
 38 319 38 321 39 323 c 0
 52 348 69 375 92 401 c 0
 121 434 145 450 165 450 c 0
 195 450 211 429 211 387 c 0
 211 366 207 338 198 302 c 1
 277 401 351 451 420 451 c 0
 466 451 489 430 489 387 c 0
 489 374 486 358 478 339 c 2
 391 119 l 2
 385 104 382 92 382 82 c 0
 382 75 384 71 389 71 c 0
 401 71 421 85 448 114 c 0
 475 143 490 157 494 157 c 0
 497 157 501 155 506 150 c 0
 511 145 513 141 513 138 c 0
EndSplineSet
Substitution2: "smcpLowercasetoSmallCapitalslookup20 subtable" N_SC
Substitution2: "supsSuperscriptlookup16 subtable" n_SUP
Substitution2: "subsSubscriptlookup15 subtable" n_sub
Substitution2: "'smcp' Lowercase to Small Capitals lookup 20 subtable" N_SC
Substitution2: "'sups' Superscript lookup 16 subtable" n_SUP
Substitution2: "'subs' Subscript lookup 15 subtable" n_sub
EndChar

StartChar: o
Encoding: 111 111 82
Width: 453
VWidth: 1099
GlyphClass: 2
Flags: W
HStem: 0 40<144.424 240.485> 411 40<218.787 318.355>
VStem: 38 78<76.9741 265.184> 346 77<186.817 376.753>
LayerCount: 2
Fore
SplineSet
423 288 m 0
 423 212 400 145 354 88 c 0
 307 30 254 0 193 0 c 0
 146 0 109 16 80 49 c 0
 52 80 38 119 38 166 c 0
 38 237 60 301 103 358 c 0
 150 420 208 451 277 451 c 0
 322 451 358 435 385 402 c 0
 410 372 423 334 423 288 c 0
346 310 m 0
 346 336 340 359 329 378 c 0
 315 400 296 411 271 411 c 0
 234 411 200 384 167 327 c 0
 133 269 116 208 116 144 c 0
 116 118 122 95 133 76 c 0
 146 52 165 40 189 40 c 0
 227 40 263 69 296 126 c 0
 329 183 346 245 346 310 c 0
EndSplineSet
Substitution2: "smcpLowercasetoSmallCapitalslookup20 subtable" O_SC
Substitution2: "supsSuperscriptlookup16 subtable" o_SUP
Substitution2: "subsSubscriptlookup15 subtable" o_sub
Substitution2: "'smcp' Lowercase to Small Capitals lookup 20 subtable" O_SC
Substitution2: "'sups' Superscript lookup 16 subtable" o_SUP
Substitution2: "'subs' Subscript lookup 15 subtable" o_sub
EndChar

StartChar: p
Encoding: 112 112 83
Width: 453
VWidth: 1099
GlyphClass: 2
Flags: W
HStem: -240 40<-72.0381 -31.2827> 0 40<144.999 226.756> 333 34<20.1214 59.2116> 394 57<234.214 356.439>
VStem: 361 78<229.631 370.711>
LayerCount: 2
Fore
SplineSet
439 335 m 0
 439 310 436 286 429 262 c 0
 410 200 375 142 323 86 c 0
 270 29 223 0 183 0 c 0
 155 0 132 11 116 33 c 1
 65 -144 l 2
 62 -154 61 -162 61 -168 c 0
 61 -186 72 -196 94 -199 c 0
 116 -202 127 -205 127 -209 c 0
 127 -230 121 -240 108 -240 c 1
 109 -240 100 -239 80 -237 c 0
 60 -235 40 -234 20 -234 c 0
 0 -234 -20 -235 -41 -237 c 0
 -62 -239 -73 -240 -72 -240 c 1
 -78 -240 -82 -236 -82 -230 c 0
 -82 -225 -80 -219 -76 -211 c 0
 -73 -205 -67 -201 -57 -200 c 0
 -45 -198 -37 -195 -31 -190 c 0
 -20 -181 -11 -165 -4 -142 c 2
 143 371 l 1
 110 362 76 350 41 334 c 0
 40 333 39 333 37 333 c 0
 26 333 20 339 20 353 c 0
 20 358 22 363 27 367 c 0
 42 378 85 395 157 418 c 1
 179 490 l 2
 183 501 187 508 193 511 c 0
 196 512 204 512 219 512 c 0
 220 512 223 513 226 513 c 0
 231 513 231 513 233 513 c 0
 244 513 250 509 250 501 c 0
 250 495 244 473 233 437 c 1
 274 446 310 451 340 451 c 0
 372 451 397 440 415 416 c 0
 431 394 439 367 439 335 c 0
361 309 m 0
 361 333 355 353 344 368 c 0
 331 386 314 394 291 394 c 0
 272 394 248 392 219 387 c 1
 140 115 l 2
 139 110 138 104 138 96 c 0
 138 58 152 40 181 40 c 0
 207 40 238 63 275 109 c 0
 312 155 337 204 352 255 c 0
 358 276 361 294 361 309 c 0
EndSplineSet
Substitution2: "smcpLowercasetoSmallCapitalslookup20 subtable" P_SC
Substitution2: "supsSuperscriptlookup16 subtable" p_SUP
Substitution2: "subsSubscriptlookup15 subtable" p_sub
Substitution2: "'smcp' Lowercase to Small Capitals lookup 20 subtable" P_SC
Substitution2: "'sups' Superscript lookup 16 subtable" p_SUP
Substitution2: "'subs' Subscript lookup 15 subtable" p_sub
EndChar

StartChar: q
Encoding: 113 113 84
Width: 471
VWidth: 1099
GlyphClass: 2
Flags: W
HStem: -240 39<317.239 344> 0 37<84.6636 177.77> 412 39<274.934 367.605>
VStem: 12 67<40.6882 167.294> 377 102<329 443.5>
LayerCount: 2
Fore
SplineSet
479 440 m 0
 479 439 478 437 478 436 c 2
 311 -108 l 2
 305 -129 301 -147 301 -162 c 0
 301 -178 306 -189 317 -195 c 0
 322 -198 333 -200 348 -201 c 0
 359 -202 364 -205 364 -210 c 0
 364 -216 362 -222 358 -229 c 0
 354 -236 349 -240 344 -240 c 1
 345 -240 335 -239 314 -237 c 0
 293 -235 269 -234 245 -234 c 0
 220 -234 197 -235 175 -237 c 0
 153 -239 142 -240 143 -240 c 1
 137 -240 134 -236 134 -230 c 0
 134 -225 136 -219 140 -211 c 0
 143 -206 152 -201 168 -198 c 0
 187 -194 198 -190 203 -187 c 0
 214 -179 223 -164 230 -142 c 2
 316 137 l 1
 240 46 174 0 116 0 c 0
 85 0 60 10 41 30 c 0
 22 50 12 76 12 107 c 0
 12 188 46 265 115 339 c 0
 184 413 256 451 330 451 c 0
 368 451 397 435 417 404 c 1
 430 434 439 450 446 450 c 2
 452 450 l 2
 470 450 479 447 479 440 c 0
377 353 m 0
 377 392 361 412 328 412 c 0
 287 412 235 371 173 288 c 0
 111 205 79 136 79 81 c 0
 79 52 93 37 121 37 c 0
 167 37 223 78 286 161 c 0
 347 240 377 305 377 353 c 0
EndSplineSet
Substitution2: "smcpLowercasetoSmallCapitalslookup20 subtable" Q_SC
Substitution2: "supsSuperscriptlookup16 subtable" q_SUP
Substitution2: "subsSubscriptlookup15 subtable" q_sub
Substitution2: "'smcp' Lowercase to Small Capitals lookup 20 subtable" Q_SC
Substitution2: "'sups' Superscript lookup 16 subtable" q_SUP
Substitution2: "'subs' Subscript lookup 15 subtable" q_sub
EndChar

StartChar: r
Encoding: 114 114 85
Width: 381
VWidth: 1099
GlyphClass: 2
Flags: W
HStem: 368 83<318.538 384.453> 380 70<110.859 158.307>
VStem: 160 53<259.91 379.793>
LayerCount: 2
Fore
SplineSet
412 398 m 256xa0
 412 384 408 371 400 361 c 0
 392 351 381 346 367 346 c 0
 359 346 350 349 342 357 c 0
 334 365 327 368 321 368 c 0xa0
 318 368 310 361 296 347 c 0
 273 323 249 290 224 248 c 0
 200 208 182 171 170 138 c 0
 161 111 148 72 129 19 c 0
 124 6 117 0 108 0 c 0
 99 0 91 2 82 6 c 0
 72 11 66 18 66 26 c 0
 66 29 67 33 69 38 c 2
 136 233 l 2
 152 278 160 315 160 343 c 0
 160 368 153 380 139 380 c 0
 119 380 100 369 83 346 c 0
 66 323 56 312 56 312 c 0
 53 312 50 314 44 318 c 0
 38 322 35 325 35 328 c 256
 35 331 37 333 38 336 c 0
 52 361 69 384 88 406 c 0
 115 436 138 450 156 450 c 0x60
 194 450 213 423 213 367 c 0
 213 341 209 312 201 279 c 1
 272 394 327 451 364 451 c 0
 378 451 389 446 398 435 c 0
 407 424 412 412 412 398 c 256xa0
EndSplineSet
Substitution2: "smcpLowercasetoSmallCapitalslookup20 subtable" R_SC
Substitution2: "supsSuperscriptlookup16 subtable" r_SUP
Substitution2: "subsSubscriptlookup15 subtable" r_sub
Substitution2: "'smcp' Lowercase to Small Capitals lookup 20 subtable" R_SC
Substitution2: "'sups' Superscript lookup 16 subtable" r_SUP
Substitution2: "'subs' Subscript lookup 15 subtable" r_sub
EndChar

StartChar: s
Encoding: 115 115 86
Width: 291
VWidth: 1099
GlyphClass: 2
Flags: W
HStem: 0 57<67.262 151.098> 393 58<125.288 228.534>
VStem: 56 62<312.709 378.645> 183 61<92.6217 171.5>
LayerCount: 2
Fore
SplineSet
287 403 m 0
 287 378 274 366 249 366 c 0
 240 366 229 370 214 379 c 0
 199 388 187 393 179 393 c 0
 165 393 153 390 141 384 c 0
 126 376 118 366 118 354 c 0
 118 338 139 309 181 265 c 0
 223 221 244 185 244 158 c 0
 244 152 243 145 241 137 c 0
 232 102 211 70 179 42 c 0
 146 14 112 0 76 0 c 0
 55 0 37 5 22 15 c 0
 4 26 -5 41 -5 61 c 0
 -5 87 5 99 26 99 c 0
 37 99 51 92 68 78 c 0
 85 64 99 57 112 57 c 0
 128 57 144 63 158 73 c 0
 174 84 183 97 183 113 c 256
 183 129 161 159 119 203 c 0
 77 247 56 284 56 314 c 0
 56 317 57 322 59 330 c 0
 67 365 83 394 109 417 c 0
 135 440 167 451 202 451 c 0
 222 451 239 448 255 441 c 0
 276 432 287 420 287 403 c 0
EndSplineSet
Substitution2: "smcpLowercasetoSmallCapitalslookup20 subtable" S_SC
Substitution2: "supsSuperscriptlookup16 subtable" s_SUP
Substitution2: "subsSubscriptlookup15 subtable" s_sub
Substitution2: "'smcp' Lowercase to Small Capitals lookup 20 subtable" S_SC
Substitution2: "'sups' Superscript lookup 16 subtable" s_SUP
Substitution2: "'subs' Subscript lookup 15 subtable" s_sub
EndChar

StartChar: t
Encoding: 116 116 87
Width: 310
VWidth: 1099
GlyphClass: 2
Flags: W
HStem: 0 71<88.5 176.806> 392 45<71.2924 146 226 323.685>
VStem: 52 77<32.5 142.625> 183 67<495.083 533>
LayerCount: 2
Fore
SplineSet
327 429 m 0
 327 423 325 416 321 407 c 0
 316 397 312 392 307 392 c 2
 213 392 l 1
 135 125 l 2
 131 111 129 101 129 92 c 0
 129 78 134 71 145 71 c 0
 168 71 194 80 222 99 c 0
 250 118 263 127 262 127 c 1
 264 127 268 125 273 120 c 0
 278 115 281 111 281 109 c 0
 281 106 279 103 275 99 c 0
 207 33 151 0 107 0 c 0
 70 0 52 16 52 49 c 0
 52 62 54 76 59 92 c 2
 146 392 l 1
 78 392 l 2
 72 392 69 394 69 400 c 0
 69 406 70 414 74 422 c 0
 78 432 83 437 89 437 c 2
 159 437 l 1
 183 519 l 2
 186 529 192 533 202 533 c 2
 237 533 l 2
 245 533 250 530 250 523 c 0
 250 519 242 490 226 437 c 1
 319 437 l 2
 325 437 327 435 327 429 c 0
EndSplineSet
Substitution2: "smcpLowercasetoSmallCapitalslookup20 subtable" T_SC
Substitution2: "supsSuperscriptlookup16 subtable" t_SUP
Substitution2: "subsSubscriptlookup15 subtable" t_sub
Substitution2: "'smcp' Lowercase to Small Capitals lookup 20 subtable" T_SC
Substitution2: "'sups' Superscript lookup 16 subtable" t_SUP
Substitution2: "'subs' Subscript lookup 15 subtable" t_sub
EndChar

StartChar: u
Encoding: 117 117 88
Width: 506
VWidth: 1099
GlyphClass: 2
Flags: W
HStem: 0 71<294.95 376.5> 375 71<139.5 220.302> 431 20G<429.5 437.5>
VStem: 34 93<29.4235 116.327> 154 83<350.328 428.219> 279 86<18.7734 110.547> 412 64<377.203 447.796>
LayerCount: 2
Fore
SplineSet
476 430 m 0xde
 476 425 475 421 474 417 c 2
 374 134 l 2
 368 117 365 99 365 82 c 0
 365 75 368 71 372 71 c 0
 381 71 397 86 421 115 c 0
 445 144 458 158 460 158 c 0
 462 158 465 156 469 151 c 0
 473 146 475 143 475 140 c 0
 475 137 475 133 473 130 c 0
 459 106 435 80 400 50 c 0
 361 17 330 0 308 0 c 0
 289 0 279 9 279 27 c 0
 279 42 285 66 297 100 c 2
 352 257 l 1
 309 205 264 155 216 108 c 0
 143 36 93 0 64 0 c 0
 44 0 34 15 34 44 c 0
 34 59 41 80 52 108 c 2
 148 343 l 2
 152 353 154 360 154 365 c 0
 154 372 151 375 143 375 c 0
 136 375 121 363 100 339 c 0
 79 315 67 303 64 303 c 0
 61 303 58 306 54 311 c 0
 50 316 48 320 48 323 c 0
 48 325 50 327 53 331 c 0
 115 408 166 446 206 446 c 0xde
 227 446 237 437 237 417 c 0
 237 398 229 367 211 325 c 2
 136 144 l 2
 130 130 127 118 127 106 c 0
 127 98 130 95 134 95 c 0
 156 95 204 139 278 227 c 0
 348 310 389 368 402 399 c 0
 406 410 408 420 412 430 c 0
 418 444 425 451 434 451 c 0xbe
 441 451 449 450 459 446 c 0
 470 442 476 436 476 430 c 0xde
EndSplineSet
Substitution2: "Single Substitution lookup 94 subtable" v
Substitution2: "smcpLowercasetoSmallCapitalslookup20 subtable" U_SC
Substitution2: "supsSuperscriptlookup16 subtable" u_SUP
Substitution2: "subsSubscriptlookup15 subtable" u_sub
Substitution2: "Single Substitution lookup 51 subtable" v
Substitution2: "'smcp' Lowercase to Small Capitals lookup 20 subtable" U_SC
Substitution2: "'sups' Superscript lookup 16 subtable" u_SUP
Substitution2: "'subs' Subscript lookup 15 subtable" u_sub
EndChar

StartChar: v
Encoding: 118 118 89
Width: 506
VWidth: 1099
GlyphClass: 2
Flags: W
HStem: 0 71<213.038 309.185> 375 68<104.47 245.625> 431 20G<450.5 474.5>
VStem: 33 56<273.976 358.194> 134 68<80.5735 219.011> 454 55<257.544 402.5>
LayerCount: 2
Fore
SplineSet
509 378 m 0xbc
 509 295 478 211 418 128 c 0
 356 43 296 0 237 0 c 0
 207 0 182 10 163 30 c 0
 144 50 134 76 134 106 c 0
 134 189 172 278 246 375 c 1
 139 375 l 2
 126 375 114 370 104 362 c 0
 94 354 89 343 89 330 c 0
 89 326 91 321 95 312 c 0
 99 303 100 296 100 291 c 0
 100 282 98 273 91 266 c 0
 84 259 76 255 67 255 c 0
 44 255 33 269 33 295 c 0
 33 315 45 344 69 382 c 0
 94 422 115 443 134 443 c 0
 144 443 160 442 181 440 c 0
 202 438 218 438 228 438 c 0
 238 438 251 438 270 440 c 0
 289 442 303 443 313 443 c 0xdc
 323 443 329 439 329 432 c 0
 329 429 327 425 323 421 c 0
 242 320 202 227 202 141 c 0
 202 94 220 71 257 71 c 0
 301 71 346 99 390 155 c 0
 433 209 454 267 454 329 c 0
 454 344 447 357 432 369 c 0
 417 381 409 392 409 404 c 0
 409 417 414 428 423 437 c 0
 432 446 444 451 457 451 c 0
 492 451 509 427 509 378 c 0xbc
EndSplineSet
Substitution2: "Single Substitution lookup 96 subtable" u
Substitution2: "smcpLowercasetoSmallCapitalslookup20 subtable" V_SC
Substitution2: "supsSuperscriptlookup16 subtable" v_SUP
Substitution2: "subsSubscriptlookup15 subtable" v_sub
Substitution2: "Single Substitution lookup 52 subtable" u
Substitution2: "'smcp' Lowercase to Small Capitals lookup 20 subtable" V_SC
Substitution2: "'sups' Superscript lookup 16 subtable" v_SUP
Substitution2: "'subs' Subscript lookup 15 subtable" v_sub
EndChar

StartChar: w
Encoding: 119 119 90
Width: 704
VWidth: 1099
GlyphClass: 2
Flags: W
HStem: 0 69<218.406 300.925 421.524 513.305> 378 65<103.095 254> 385 62<438.237 503.5> 431 20G<644.5 667>
VStem: 34 55<270.444 357.09> 130 73<88.5557 216.078> 345 45<141.743 295.537> 488 44<282.631 384.074> 648 53<255.482 405.5>
LayerCount: 2
Fore
SplineSet
701 383 m 0x9f80
 701 299 673 214 616 129 c 0
 558 43 501 0 444 0 c 0
 406 0 377 22 359 66 c 1
 312 22 270 0 232 0 c 0
 202 0 178 9 159 28 c 0
 140 47 130 71 130 101 c 0
 130 196 172 289 254 378 c 1
 142 378 l 2
 130 378 118 374 107 367 c 0
 94 359 89 349 89 338 c 0
 89 337 94 319 104 283 c 1
 100 264 88 254 67 254 c 0
 58 254 50 258 44 265 c 0
 38 272 34 280 34 289 c 0
 34 316 48 348 74 386 c 0
 100 424 123 443 143 443 c 0
 153 443 169 442 189 440 c 0
 209 438 224 438 234 438 c 0
 244 438 258 438 277 440 c 0
 296 442 310 443 320 443 c 0xcf80
 330 443 335 439 335 432 c 0
 335 428 334 425 331 422 c 2
 329 419 l 2
 245 335 203 243 203 143 c 0
 203 124 208 107 217 93 c 0
 227 77 242 69 260 69 c 0
 286 69 316 84 348 112 c 1
 347 121 345 131 345 142 c 0
 345 220 360 291 389 353 c 0
 418 415 451 447 489 447 c 0xaf80
 518 447 532 424 532 379 c 0
 532 307 491 220 406 117 c 1
 420 85 438 69 460 69 c 0
 498 69 538 98 582 156 c 0
 626 214 648 270 648 324 c 0
 648 338 641 352 628 366 c 0
 615 380 608 394 608 407 c 0
 608 419 613 429 621 438 c 0
 629 447 639 451 650 451 c 0
 684 451 701 428 701 383 c 0x9f80
488 361 m 0
 488 377 481 385 468 385 c 0xaf80
 451 385 434 365 417 325 c 0
 399 283 390 242 390 201 c 0
 390 187 391 174 393 160 c 1
 456 239 488 305 488 361 c 0
EndSplineSet
Substitution2: "smcpLowercasetoSmallCapitalslookup20 subtable" W_SC
Substitution2: "supsSuperscriptlookup16 subtable" w_SUP
Substitution2: "subsSubscriptlookup15 subtable" w_sub
Substitution2: "'smcp' Lowercase to Small Capitals lookup 20 subtable" W_SC
Substitution2: "'sups' Superscript lookup 16 subtable" w_SUP
Substitution2: "'subs' Subscript lookup 15 subtable" w_sub
EndChar

StartChar: x
Encoding: 120 120 91
Width: 453
VWidth: 1099
GlyphClass: 2
Flags: W
HStem: 1 72<18.7109 96.4824 306.631 361.43> 380 71<92.703 148.792> 396 55<346.155 411.5>
LayerCount: 2
Fore
SplineSet
448 397 m 0xa0
 448 384 445 372 440 361 c 0
 434 347 425 341 414 341 c 0
 399 341 389 350 384 368 c 0
 379 386 374 396 370 396 c 0xa0
 364 396 355 388 344 371 c 2
 257 244 l 1
 294 126 l 2
 305 91 318 73 332 73 c 0
 348 73 365 84 383 108 c 0
 401 132 411 143 412 143 c 0
 416 143 420 141 425 136 c 0
 430 131 432 128 432 124 c 0
 432 123 432 121 431 119 c 0
 423 97 408 72 385 46 c 0
 359 16 335 1 316 1 c 0
 282 1 257 28 240 82 c 2
 210 176 l 1
 142 77 l 2
 107 25 75 0 47 0 c 0
 15 0 -1 13 -1 41 c 0
 -1 52 2 63 8 72 c 0
 15 82 24 88 35 88 c 0
 44 88 53 85 62 79 c 0
 71 73 76 70 78 70 c 0
 84 70 93 77 103 91 c 2
 195 225 l 1
 162 328 l 2
 151 363 137 380 120 380 c 0
 110 380 99 373 86 359 c 0
 73 345 65 338 64 338 c 0
 61 338 57 340 52 345 c 0
 47 350 45 354 45 357 c 256
 45 360 46 362 47 365 c 0
 77 423 108 451 141 451 c 0xc0
 174 451 200 420 220 357 c 2
 241 292 l 1
 298 374 l 2
 333 425 364 451 393 451 c 4
 430 451 448 433 448 397 c 0xa0
EndSplineSet
Substitution2: "smcpLowercasetoSmallCapitalslookup20 subtable" X_SC
Substitution2: "supsSuperscriptlookup16 subtable" x_SUP
Substitution2: "subsSubscriptlookup15 subtable" x_sub
Substitution2: "'smcp' Lowercase to Small Capitals lookup 20 subtable" X_SC
Substitution2: "'sups' Superscript lookup 16 subtable" x_SUP
Substitution2: "'subs' Subscript lookup 15 subtable" x_sub
EndChar

StartChar: y
Encoding: 121 121 92
Width: 445
VWidth: 1099
GlyphClass: 2
Flags: W
HStem: -234 87<29.9237 105.584> 380 71<93.0632 158.616>
VStem: 215 66<66 266.17> 380 68<285.988 446.978>
LayerCount: 2
Fore
SplineSet
448 394 m 0
 448 362 438 319 419 262 c 0
 403 213 385 170 366 134 c 0
 313 36 255 -51 192 -127 c 0
 132 -199 85 -234 53 -234 c 0
 37 -234 23 -229 13 -218 c 0
 3 -207 -2 -194 -2 -178 c 0
 -2 -165 3 -153 12 -143 c 0
 21 -133 33 -128 46 -128 c 0
 54 -128 63 -131 75 -137 c 0
 87 -143 96 -147 102 -147 c 0
 109 -147 116 -144 124 -138 c 0
 134 -130 150 -113 172 -88 c 0
 191 -67 204 -45 209 -26 c 0
 213 -12 215 12 215 45 c 0
 215 112 211 171 202 222 c 0
 184 328 159 380 128 380 c 0
 110 380 92 367 73 340 c 0
 54 313 44 299 41 299 c 0
 37 299 34 301 28 305 c 0
 22 309 19 312 19 316 c 0
 19 317 19 319 20 321 c 0
 32 350 48 377 68 402 c 0
 94 435 118 451 141 451 c 0
 195 451 234 398 258 292 c 0
 273 224 281 149 281 66 c 1
 347 168 380 260 380 342 c 0
 380 358 379 375 376 394 c 0
 375 399 375 401 375 401 c 1
 375 435 386 451 408 451 c 0
 435 451 448 432 448 394 c 0
EndSplineSet
Substitution2: "smcpLowercasetoSmallCapitalslookup20 subtable" Y_SC
Substitution2: "supsSuperscriptlookup16 subtable" y_SUP
Substitution2: "subsSubscriptlookup15 subtable" y_sub
Substitution2: "'smcp' Lowercase to Small Capitals lookup 20 subtable" Y_SC
Substitution2: "'sups' Superscript lookup 16 subtable" y_SUP
Substitution2: "'subs' Subscript lookup 15 subtable" y_sub
EndChar

StartChar: z
Encoding: 122 122 93
Width: 403
VWidth: 1099
GlyphClass: 2
Flags: W
HStem: -97 36<273.712 321.182> -25 20G<354 368.5> 377 74<106.573 188.39>
VStem: 66 37<293.712 372.177>
LayerCount: 2
Fore
SplineSet
433 430 m 0
 433 417 424 402 408 384 c 0
 402 377 345 319 237 211 c 0
 213 188 179 153 136 107 c 1
 146 103 l 2
 195 79 232 38 258 -16 c 0
 272 -46 286 -61 298 -61 c 0
 308 -61 318 -52 327 -33 c 0
 336 -14 348 -5 360 -5 c 0
 377 -5 385 -13 385 -30 c 0
 385 -50 373 -66 348 -80 c 0
 327 -91 305 -97 283 -97 c 0
 255 -97 226 -85 198 -61 c 0
 190 -54 169 -31 134 8 c 0
 112 32 95 44 82 44 c 0
 73 44 63 37 52 24 c 0
 41 11 31 4 22 4 c 0
 10 4 4 9 4 19 c 0
 4 27 21 47 55 79 c 0
 56 80 86 110 144 169 c 0
 176 201 223 249 285 314 c 1
 270 317 256 320 242 325 c 0
 235 328 217 337 189 355 c 0
 165 370 148 377 138 377 c 256
 128 377 120 373 113 365 c 0
 106 357 103 348 103 338 c 0
 103 332 106 324 112 315 c 0
 118 306 121 299 121 294 c 0
 121 285 115 281 105 281 c 0
 94 281 84 290 76 308 c 0
 69 322 66 336 66 349 c 0
 66 376 76 399 96 420 c 0
 116 441 139 451 165 451 c 0
 186 451 218 440 257 418 c 0
 296 396 327 385 348 385 c 0
 361 385 372 396 382 417 c 0
 392 438 403 450 415 450 c 256
 427 450 433 443 433 430 c 0
EndSplineSet
Substitution2: "smcpLowercasetoSmallCapitalslookup20 subtable" Z_SC
Substitution2: "supsSuperscriptlookup16 subtable" z_SUP
Substitution2: "subsSubscriptlookup15 subtable" z_sub
Substitution2: "'smcp' Lowercase to Small Capitals lookup 20 subtable" Z_SC
Substitution2: "'sups' Superscript lookup 16 subtable" z_SUP
Substitution2: "'subs' Subscript lookup 15 subtable" z_sub
EndChar

StartChar: braceleft
Encoding: 123 123 94
Width: 330
VWidth: 1099
GlyphClass: 2
Flags: W
HStem: -171 25<189.325 216.68> 771 26<366.101 408>
VStem: 44 91<-100.125 47.9587> 106 85<112.164 254.489>
LayerCount: 2
Fore
SplineSet
414 797 m 1xd0
 408 771 l 1
 356 760 320 737 299 704 c 0
 280 675 269 634 267 578 c 0
 264 505 251 451 228 415 c 0
 203 376 158 343 92 317 c 1
 158 284 191 239 191 184 c 0xd0
 191 156 182 117 163 66 c 0
 144 15 135 -24 135 -51 c 0
 135 -100 164 -132 221 -146 c 1
 215 -171 l 1
 101 -153 44 -107 44 -34 c 0xe0
 44 -5 54 35 75 88 c 0
 96 141 106 182 106 211 c 0
 106 256 80 288 27 306 c 1
 32 327 l 1
 108 350 151 399 163 473 c 0
 172 537 182 601 191 665 c 1
 220 734 294 779 414 797 c 1xd0
EndSplineSet
Substitution2: "smcpLowercasetoSmallCapitalslookup20 subtable" braceleft_SC
Substitution2: "caseCaseSensitiveFormslookup17 subtable" braceleft_CAS
Substitution2: "supsSuperscriptlookup16 subtable" braceleft_SUP
Substitution2: "subsSubscriptlookup15 subtable" braceleft_sub
Substitution2: "'smcp' Lowercase to Small Capitals lookup 20 subtable" braceleft_SC
Substitution2: "'case' Case-Sensitive Forms lookup 17 subtable" braceleft_CAS
Substitution2: "'sups' Superscript lookup 16 subtable" braceleft_SUP
Substitution2: "'subs' Subscript lookup 15 subtable" braceleft_sub
EndChar

StartChar: bar
Encoding: 124 124 95
Width: 547
VWidth: 1099
GlyphClass: 2
Flags: W
VStem: 277 56<-171 797>
LayerCount: 2
Fore
SplineSet
333 -171 m 1
 277 -171 l 1
 277 797 l 1
 333 797 l 1
 333 -171 l 1
EndSplineSet
Substitution2: "smcpLowercasetoSmallCapitalslookup20 subtable" bar_SC
Substitution2: "caseCaseSensitiveFormslookup17 subtable" bar_CAS
Substitution2: "supsSuperscriptlookup16 subtable" bar_SUP
Substitution2: "subsSubscriptlookup15 subtable" bar_sub
Substitution2: "'smcp' Lowercase to Small Capitals lookup 20 subtable" bar_SC
Substitution2: "'case' Case-Sensitive Forms lookup 17 subtable" bar_CAS
Substitution2: "'sups' Superscript lookup 16 subtable" bar_SUP
Substitution2: "'subs' Subscript lookup 15 subtable" bar_sub
EndChar

StartChar: braceright
Encoding: 125 125 96
Width: 330
VWidth: 1099
GlyphClass: 2
Flags: W
HStem: -171 25<-11 25.8457> 771 26<180.385 207.675>
VStem: 206 85<371.011 512.869> 262 91<577.128 726.452>
LayerCount: 2
Fore
SplineSet
370 320 m 1xe0
 365 298 l 1
 289 275 246 227 234 153 c 0
 225 89 215 24 206 -40 c 1
 177 -109 103 -153 -17 -171 c 1
 -11 -146 l 1
 41 -135 77 -112 98 -79 c 0
 117 -50 127 -9 129 47 c 0
 132 120 146 175 169 211 c 0
 194 250 239 282 305 308 c 1
 239 341 206 386 206 441 c 0xe0
 206 469 215 508 234 559 c 0
 253 610 262 649 262 676 c 0
 262 725 233 757 176 771 c 1
 182 797 l 1
 296 779 353 733 353 660 c 0xd0
 353 631 343 590 322 537 c 0
 301 484 291 444 291 415 c 0
 291 370 317 338 370 320 c 1xe0
EndSplineSet
Substitution2: "smcpLowercasetoSmallCapitalslookup20 subtable" braceright_SC
Substitution2: "caseCaseSensitiveFormslookup17 subtable" braceright_CAS
Substitution2: "supsSuperscriptlookup16 subtable" braceright_SUP
Substitution2: "subsSubscriptlookup15 subtable" braceright_sub
Substitution2: "'smcp' Lowercase to Small Capitals lookup 20 subtable" braceright_SC
Substitution2: "'case' Case-Sensitive Forms lookup 17 subtable" braceright_CAS
Substitution2: "'sups' Superscript lookup 16 subtable" braceright_SUP
Substitution2: "'subs' Subscript lookup 15 subtable" braceright_sub
EndChar

StartChar: asciitilde
Encoding: 126 126 97
Width: 593
VWidth: 1099
GlyphClass: 2
Flags: W
HStem: 185 69<357.74 494.848> 246 70<119.343 256.368>
LayerCount: 2
Fore
SplineSet
555 297 m 1x80
 540 261 525 234 508 218 c 0
 486 196 458 185 424 185 c 0x80
 392 185 348 194 291 213 c 0
 225 235 182 246 164 246 c 0
 127 246 91 228 57 191 c 1
 45 206 l 1
 90 279 133 316 175 316 c 0x40
 205 316 243 309 290 296 c 0
 328 285 365 273 403 262 c 0
 421 257 433 254 440 254 c 0
 477 254 511 274 541 313 c 1
 555 297 l 1x80
EndSplineSet
Substitution2: "smcpLowercasetoSmallCapitalslookup20 subtable" asciitilde_SC
Substitution2: "caseCaseSensitiveFormslookup17 subtable" asciitilde_CAS
Substitution2: "supsSuperscriptlookup16 subtable" asciitilde_SUP
Substitution2: "subsSubscriptlookup15 subtable" asciitilde_sub
Substitution2: "'smcp' Lowercase to Small Capitals lookup 20 subtable" asciitilde_SC
Substitution2: "'case' Case-Sensitive Forms lookup 17 subtable" asciitilde_CAS
Substitution2: "'sups' Superscript lookup 16 subtable" asciitilde_SUP
Substitution2: "'subs' Subscript lookup 15 subtable" asciitilde_sub
EndChar

StartChar: exclamdown
Encoding: 161 161 99
Width: 263
VWidth: 1099
GlyphClass: 2
Flags: W
HStem: 335 131<168.519 251.567>
VStem: 151 118<353.564 444.342>
LayerCount: 2
Fore
SplineSet
269 404 m 0
 269 385 263 370 252 357 c 0
 240 343 225 335 207 335 c 0
 190 335 177 341 167 353 c 0
 157 365 151 379 151 396 c 0
 151 415 157 431 168 445 c 0
 179 459 194 466 213 466 c 0
 229 466 244 460 254 448 c 0
 264 436 269 421 269 404 c 0
197 271 m 0
 197 268 195 254 190 229 c 2
 172 139 l 1
 115 -138 l 2
 102 -202 89 -245 75 -265 c 0
 66 -278 56 -285 42 -285 c 0
 12 -285 -3 -266 -3 -231 c 0
 -3 -213 3 -188 14 -155 c 2
 161 267 l 2
 164 274 170 278 179 278 c 0
 191 278 197 276 197 271 c 0
EndSplineSet
Substitution2: "smcpLowercasetoSmallCapitalslookup20 subtable" exclamdown_SC
Substitution2: "caseCaseSensitiveFormslookup17 subtable" exclamdown_CAS
Substitution2: "supsSuperscriptlookup16 subtable" exclamdown_SUP
Substitution2: "subsSubscriptlookup15 subtable" exclamdown_sub
Substitution2: "'smcp' Lowercase to Small Capitals lookup 20 subtable" exclamdown_SC
Substitution2: "'case' Case-Sensitive Forms lookup 17 subtable" exclamdown_CAS
Substitution2: "'sups' Superscript lookup 16 subtable" exclamdown_SUP
Substitution2: "'subs' Subscript lookup 15 subtable" exclamdown_sub
EndChar

StartChar: cent
Encoding: 162 162 100
Width: 363
VWidth: 1099
GlyphClass: 2
Flags: W
HStem: 33 70<236 286.203> 379 104<346.164 401.06>
VStem: 70 81<133.208 304.456> 154 37<-58.9971 -25.7917> 328 37<533.333 565.994> 342 79<390.376 442.219>
LayerCount: 2
Fore
SplineSet
421 419 m 0xf4
 421 408 417 398 409 390 c 0
 401 382 391 379 380 379 c 0
 355 379 342 392 342 420 c 0
 342 421 342 423 342 426 c 0
 342 430 342 430 342 432 c 0xf4
 342 438 339 441 334 443 c 1
 236 103 l 1
 241 103 l 2
 260 103 277 109 293 121 c 0
 312 135 324 142 328 143 c 1
 341 138 348 132 348 125 c 0
 348 124 347 121 345 118 c 0
 313 63 269 34 215 33 c 1
 191 -50 l 2
 189 -56 183 -59 172 -59 c 0
 159 -59 154 -55 154 -46 c 0
 154 -44 161 -16 177 38 c 1
 143 47 116 66 97 97 c 0
 79 125 70 158 70 195 c 0
 70 267 96 333 147 393 c 0
 195 450 249 480 307 484 c 1
 328 558 l 2
 330 564 336 566 346 566 c 0
 359 566 365 561 365 552 c 0xf8
 365 549 359 526 346 483 c 1
 396 475 421 453 421 419 c 0xf4
295 443 m 1
 261 436 229 413 201 372 c 0
 167 323 151 268 151 207 c 0
 151 160 167 128 199 112 c 1
 295 443 l 1
EndSplineSet
EndChar

StartChar: sterling
Encoding: 163 163 101
Width: 527
VWidth: 1099
GlyphClass: 2
Flags: W
HStem: -15 77<305.909 424.281> 148 98<369.048 441.617> 354 45<80.6163 181 263 383.707> 704 35<349.831 421.963>
VStem: 185 78<399 528> 440 86<595.518 693.086> 447 40<69.0849 141.184>
LayerCount: 2
Fore
SplineSet
526 642 m 0xfc
 526 608 512 591 484 591 c 0
 462 591 448 601 440 620 c 1xfc
 436 638 431 657 427 675 c 0
 422 694 411 704 394 704 c 0
 363 704 339 685 321 646 c 0
 296 590 276 507 263 399 c 1
 377 399 l 2
 382 399 384 394 384 384 c 0
 384 364 380 354 372 354 c 2
 254 354 l 1
 237 270 213 195 183 127 c 1
 206 121 l 2
 220 118 252 106 300 86 c 0
 339 70 370 62 395 62 c 0
 429 62 447 76 447 105 c 0
 447 125 436 139 415 148 c 0
 385 161 368 169 364 173 c 0
 355 182 351 190 351 198 c 0
 351 230 369 246 405 246 c 0
 431 246 453 232 468 204 c 0
 481 180 487 154 487 125 c 0xfa
 487 91 475 59 450 30 c 0
 424 0 393 -15 360 -15 c 0
 320 -15 284 -4 252 17 c 0
 222 38 191 60 161 82 c 1
 127 18 91 -15 56 -15 c 0
 45 -15 36 -11 29 -2 c 0
 22 7 18 18 18 29 c 0
 18 57 33 80 64 99 c 0
 89 115 117 124 148 127 c 1
 162 170 173 246 181 354 c 1
 88 354 l 2
 83 354 80 357 80 363 c 0
 80 387 84 399 92 399 c 2
 185 399 l 1
 192 498 206 571 225 618 c 0
 258 699 311 739 388 739 c 0
 420 739 449 731 477 715 c 0
 510 696 526 671 526 642 c 0xfc
EndSplineSet
Substitution2: "smcpLowercasetoSmallCapitalslookup20 subtable" sterling_SC
Substitution2: "supsSuperscriptlookup16 subtable" sterling_SUP
Substitution2: "subsSubscriptlookup15 subtable" sterling_sub
Substitution2: "'smcp' Lowercase to Small Capitals lookup 20 subtable" sterling_SC
Substitution2: "'sups' Superscript lookup 16 subtable" sterling_SUP
Substitution2: "'subs' Subscript lookup 15 subtable" sterling_sub
EndChar

StartChar: currency
Encoding: 164 164 102
Width: 743
VWidth: 1099
GlyphClass: 2
Flags: W
HStem: 4 67<289.232 453.624> 401 67<291.246 452.849>
VStem: 140 67<152.866 317.624> 537 67<155.246 316.48>
LayerCount: 2
Fore
SplineSet
632 27 m 1
 580 -25 l 1
 507 48 l 1
 466 19 421 4 372 4 c 0
 322 4 276 19 235 49 c 1
 162 -25 l 1
 111 26 l 1
 184 99 l 1
 154 139 140 185 140 236 c 0
 140 285 155 330 184 371 c 1
 111 444 l 1
 164 496 l 1
 236 424 l 1
 276 453 322 468 372 468 c 0
 423 468 469 453 509 423 c 1
 582 496 l 1
 632 446 l 1
 559 373 l 1
 589 332 604 286 604 236 c 0
 604 186 589 140 560 100 c 1
 632 27 l 1
537 236 m 256
 537 281 520 320 488 352 c 0
 456 384 417 401 372 401 c 256
 327 401 287 384 255 352 c 0
 223 320 207 281 207 236 c 256
 207 191 223 151 255 119 c 0
 287 87 327 71 372 71 c 256
 417 71 456 87 488 119 c 0
 520 151 537 191 537 236 c 256
EndSplineSet
EndChar

StartChar: yen
Encoding: 165 165 103
Width: 709
VWidth: 1099
GlyphClass: 2
Flags: W
HStem: -6 36<146.031 235.469 370.38 423.272> 190 44<132.466 288 385 541.368> 303 45<152.466 317 435 584.861> 692 36<96.8509 166.927 297.899 374.179 565.635 641 759.426 837>
LayerCount: 2
Fore
SplineSet
844 722 m 0
 844 718 843 710 840 701 c 0
 838 695 830 693 817 693 c 0
 783 693 745 671 703 627 c 2
 435 348 l 1
 583 348 l 2
 587 348 589 346 589 343 c 0
 589 336 587 328 582 319 c 0
 577 309 572 303 566 303 c 2
 402 303 l 1
 385 234 l 1
 538 234 l 2
 543 234 545 232 545 228 c 0
 545 222 543 214 538 205 c 0
 533 195 527 190 521 190 c 2
 373 190 l 1
 351 104 l 2
 347 88 345 77 345 70 c 0
 345 51 354 38 370 33 c 0
 378 30 393 29 417 29 c 0
 421 29 424 27 424 23 c 0
 424 3 419 -6 408 -6 c 0
 406 -6 392 -6 367 -4 c 0
 333 -1 304 0 281 0 c 0
 258 0 230 -1 194 -4 c 0
 168 -6 154 -6 152 -6 c 0
 147 -6 144 -4 144 0 c 0
 144 19 155 29 175 30 c 0
 204 33 225 39 238 50 c 0
 251 61 260 80 267 107 c 2
 288 190 l 1
 134 190 l 2
 129 190 127 191 127 195 c 0
 127 199 131 210 138 225 c 0
 141 231 145 234 151 234 c 2
 300 234 l 1
 317 303 l 1
 154 303 l 2
 149 303 147 305 147 308 c 0
 147 314 150 322 155 331 c 0
 160 342 165 348 171 348 c 2
 324 348 l 1
 212 613 l 2
 190 666 156 692 111 692 c 0
 101 692 96 694 96 699 c 0
 96 718 102 728 113 728 c 0
 115 728 129 727 153 725 c 0
 187 722 215 721 238 721 c 0
 261 721 290 722 326 725 c 0
 352 727 366 728 368 728 c 0
 373 728 375 726 375 722 c 0
 375 709 373 699 367 694 c 1
 354 693 341 692 327 690 c 0
 305 687 294 676 294 658 c 0
 294 650 297 641 302 627 c 2
 402 377 l 1
 618 607 l 2
 638 628 647 646 647 660 c 0
 647 681 623 692 574 692 c 0
 568 692 565 695 565 701 c 0
 565 719 571 728 583 728 c 0
 586 728 600 727 624 725 c 0
 658 722 686 721 708 721 c 0
 736 721 765 723 795 725 c 0
 825 727 839 728 837 728 c 1
 842 728 844 726 844 722 c 0
EndSplineSet
Substitution2: "smcpLowercasetoSmallCapitalslookup20 subtable" yen_SC
Substitution2: "supsSuperscriptlookup16 subtable" yen_SUP
Substitution2: "subsSubscriptlookup15 subtable" yen_sub
Substitution2: "'smcp' Lowercase to Small Capitals lookup 20 subtable" yen_SC
Substitution2: "'sups' Superscript lookup 16 subtable" yen_SUP
Substitution2: "'subs' Subscript lookup 15 subtable" yen_sub
EndChar

StartChar: brokenbar
Encoding: 166 166 104
Width: 547
VWidth: 1099
GlyphClass: 2
Flags: W
VStem: 277 56<-171 238 387 797>
LayerCount: 2
Fore
SplineSet
333 387 m 1
 277 387 l 1
 277 797 l 1
 333 797 l 1
 333 387 l 1
333 -171 m 1
 277 -171 l 1
 277 238 l 1
 333 238 l 1
 333 -171 l 1
EndSplineSet
Substitution2: "smcpLowercasetoSmallCapitalslookup20 subtable" brokenbar_SC
Substitution2: "caseCaseSensitiveFormslookup17 subtable" brokenbar_CAS
Substitution2: "supsSuperscriptlookup16 subtable" brokenbar_SUP
Substitution2: "subsSubscriptlookup15 subtable" brokenbar_sub
Substitution2: "'smcp' Lowercase to Small Capitals lookup 20 subtable" brokenbar_SC
Substitution2: "'case' Case-Sensitive Forms lookup 17 subtable" brokenbar_CAS
Substitution2: "'sups' Superscript lookup 16 subtable" brokenbar_SUP
Substitution2: "'subs' Subscript lookup 15 subtable" brokenbar_sub
EndChar

StartChar: section
Encoding: 167 167 105
Width: 411
VWidth: 1099
GlyphClass: 2
Flags: W
HStem: -86 47<131 230.468> 663 47<183.754 282.5>
VStem: 53 45<404.016 593.968> 139 39<534.526 642.797> 241 40<-17.8917 94.9351> 318 44<30.24 218.106>
LayerCount: 2
Fore
SplineSet
369 643 m 0
 369 632 365 622 357 614 c 0
 349 606 340 602 329 602 c 0
 315 602 297 612 275 632 c 0
 253 652 236 663 225 663 c 0
 194 663 178 647 178 614 c 0
 178 572 202 512 247 435 c 0
 303 340 335 280 343 256 c 0
 356 219 362 178 362 133 c 0
 362 68 342 15 301 -25 c 0
 260 -65 207 -86 142 -86 c 0
 120 -86 99 -80 78 -66 c 0
 55 -51 43 -33 43 -12 c 0
 43 0 47 10 55 19 c 0
 63 28 72 33 84 33 c 0
 104 33 123 21 141 -3 c 0
 159 -27 174 -39 189 -39 c 0
 224 -39 241 -15 241 30 c 0
 241 62 209 129 143 233 c 0
 106 291 83 337 71 371 c 0
 59 405 53 445 53 491 c 0
 53 556 73 609 114 649 c 0
 155 689 208 710 272 710 c 0
 293 710 314 704 334 692 c 0
 357 679 369 662 369 643 c 0
318 112 m 0
 318 160 302 215 271 276 c 1
 242 326 214 375 185 425 c 0
 154 480 139 524 139 558 c 0
 139 593 147 624 162 650 c 1
 119 610 98 564 98 512 c 0
 98 464 113 409 145 348 c 1
 174 298 204 248 234 198 c 0
 266 143 281 99 281 66 c 0
 281 34 274 6 261 -19 c 1
 299 22 318 66 318 112 c 0
EndSplineSet
Substitution2: "smcpLowercasetoSmallCapitalslookup20 subtable" section_SC
Substitution2: "supsSuperscriptlookup16 subtable" section_SUP
Substitution2: "subsSubscriptlookup15 subtable" section_sub
Substitution2: "'smcp' Lowercase to Small Capitals lookup 20 subtable" section_SC
Substitution2: "'sups' Superscript lookup 16 subtable" section_SUP
Substitution2: "'subs' Subscript lookup 15 subtable" section_sub
EndChar

StartChar: dieresis
Encoding: 168 168 106
Width: 521
VWidth: 1099
GlyphClass: 2
Flags: W
HStem: 642 122<86.564 175.217 346.783 435.436>
VStem: 69 121<660.564 745.436> 332 121<660.564 745.436>
LayerCount: 2
Fore
SplineSet
453 703 m 256
 453 686 448 672 436 660 c 0
 424 648 410 642 393 642 c 256
 376 642 362 648 350 660 c 0
 338 672 332 686 332 703 c 256
 332 720 338 734 350 746 c 0
 362 758 376 764 393 764 c 256
 410 764 424 758 436 746 c 0
 448 734 453 720 453 703 c 256
190 703 m 256
 190 686 184 672 172 660 c 0
 160 648 146 642 129 642 c 256
 112 642 98 648 86 660 c 0
 74 672 69 686 69 703 c 256
 69 720 74 734 86 746 c 0
 98 758 112 764 129 764 c 256
 146 764 160 758 172 746 c 0
 184 734 190 720 190 703 c 256
EndSplineSet
EndChar

StartChar: copyright
Encoding: 169 169 107
Width: 629
VWidth: 1099
GlyphClass: 2
Flags: W
HStem: -54 30<239.853 415.57> 48 35<260.543 372.396> 361 35<289.453 412.445> 474 29<241.264 412.736>
VStem: 48 30<137.853 313.57> 151 59<130.179 282.587> 438 42<287.797 340.37> 576 29<139.264 310.736>
LayerCount: 2
Fore
SplineSet
605 225 m 0
 605 147 578 81 524 27 c 0
 470 -27 405 -54 327 -54 c 256
 249 -54 183 -27 129 27 c 0
 75 81 48 147 48 225 c 256
 48 303 75 368 129 422 c 0
 183 476 249 503 327 503 c 0
 405 503 471 477 525 423 c 0
 579 369 605 303 605 225 c 0
576 225 m 256
 576 295 552 354 504 402 c 0
 456 450 397 474 327 474 c 256
 257 474 198 450 150 402 c 0
 102 354 78 295 78 225 c 0
 78 155 102 96 150 48 c 0
 198 0 257 -24 327 -24 c 0
 397 -24 456 0 504 48 c 0
 552 96 576 155 576 225 c 256
480 337 m 0
 480 321 476 304 469 287 c 0
 466 281 461 278 453 278 c 2
 451 278 l 2
 441 278 436 282 436 290 c 0
 436 292 436 294 437 297 c 0
 438 300 438 302 438 304 c 0
 438 316 432 327 420 338 c 0
 404 353 383 361 356 361 c 0
 315 361 280 345 252 312 c 0
 224 279 210 242 210 200 c 0
 210 165 221 137 242 115 c 0
 263 93 291 83 325 83 c 0
 349 83 371 94 390 118 c 0
 394 123 400 130 407 141 c 0
 410 145 413 148 418 148 c 0
 431 148 437 143 437 132 c 0
 437 123 431 105 420 80 c 0
 417 74 413 70 408 67 c 0
 384 54 353 48 315 48 c 0
 267 48 228 64 197 97 c 0
 166 130 151 170 151 219 c 0
 151 267 171 308 209 343 c 0
 247 378 295 396 352 396 c 0
 404 396 445 379 475 346 c 0
 478 343 480 341 480 337 c 0
EndSplineSet
EndChar

StartChar: ordfeminine
Encoding: 170 170 108
Width: 351
VWidth: 1099
GlyphClass: 2
Flags: W
HStem: 260 55<98.0026 162.998 272 309.294> 501 46<220.446 309.5>
VStem: 54 58<296.5 384.907> 235 63<280.228 356.09> 323 59<547.007 576.264>
LayerCount: 2
Fore
SplineSet
386 358 m 0
 386 356 385 354 382 351 c 0
 337 291 300 260 268 260 c 0
 246 260 235 274 235 299 c 0
 235 314 239 333 247 357 c 1
 191 293 141 260 96 260 c 0
 84 260 74 265 66 273 c 0
 58 281 54 291 54 302 c 0
 54 358 82 412 139 466 c 0
 196 520 251 547 307 547 c 0
 312 547 318 547 323 546 c 1
 331 567 340 577 349 577 c 0
 371 577 382 572 382 563 c 0
 382 561 382 560 381 558 c 0
 365 519 348 479 332 440 c 0
 309 383 298 344 298 325 c 0
 298 320 299 317 302 317 c 0
 311 317 323 326 340 346 c 0
 357 366 367 376 370 376 c 0
 373 376 376 373 380 369 c 0
 384 365 386 361 386 358 c 0
294 490 m 0
 294 497 286 501 271 501 c 0
 240 501 205 482 168 443 c 0
 131 404 112 368 112 335 c 0
 112 322 119 315 133 315 c 0
 153 315 185 340 229 389 c 0
 272 437 294 471 294 490 c 0
EndSplineSet
EndChar

StartChar: guillemotleft
Encoding: 171 171 109
Width: 475
VWidth: 1099
GlyphClass: 2
Flags: W
LayerCount: 2
Fore
SplineSet
435 394 m 256
 435 392 434 390 432 388 c 2
 295 241 l 1
 345 130 371 74 371 73 c 0
 371 72 368 68 363 64 c 0
 358 60 354 59 353 59 c 2
 350 60 l 1
 213 233 l 2
 210 237 209 240 209 245 c 0
 209 251 213 258 222 265 c 2
 412 410 l 2
 414 411 416 412 418 412 c 0
 420 412 423 410 428 405 c 0
 433 400 435 396 435 394 c 256
284 394 m 256
 284 392 283 390 281 388 c 2
 144 241 l 1
 194 130 219 74 219 73 c 0
 219 72 217 68 212 64 c 0
 207 60 203 59 202 59 c 2
 199 60 l 1
 62 233 l 2
 59 237 57 240 57 245 c 0
 57 251 62 258 71 265 c 2
 261 410 l 2
 263 411 264 412 266 412 c 0
 268 412 272 410 277 405 c 0
 282 400 284 396 284 394 c 256
EndSplineSet
Substitution2: "smcpLowercasetoSmallCapitalslookup20 subtable" guillemotleft_SC
Substitution2: "caseCaseSensitiveFormslookup17 subtable" guillemotleft_CAS
Substitution2: "supsSuperscriptlookup16 subtable" guillemotleft_SUP
Substitution2: "subsSubscriptlookup15 subtable" guillemotleft_sub
Substitution2: "'smcp' Lowercase to Small Capitals lookup 20 subtable" guillemotleft_SC
Substitution2: "'case' Case-Sensitive Forms lookup 17 subtable" guillemotleft_CAS
Substitution2: "'sups' Superscript lookup 16 subtable" guillemotleft_SUP
Substitution2: "'subs' Subscript lookup 15 subtable" guillemotleft_sub
EndChar

StartChar: logicalnot
Encoding: 172 172 110
Width: 593
VWidth: 1099
GlyphClass: 2
Flags: W
HStem: 212 68<54 424>
VStem: 424 68<0 212>
LayerCount: 2
Fore
SplineSet
492 14 m 2
 492 5 487 0 478 0 c 2
 438 0 l 2
 429 0 424 5 424 14 c 2
 424 212 l 1
 68 212 l 2
 59 212 54 217 54 226 c 2
 54 266 l 2
 54 275 59 280 68 280 c 2
 478 280 l 2
 487 280 492 275 492 266 c 2
 492 14 l 2
EndSplineSet
EndChar

StartChar: uni00AD
Encoding: 173 173 111
Width: 224
VWidth: 1099
GlyphClass: 2
Flags: W
HStem: 212 68<32 214>
VStem: 32 182<212 280>
LayerCount: 2
Fore
SplineSet
214 226 m 2
 214 217 209 212 200 212 c 2
 46 212 l 2
 37 212 32 217 32 226 c 2
 32 266 l 2
 32 275 37 280 46 280 c 2
 200 280 l 2
 209 280 214 275 214 266 c 2
 214 226 l 2
EndSplineSet
EndChar

StartChar: registered
Encoding: 174 174 112
Width: 626
VWidth: 1099
GlyphClass: 2
Flags: W
HStem: 198 30<247.853 423.751> 309 32<170.188 217.081 273.006 307.703 449.19 484.821> 468 35<312 338.775> 614 40<335.083 404.733> 726 29<249.264 420.736>
VStem: 56 30<389.237 564.966> 411 60<522.087 610.133> 584 29<390.433 562.108>
LayerCount: 2
Fore
SplineSet
613 476 m 0
 613 398 587 333 533 279 c 0
 479 225 413 198 335 198 c 256
 257 198 191 225 137 279 c 0
 83 333 56 398 56 476 c 256
 56 554 83 620 137 674 c 0
 191 728 257 755 335 755 c 0
 413 755 479 729 533 675 c 0
 587 621 613 554 613 476 c 0
584 476 m 256
 584 546 560 606 512 654 c 0
 464 702 405 726 335 726 c 256
 265 726 206 702 158 654 c 0
 110 606 86 546 86 476 c 0
 86 406 110 348 158 300 c 0
 206 252 265 228 335 228 c 0
 405 228 464 251 512 299 c 0
 560 347 584 406 584 476 c 256
485 329 m 0
 485 315 480 309 470 309 c 0
 467 309 463 309 457 309 c 0
 451 309 447 310 444 310 c 0
 441 310 437 309 432 309 c 0
 427 309 424 309 421 309 c 0
 407 309 396 317 389 333 c 2
 343 443 l 2
 336 460 322 468 302 468 c 1
 274 359 l 2
 273 356 273 353 273 350 c 0
 273 344 281 341 297 341 c 0
 304 341 308 337 308 330 c 0
 308 316 303 309 293 309 c 1
 293 309 287 309 275 310 c 0
 263 311 250 312 238 312 c 0
 232 312 222 311 209 310 c 0
 196 309 188 309 182 309 c 0
 174 309 170 313 170 321 c 0
 170 334 175 341 187 341 c 1
 184 341 186 341 193 341 c 0
 208 341 219 353 225 378 c 2
 280 591 l 2
 282 598 283 603 283 607 c 0
 283 612 278 614 269 614 c 0
 259 614 255 614 258 614 c 2
 256 614 l 2
 247 614 243 619 243 626 c 256
 243 633 245 638 249 643 c 0
 252 645 268 647 300 650 c 0
 327 652 346 654 357 654 c 0
 385 654 410 647 431 636 c 0
 458 621 471 601 471 573 c 0
 471 548 460 525 437 506 c 0
 418 490 400 481 382 478 c 1
 392 467 403 444 417 408 c 0
 430 374 441 354 449 348 c 0
 453 345 461 342 476 339 c 0
 482 338 485 335 485 329 c 0
411 568 m 0
 411 602 390 619 348 619 c 0
 343 619 340 617 339 612 c 2
 312 503 l 1
 379 504 411 526 411 568 c 0
EndSplineSet
EndChar

StartChar: macron
Encoding: 175 175 113
Width: 521
VWidth: 1099
GlyphClass: 2
Flags: W
HStem: 746 63<52 471>
LayerCount: 2
Fore
SplineSet
471 746 m 1
 52 746 l 1
 52 809 l 1
 471 809 l 1
 471 746 l 1
EndSplineSet
EndChar

StartChar: degree
Encoding: 176 176 114
Width: 527
VWidth: 1099
GlyphClass: 2
Flags: W
HStem: 386 62<262.905 401.429> 685 63<261.268 401.679>
VStem: 150 63<498.078 635.971> 451 62<498.172 635.39>
LayerCount: 2
Fore
SplineSet
513 567 m 0
 513 516 495 473 460 438 c 0
 425 403 382 386 331 386 c 256
 280 386 238 403 203 438 c 0
 168 473 150 516 150 567 c 256
 150 618 168 661 203 696 c 0
 238 731 280 748 331 748 c 0
 382 748 426 731 461 696 c 0
 496 661 513 618 513 567 c 0
451 567 m 256
 451 601 439 628 416 651 c 0
 393 674 365 685 331 685 c 256
 297 685 270 674 247 651 c 0
 224 628 213 601 213 567 c 0
 213 534 224 506 247 483 c 0
 270 460 298 448 331 448 c 0
 365 448 393 459 416 482 c 0
 439 505 451 533 451 567 c 256
EndSplineSet
EndChar

StartChar: plusminus
Encoding: 177 177 115
Width: 593
VWidth: 1099
GlyphClass: 2
Flags: W
HStem: -137 68<54 546> 212 68<54 266 334 546>
VStem: 266 68<0 212 280 492>
LayerCount: 2
Fore
SplineSet
546 226 m 2
 546 217 541 212 532 212 c 2
 334 212 l 1
 334 14 l 2
 334 5 329 0 320 0 c 2
 280 0 l 2
 271 0 266 5 266 14 c 2
 266 212 l 1
 68 212 l 2
 59 212 54 217 54 226 c 2
 54 266 l 2
 54 275 59 280 68 280 c 2
 266 280 l 1
 266 478 l 2
 266 487 271 492 280 492 c 2
 320 492 l 2
 329 492 334 487 334 478 c 2
 334 280 l 1
 532 280 l 2
 541 280 546 275 546 266 c 2
 546 226 l 2
546 -123 m 2
 546 -132 541 -137 532 -137 c 2
 68 -137 l 2
 59 -137 54 -132 54 -123 c 2
 54 -83 l 2
 54 -74 59 -69 68 -69 c 2
 532 -69 l 2
 541 -69 546 -74 546 -83 c 2
 546 -123 l 2
EndSplineSet
EndChar

StartChar: acute
Encoding: 180 180 118
Width: 521
VWidth: 1099
GlyphClass: 2
Flags: W
HStem: 560 244
VStem: 170 182
LayerCount: 2
Fore
SplineSet
352 771 m 0
 352 765 350 759 345 753 c 2
 188 563 l 2
 186 561 183 560 180 560 c 0
 173 560 170 563 170 571 c 0
 170 574 171 578 172 581 c 2
 271 779 l 2
 279 795 291 804 308 804 c 0
 318 804 328 800 337 795 c 0
 347 789 352 781 352 771 c 0
EndSplineSet
EndChar

StartChar: paragraph
Encoding: 182 182 120
Width: 609
VWidth: 1099
GlyphClass: 2
Flags: W
HStem: -105 42<217.272 344.63> 10 141<202.196 260.985> 623 52<338.073 432 486 627.581> 642 33<552.34 629>
VStem: 81 245<355.965 563.42> 98 104<-37.6611 53.5> 432 54<96.792 254 281 623 675 770>
LayerCount: 2
Fore
SplineSet
653 675 m 1xda
 629 642 l 1xda
 599 629 552 623 486 623 c 1
 486 316 l 2
 486 193 477 106 459 55 c 0
 443 8 417 -30 384 -58 c 0
 347 -89 305 -105 258 -105 c 0
 214 -105 178 -92 147 -67 c 0
 114 -40 98 -5 98 38 c 0
 98 69 108 95 128 117 c 0
 148 139 175 151 205 151 c 0
 226 151 244 144 261 129 c 0
 278 114 286 97 286 76 c 0
 286 58 281 42 271 30 c 0
 260 17 246 10 228 10 c 0
 210 10 202 3 202 -11 c 0xe6
 202 -27 211 -40 228 -50 c 0
 243 -59 259 -63 277 -63 c 0
 343 -63 389 -20 415 66 c 0
 425 98 430 161 431 254 c 1
 372 246 330 242 306 242 c 0
 240 242 187 261 145 299 c 0
 102 338 81 390 81 455 c 0
 81 544 114 608 182 646 c 0
 217 666 288 675 394 675 c 2
 432 675 l 1
 432 770 l 1
 486 782 l 1
 486 675 l 1xea
 653 675 l 1xda
432 281 m 1
 432 623 l 1
 339 623 l 1xea
 330 559 326 505 326 462 c 0
 326 443 329 392 336 311 c 1
 371 295 403 285 432 281 c 1
EndSplineSet
Substitution2: "smcpLowercasetoSmallCapitalslookup20 subtable" paragraph_SC
Substitution2: "supsSuperscriptlookup16 subtable" paragraph_SUP
Substitution2: "subsSubscriptlookup15 subtable" paragraph_sub
Substitution2: "'smcp' Lowercase to Small Capitals lookup 20 subtable" paragraph_SC
Substitution2: "'sups' Superscript lookup 16 subtable" paragraph_SUP
Substitution2: "'subs' Subscript lookup 15 subtable" paragraph_sub
EndChar

StartChar: periodcentered
Encoding: 183 183 121
Width: 263
VWidth: 1099
GlyphClass: 2
Flags: W
HStem: 292 138<139.565 228.436>
VStem: 121 126<312.612 409.342>
LayerCount: 2
Fore
SplineSet
247 362 m 256
 247 343 240 327 229 314 c 0
 217 300 203 292 184 292 c 0
 166 292 151 299 139 312 c 0
 127 325 121 341 121 360 c 0
 121 379 126 396 138 410 c 0
 150 424 165 430 184 430 c 256
 203 430 217 423 229 410 c 0
 241 397 247 381 247 362 c 256
EndSplineSet
EndChar

StartChar: cedilla
Encoding: 184 184 122
Width: 521
VWidth: 1099
GlyphClass: 2
Flags: W
HStem: -221 34<163.971 256.389> -26 20G<249.857 295>
VStem: 262 61<-182.457 -114.521>
LayerCount: 2
Fore
SplineSet
323 -128 m 0
 323 -156 310 -179 284 -197 c 0
 261 -213 234 -221 205 -221 c 0
 155 -221 131 -209 131 -185 c 0
 131 -172 137 -166 149 -166 c 0
 154 -166 165 -170 180 -177 c 0
 195 -184 208 -187 218 -187 c 0
 247 -187 262 -174 262 -147 c 0
 262 -123 248 -111 219 -111 c 0
 212 -111 204 -112 197 -113 c 1
 188 -105 182 -98 179 -90 c 1
 272 -6 l 1
 295 -12 l 1
 256 -62 l 1
 301 -70 323 -91 323 -128 c 0
EndSplineSet
EndChar

StartChar: ordmasculine
Encoding: 186 186 124
Width: 351
VWidth: 1099
GlyphClass: 2
Flags: W
HStem: 260 35<163.057 240.863> 540 34<219.196 297.384>
VStem: 82 66<312.306 455.961> 313 65<379.761 524.045>
LayerCount: 2
Fore
SplineSet
378 459 m 0
 378 406 360 360 325 320 c 0
 290 280 249 260 202 260 c 0
 166 260 137 271 115 294 c 0
 93 316 82 344 82 377 c 0
 82 426 99 471 132 510 c 0
 168 553 212 574 265 574 c 0
 300 574 328 563 349 540 c 0
 369 519 378 491 378 459 c 0
313 475 m 0
 313 492 309 507 301 519 c 0
 291 533 277 540 260 540 c 0
 234 540 209 521 185 484 c 0
 160 445 148 405 148 362 c 0
 148 345 152 330 160 317 c 0
 169 302 182 295 199 295 c 0
 225 295 251 314 276 352 c 0
 301 390 313 431 313 475 c 0
EndSplineSet
EndChar

StartChar: guillemotright
Encoding: 187 187 125
Width: 475
VWidth: 1099
GlyphClass: 2
Flags: W
LayerCount: 2
Fore
SplineSet
429 227 m 0
 429 221 424 214 415 207 c 2
 225 62 l 2
 223 61 222 60 220 60 c 0
 218 60 214 62 209 67 c 0
 204 72 202 75 202 77 c 256
 202 79 204 81 206 83 c 2
 342 231 l 1
 292 342 267 398 267 399 c 0
 267 400 269 403 274 407 c 0
 279 411 283 413 284 413 c 2
 287 411 l 1
 424 238 l 2
 427 234 429 231 429 227 c 0
277 227 m 0
 277 221 273 214 264 207 c 2
 74 62 l 2
 72 61 70 60 68 60 c 0
 66 60 63 62 58 67 c 0
 53 72 51 75 51 77 c 256
 51 79 52 81 54 83 c 2
 191 231 l 1
 141 342 115 398 115 399 c 0
 115 400 118 403 123 407 c 0
 128 411 132 413 133 413 c 2
 136 411 l 1
 273 238 l 2
 276 234 277 231 277 227 c 0
EndSplineSet
Substitution2: "smcpLowercasetoSmallCapitalslookup20 subtable" guillemotright_SC
Substitution2: "caseCaseSensitiveFormslookup17 subtable" guillemotright_CAS
Substitution2: "supsSuperscriptlookup16 subtable" guillemotright_SUP
Substitution2: "subsSubscriptlookup15 subtable" guillemotright_sub
Substitution2: "'smcp' Lowercase to Small Capitals lookup 20 subtable" guillemotright_SC
Substitution2: "'case' Case-Sensitive Forms lookup 17 subtable" guillemotright_CAS
Substitution2: "'sups' Superscript lookup 16 subtable" guillemotright_SUP
Substitution2: "'subs' Subscript lookup 15 subtable" guillemotright_sub
EndChar

StartChar: questiondown
Encoding: 191 191 129
Width: 385
VWidth: 1099
GlyphClass: 2
Flags: W
HStem: -285 81<83.5043 214.703> 194 83<143.18 234.154> 335 131<226.519 311.482>
VStem: -1 54<-186.936 -85.7249> 209 119<353.565 445.388> 255 58<77.1057 180.907>
LayerCount: 2
Fore
SplineSet
328 403 m 0xf8
 328 384 322 369 311 356 c 0
 300 342 284 335 266 335 c 0
 249 335 235 341 225 353 c 0
 215 365 209 380 209 398 c 0
 209 416 215 433 226 446 c 0
 237 459 252 466 270 466 c 0
 287 466 301 459 312 447 c 0
 323 435 328 420 328 403 c 0xf8
313 104 m 0xf4
 313 93 312 83 310 76 c 0
 298 30 273 -2 233 -21 c 1
 180 -37 180 -38 127 -54 c 0
 88 -67 64 -89 55 -121 c 0
 53 -127 53 -135 53 -141 c 0
 53 -161 60 -176 75 -188 c 0
 89 -199 105 -204 125 -204 c 0
 129 -204 130 -204 139 -204 c 0
 145 -204 148 -204 151 -204 c 0
 196 -204 219 -216 219 -242 c 0
 219 -270 204 -285 172 -285 c 0
 121 -285 79 -268 47 -235 c 0
 15 -202 -1 -160 -1 -108 c 0
 -1 -46 22 -4 66 19 c 1
 107 31 148 43 189 54 c 0
 233 67 255 91 255 128 c 0
 255 172 233 194 188 194 c 0
 153 194 135 205 135 227 c 0
 135 239 139 251 147 261 c 0
 155 271 166 277 178 277 c 0
 212 277 243 256 272 214 c 0
 299 176 313 139 313 104 c 0xf4
EndSplineSet
Substitution2: "smcpLowercasetoSmallCapitalslookup20 subtable" questiondown_SC
Substitution2: "caseCaseSensitiveFormslookup17 subtable" questiondown_CAS
Substitution2: "supsSuperscriptlookup16 subtable" questiondown_SUP
Substitution2: "subsSubscriptlookup15 subtable" questiondown_sub
Substitution2: "'smcp' Lowercase to Small Capitals lookup 20 subtable" questiondown_SC
Substitution2: "'case' Case-Sensitive Forms lookup 17 subtable" questiondown_CAS
Substitution2: "'sups' Superscript lookup 16 subtable" questiondown_SUP
Substitution2: "'subs' Subscript lookup 15 subtable" questiondown_sub
EndChar

StartChar: AE
Encoding: 198 198 136
Width: 994
VWidth: 1099
GlyphClass: 2
Flags: W
HStem: -6 35<-43.9033 25.75 133.775 192.319 379.531 452.619> -3 47<577.524 858.618> 282 42<348 531> 358 43<648 804.638> 680 41<730.287 930.644> 691 37<526.973 586.993>
VStem: 801 35<295.003 332.812> 805 73<331 462.5>
LayerCount: 2
Fore
SplineSet
1004 716 m 0x39
 1004 711 996 668 978 588 c 0
 977 582 971 579 963 579 c 2
 956 579 l 2
 952 579 950 583 950 591 c 0
 949 622 943 644 933 657 c 0
 921 672 900 680 869 680 c 2
 768 680 l 2
 750 680 736 677 730 672 c 0
 724 667 718 656 713 638 c 2
 648 401 l 1
 775 401 l 2
 799 401 818 411 833 433 c 0
 848 455 856 466 858 466 c 2
 872 466 l 2
 876 466 878 464 878 461 c 256x39
 878 458 874 445 867 423 c 0
 858 397 853 384 853 382 c 0
 849 365 844 339 836 305 c 0
 834 299 828 295 819 295 c 0
 807 295 801 297 801 302 c 0x3a
 801 306 802 311 803 318 c 0
 804 325 805 329 805 333 c 0
 805 350 794 358 773 358 c 2
 636 358 l 1
 574 128 l 2
 571 116 569 106 569 96 c 0
 569 61 591 44 635 44 c 2
 699 44 l 2
 772 44 823 50 849 61 c 0
 865 68 880 80 893 96 c 0
 904 111 915 126 926 141 c 0
 930 146 933 148 937 148 c 0
 940 148 945 146 951 143 c 0
 957 140 960 137 960 135 c 0
 960 134 943 95 909 18 c 0
 904 8 901 2 899 0 c 0
 895 -4 889 -5 879 -5 c 0
 841 -5 785 -5 709 -3 c 0
 633 -1 577 0 539 0 c 0
 522 0 496 -1 462 -3 c 0x79
 428 -5 402 -6 385 -6 c 0xb1
 380 -6 378 -4 378 0 c 0
 378 18 386 28 404 30 c 0
 429 33 445 37 453 44 c 0x71
 463 53 472 71 479 95 c 2
 531 282 l 1
 309 282 l 1
 162 114 l 2
 141 90 131 71 131 57 c 0
 131 38 149 29 186 29 c 0
 191 29 193 26 193 21 c 0
 193 2 187 -6 174 -6 c 0xb1
 162 -6 145 -5 121 -3 c 0x71
 97 -1 80 0 68 0 c 0
 48 0 23 -1 -6 -4 c 0
 -27 -6 -38 -6 -41 -6 c 0
 -46 -6 -48 -4 -48 0 c 0
 -48 6 -47 12 -44 20 c 0
 -42 26 -36 29 -26 29 c 0
 7 29 43 51 82 95 c 2
 560 627 l 2
 578 647 587 663 587 674 c 0
 587 684 577 689 557 691 c 0
 537 693 526 695 526 698 c 0
 526 718 533 728 544 728 c 0xb5
 565 728 597 727 640 725 c 0
 683 723 715 721 736 721 c 0
 764 721 806 722 862 724 c 0
 918 726 958 727 986 727 c 0
 998 727 1004 723 1004 716 c 0x39
631 645 m 1
 348 324 l 1
 542 324 l 1
 631 645 l 1
EndSplineSet
Substitution2: "Single Substitution lookup 105 subtable" AE_swash1
Substitution2: "Single Substitution lookup 103 subtable" AE_swash
Substitution2: "c2scCapitalstoSmallCapitalslookup21 subtable" AE_SC
Substitution2: "supsSuperscriptlookup16 subtable" AE_SUP
Substitution2: "subsSubscriptlookup15 subtable" AE_sub
Ligature2: "dligDiscretionaryLigaturesinLatinlookup14 subtable" A e
Ligature2: "dligDiscretionaryLigaturesinLatinlookup14 subtable" A E
Substitution2: "Single Substitution lookup 56 subtable" AE_swash1
Substitution2: "Single Substitution lookup 55 subtable" AE_swash
Substitution2: "'c2sc' Capitals to Small Capitals lookup 21 subtable" AE_SC
Substitution2: "'sups' Superscript lookup 16 subtable" AE_SUP
Substitution2: "'subs' Subscript lookup 15 subtable" AE_sub
Ligature2: "'dlig' Discretionary Ligatures in Latin lookup 14 subtable" A E
Ligature2: "'dlig' Discretionary Ligatures in Latin lookup 14 subtable" A e
EndChar

StartChar: Ccedilla
Encoding: 199 199 137
Width: 733
VWidth: 1099
GlyphClass: 2
Flags: W
HStem: -221 34<324.971 417.389> -15 43<343.371 424 455 539.904> 693 43<413.267 634.735>
VStem: 84 96<216.795 442.535> 423 61<-182.457 -114.521> 732 58<516.154 621.5>
LayerCount: 2
Fore
SplineSet
790 620 m 0
 790 617 787 600 780 568 c 0
 773 536 769 519 768 516 c 0
 765 509 758 506 749 506 c 0
 735 506 729 509 729 514 c 0
 729 518 729 523 730 530 c 0
 731 537 732 542 732 546 c 0
 732 578 717 609 687 637 c 0
 647 675 594 693 528 693 c 0
 431 693 348 653 279 574 c 0
 213 498 180 411 180 312 c 0
 180 229 207 160 258 107 c 0
 309 54 376 28 459 28 c 0
 498 28 536 42 574 69 c 0
 599 87 627 120 660 169 c 0
 663 173 666 175 670 175 c 0
 673 175 678 172 685 168 c 0
 692 164 695 160 695 157 c 0
 695 154 689 136 678 104 c 0
 667 72 660 53 657 48 c 0
 652 38 646 30 638 26 c 0
 591 1 531 -13 455 -15 c 1
 417 -62 l 1
 462 -70 484 -91 484 -128 c 0
 484 -156 471 -179 445 -197 c 0
 422 -213 395 -221 366 -221 c 0
 316 -221 292 -209 292 -185 c 0
 292 -172 298 -166 310 -166 c 0
 315 -166 326 -170 341 -177 c 0
 356 -184 369 -187 379 -187 c 0
 408 -187 423 -174 423 -147 c 0
 423 -123 409 -111 380 -111 c 0
 373 -111 365 -112 358 -113 c 1
 349 -105 344 -98 341 -90 c 1
 424 -15 l 1
 323 -11 241 26 178 95 c 0
 115 164 84 251 84 353 c 0
 84 457 124 546 206 620 c 0
 291 697 395 736 519 736 c 0
 631 736 720 701 786 630 c 0
 789 627 790 623 790 620 c 0
EndSplineSet
EndChar

StartChar: Eth
Encoding: 208 208 146
Width: 791
VWidth: 1099
GlyphClass: 2
Flags: W
HStem: -6 36<-7.29688 75.4785 212.209 399.719> 359 47<82.5171 170 267 394.711> 694 43<276.769 534.178>
VStem: 697 97<289.663 546.04>
LayerCount: 2
Fore
SplineSet
794 422 m 0
 794 307 753 208 670 123 c 0
 583 35 482 -9 368 -9 c 0
 340 -9 299 -8 244 -5 c 0
 189 -2 148 0 120 0 c 0
 106 0 86 -1 59 -3 c 0
 32 -5 12 -6 -2 -6 c 0
 -7 -6 -9 -4 -9 0 c 0
 -9 19 0 29 19 30 c 0
 46 32 65 38 76 48 c 0
 88 59 99 82 107 114 c 2
 170 359 l 1
 85 359 l 2
 81 359 79 361 79 365 c 0
 79 372 81 380 84 389 c 0
 88 400 92 406 98 406 c 2
 182 406 l 1
 234 609 l 2
 239 627 241 642 241 652 c 0
 241 677 228 689 201 689 c 0
 196 689 188 689 178 687 c 0
 168 685 161 684 156 684 c 0
 153 684 151 687 151 691 c 0
 151 701 155 710 161 719 c 0
 170 731 258 737 423 737 c 0
 534 737 622 712 686 664 c 0
 758 610 794 529 794 422 c 0
697 428 m 0
 697 606 592 694 383 694 c 0
 355 694 337 680 330 652 c 2
 267 406 l 1
 389 406 l 2
 394 406 396 403 396 399 c 0
 396 372 390 359 377 359 c 2
 255 359 l 1
 199 143 l 2
 194 123 192 107 192 92 c 0
 192 68 200 52 218 44 c 0
 230 38 250 35 276 35 c 0
 289 35 300 36 310 36 c 0
 425 40 519 78 590 149 c 0
 661 220 697 313 697 428 c 0
EndSplineSet
Substitution2: "c2scCapitalstoSmallCapitalslookup21 subtable" Eth_SC
Substitution2: "swshSwashinLatinlookup18 subtable" Eth_swash
Substitution2: "supsSuperscriptlookup16 subtable" Eth_SUP
Substitution2: "subsSubscriptlookup15 subtable" Eth_sub
Substitution2: "'c2sc' Capitals to Small Capitals lookup 21 subtable" Eth_SC
Substitution2: "'swsh' Swash in Latin lookup 18 subtable" Eth_swash
Substitution2: "'sups' Superscript lookup 16 subtable" Eth_SUP
Substitution2: "'subs' Subscript lookup 15 subtable" Eth_sub
EndChar

StartChar: multiply
Encoding: 215 215 153
Width: 593
VWidth: 1099
GlyphClass: 2
Flags: W
LayerCount: 2
Fore
SplineSet
530 58 m 256
 530 54 529 51 526 48 c 2
 497 20 l 2
 494 17 492 16 488 16 c 256
 484 16 481 17 478 20 c 2
 300 198 l 1
 121 20 l 2
 118 17 116 16 112 16 c 256
 108 16 105 17 102 20 c 2
 74 48 l 2
 71 51 69 54 69 58 c 256
 69 62 71 65 74 68 c 2
 252 246 l 1
 74 424 l 2
 71 427 69 430 69 434 c 256
 69 438 80 450 102 472 c 0
 105 475 108 476 112 476 c 256
 116 476 118 475 121 472 c 2
 300 294 l 1
 478 472 l 2
 481 475 484 476 488 476 c 256
 492 476 494 475 497 472 c 0
 519 450 530 438 530 434 c 256
 530 430 529 427 526 424 c 2
 348 246 l 1
 526 68 l 2
 529 65 530 62 530 58 c 256
EndSplineSet
Substitution2: "smcpLowercasetoSmallCapitalslookup20 subtable" multiply_SC
Substitution2: "caseCaseSensitiveFormslookup17 subtable" multiply_CAS
Substitution2: "supsSuperscriptlookup16 subtable" multiply_SUP
Substitution2: "subsSubscriptlookup15 subtable" multiply_sub
Substitution2: "'smcp' Lowercase to Small Capitals lookup 20 subtable" multiply_SC
Substitution2: "'case' Case-Sensitive Forms lookup 17 subtable" multiply_CAS
Substitution2: "'sups' Superscript lookup 16 subtable" multiply_SUP
Substitution2: "'subs' Subscript lookup 15 subtable" multiply_sub
EndChar

StartChar: Oslash
Encoding: 216 216 154
Width: 808
VWidth: 1099
GlyphClass: 2
Flags: W
HStem: -15 43<306.442 499.212> 693 43<383.687 576.983>
VStem: 78 98<202.279 449.171> 707 98<271.5 517.817>
LayerCount: 2
Fore
SplineSet
861 736 m 0
 861 733 860 731 858 729 c 2
 735 611 l 1
 782 547 805 471 805 382 c 0
 805 274 765 181 684 103 c 0
 603 25 509 -15 401 -15 c 0
 311 -15 237 16 178 75 c 1
 88 -13 l 2
 83 -18 75 -20 66 -20 c 0
 38 -20 24 -18 24 -14 c 0
 24 -12 30 -6 42 6 c 2
 148 109 l 1
 101 173 78 249 78 338 c 0
 78 446 118 540 199 619 c 0
 279 697 374 736 482 736 c 0
 572 736 646 706 705 646 c 1
 797 734 l 2
 803 740 809 743 817 742 c 0
 846 739 861 737 861 736 c 0
657 599 m 1
 616 662 558 693 484 693 c 0
 399 693 326 653 264 573 c 0
 205 497 176 408 176 307 c 0
 176 255 185 207 204 163 c 1
 657 599 l 1
707 414 m 0
 707 466 698 513 679 557 c 1
 227 121 l 1
 268 59 326 28 399 28 c 0
 484 28 557 68 619 148 c 0
 678 224 707 313 707 414 c 0
EndSplineSet
Substitution2: "c2scCapitalstoSmallCapitalslookup21 subtable" Oslash_SC
Substitution2: "swshSwashinLatinlookup18 subtable" Oslash_swash
Substitution2: "supsSuperscriptlookup16 subtable" Oslash_SUP
Substitution2: "subsSubscriptlookup15 subtable" Oslash_sub
Substitution2: "'c2sc' Capitals to Small Capitals lookup 21 subtable" Oslash_SC
Substitution2: "'swsh' Swash in Latin lookup 18 subtable" Oslash_swash
Substitution2: "'sups' Superscript lookup 16 subtable" Oslash_SUP
Substitution2: "'subs' Subscript lookup 15 subtable" Oslash_sub
EndChar

StartChar: Thorn
Encoding: 222 222 160
Width: 578
VWidth: 1099
GlyphClass: 2
Flags: W
HStem: -6 35<3.96411 57.3445 183.233 267.233> 158 51<261.98 342.106> 158 36<269.398 402.302> 534 43<306.208 418.489> 692 36<148.75 207.572 344.426 412>
VStem: 485 98<286.303 465.102>
LayerCount: 2
Fore
SplineSet
583 376 m 0xbc
 583 317 562 266 519 223 c 0
 476 180 426 158 367 158 c 0xbc
 350 158 331 160 308 164 c 0
 276 169 260 176 260 185 c 0
 260 201 264 209 272 209 c 0xdc
 273 209 274 209 275 208 c 0
 301 199 324 194 343 194 c 0
 386 194 420 216 448 259 c 0
 472 297 485 338 485 383 c 256
 485 428 472 465 445 493 c 0
 418 521 382 534 337 534 c 0
 319 534 307 532 301 527 c 0
 295 522 289 510 284 492 c 2
 180 89 l 2
 178 81 177 73 177 65 c 0
 177 48 188 37 209 32 c 0
 218 30 234 29 260 29 c 0
 265 29 268 27 268 23 c 0
 268 3 263 -6 252 -6 c 1
 253 -6 240 -5 213 -3 c 0
 186 -1 157 0 129 0 c 256
 101 0 73 -1 45 -3 c 0
 17 -5 3 -6 4 -6 c 1
 -1 -6 -3 -4 -3 0 c 0
 -3 17 3 27 17 29 c 0
 31 31 44 32 58 34 c 1
 75 40 87 56 93 81 c 2
 231 617 l 2
 234 630 236 641 236 650 c 0
 236 670 227 683 208 689 c 0
 199 692 182 692 155 692 c 0
 150 692 148 695 148 699 c 0
 148 718 153 728 164 728 c 0
 167 728 180 727 203 725 c 0
 236 722 263 721 286 721 c 0
 314 721 343 723 371 725 c 0
 399 727 413 728 412 728 c 1
 417 728 419 726 419 722 c 256
 419 718 418 711 415 701 c 0
 413 696 404 692 387 691 c 0
 368 690 353 685 344 677 c 0
 333 667 321 634 306 577 c 1
 334 577 l 2
 401 577 457 561 504 528 c 0
 557 491 583 440 583 376 c 0xbc
EndSplineSet
Substitution2: "c2scCapitalstoSmallCapitalslookup21 subtable" Thorn_SC
Substitution2: "swshSwashinLatinlookup18 subtable" Thorn_swash
Substitution2: "supsSuperscriptlookup16 subtable" Thorn_SUP
Substitution2: "subsSubscriptlookup15 subtable" Thorn_sub
Substitution2: "'c2sc' Capitals to Small Capitals lookup 21 subtable" Thorn_SC
Substitution2: "'swsh' Swash in Latin lookup 18 subtable" Thorn_swash
Substitution2: "'sups' Superscript lookup 16 subtable" Thorn_SUP
Substitution2: "'subs' Subscript lookup 15 subtable" Thorn_sub
EndChar

StartChar: germandbls
Encoding: 223 223 161
Width: 490
VWidth: 1099
GlyphClass: 2
Flags: W
HStem: -230 61<-151.251 -50.3203> 13 59<239.367 329.109> 720 41<316.254 442.048>
VStem: 281 78<317.27 431.058> 351 74<106.629 243.29> 489 82<546.771 677.168>
LayerCount: 2
Fore
SplineSet
571 616 m 0xf4
 571 577 555 545 525 520 c 0
 508 506 476 488 428 467 c 0
 392 451 370 430 361 401 c 0
 360 396 359 392 359 389 c 0xf4
 359 371 370 339 392 292 c 0
 414 245 425 208 425 180 c 0
 425 140 407 101 370 66 c 0
 333 31 294 13 254 13 c 0
 239 13 226 17 214 25 c 0
 201 34 194 46 194 60 c 0
 194 84 205 96 227 96 c 0
 236 96 247 92 261 84 c 0
 275 76 286 72 294 72 c 0
 304 72 314 78 325 89 c 0
 342 107 351 130 351 158 c 0xec
 351 186 339 225 316 274 c 0
 293 323 281 358 281 378 c 0
 281 408 300 436 337 462 c 1
 370 480 404 498 437 517 c 1
 472 540 489 572 489 613 c 0
 489 645 478 670 455 690 c 0
 432 710 405 720 373 720 c 0
 321 720 278 679 241 598 c 0
 225 563 205 500 181 408 c 2
 93 70 l 2
 70 -18 48 -81 27 -120 c 0
 -12 -194 -61 -230 -121 -230 c 0
 -137 -230 -151 -227 -162 -219 c 0
 -176 -210 -183 -199 -183 -184 c 0
 -183 -174 -179 -165 -171 -157 c 0
 -163 -149 -153 -145 -143 -145 c 0
 -131 -145 -120 -149 -107 -157 c 0
 -94 -165 -85 -169 -80 -169 c 0
 -51 -169 -21 -109 9 12 c 2
 109 409 l 2
 168 643 263 761 394 761 c 0
 439 761 479 748 513 723 c 0
 551 695 571 660 571 616 c 0xf4
EndSplineSet
Substitution2: "smcpLowercasetoSmallCapitalslookup20 subtable" S_sharp_SC
Substitution2: "supsSuperscriptlookup16 subtable" germandbls_SUP
Substitution2: "subsSubscriptlookup15 subtable" germandbls_sub
Substitution2: "'smcp' Lowercase to Small Capitals lookup 20 subtable" S_sharp_SC
Substitution2: "'sups' Superscript lookup 16 subtable" germandbls_SUP
Substitution2: "'subs' Subscript lookup 15 subtable" germandbls_sub
EndChar

StartChar: ae
Encoding: 230 230 168
Width: 614
VWidth: 1099
GlyphClass: 2
Flags: W
HStem: 0 67<41.5 119.636 386.411 485.456> 354 56<234.894 335> 411 43<465.089 551.489>
VStem: -2 68<48.5 160.852> 279 84<91.2034 191> 555 68<309.393 409.225>
LayerCount: 2
Fore
SplineSet
623 372 m 0
 623 284 538 231 367 211 c 1
 364 194 363 176 363 158 c 0
 363 97 393 67 452 67 c 0
 470 67 490 76 511 94 c 0
 532 112 542 121 541 121 c 1
 544 121 548 118 554 112 c 0
 560 106 563 102 563 99 c 0
 563 97 563 94 560 91 c 0
 515 30 463 0 405 0 c 0
 367 0 336 13 313 41 c 0
 290 67 279 100 279 139 c 0
 279 156 280 173 283 191 c 1
 253 144 219 104 183 70 c 0
 134 23 89 0 49 0 c 0
 34 0 21 6 12 17 c 0
 3 28 -2 41 -2 56 c 0
 -2 137 36 216 110 294 c 0
 184 372 258 410 331 410 c 0
 339 410 347 409 355 408 c 1
 370 438 383 454 392 454 c 0
 415 454 426 450 426 442 c 0
 426 439 423 429 417 413 c 1
 454 438 494 451 538 451 c 0
 562 451 583 444 599 429 c 0
 615 414 623 396 623 372 c 0
555 366 m 0
 555 396 544 411 523 411 c 0
 490 411 459 392 429 353 c 0
 406 323 388 288 375 249 c 1
 495 264 555 303 555 366 c 0
319 333 m 0
 319 347 307 354 283 354 c 0
 240 354 193 325 142 267 c 0
 91 209 66 155 66 105 c 0
 66 82 77 70 98 70 c 0
 126 70 170 107 230 180 c 0
 289 252 319 304 319 333 c 0
EndSplineSet
Substitution2: "smcpLowercasetoSmallCapitalslookup20 subtable" AE_SC
Substitution2: "supsSuperscriptlookup16 subtable" ae_SUP
Substitution2: "subsSubscriptlookup15 subtable" ae_sub
Ligature2: "dligDiscretionaryLigaturesinLatinlookup14 subtable" a e
Substitution2: "'smcp' Lowercase to Small Capitals lookup 20 subtable" AE_SC
Substitution2: "'sups' Superscript lookup 16 subtable" ae_SUP
Substitution2: "'subs' Subscript lookup 15 subtable" ae_sub
Ligature2: "'dlig' Discretionary Ligatures in Latin lookup 14 subtable" a e
EndChar

StartChar: eth
Encoding: 240 240 178
Width: 453
VWidth: 1099
GlyphClass: 2
Flags: W
HStem: 0 40<150.731 248.158> 411 39<217.977 314.315> 711 20G<395 399>
VStem: 38 79<79.4425 272.707> 348 84<189.096 375.289>
LayerCount: 2
Fore
SplineSet
432 330 m 0
 432 216 398 126 330 61 c 0
 287 20 241 0 193 0 c 0
 146 0 108 17 79 51 c 0
 52 83 38 123 38 171 c 0
 38 240 59 303 102 359 c 0
 148 420 205 450 272 450 c 0
 304 450 332 442 356 426 c 1
 342 501 318 566 285 620 c 1
 236 591 210 576 207 576 c 0
 203 576 197 579 191 586 c 0
 185 593 182 598 182 602 c 256
 182 606 184 609 187 611 c 2
 262 655 l 1
 246 678 220 704 184 735 c 0
 182 737 180 739 180 741 c 0
 180 745 186 750 198 755 c 0
 209 760 216 763 221 763 c 0
 236 763 266 736 309 682 c 1
 364 715 393 731 397 731 c 0
 401 731 406 728 412 721 c 0
 418 714 422 710 422 706 c 0
 422 702 421 699 417 697 c 2
 334 648 l 1
 400 552 432 446 432 330 c 0
348 299 m 0
 348 328 341 352 329 373 c 0
 314 398 294 411 267 411 c 0
 232 411 197 383 165 328 c 0
 133 273 117 214 117 152 c 0
 117 123 123 99 136 78 c 0
 151 53 171 40 198 40 c 0
 233 40 267 67 299 122 c 0
 331 177 348 236 348 299 c 0
EndSplineSet
Substitution2: "smcpLowercasetoSmallCapitalslookup20 subtable" Eth_SC
Substitution2: "supsSuperscriptlookup16 subtable" eth_SUP
Substitution2: "subsSubscriptlookup15 subtable" eth_sub
Substitution2: "'smcp' Lowercase to Small Capitals lookup 20 subtable" Eth_SC
Substitution2: "'sups' Superscript lookup 16 subtable" eth_SUP
Substitution2: "'subs' Subscript lookup 15 subtable" eth_sub
EndChar

StartChar: divide
Encoding: 247 247 185
Width: 593
VWidth: 1099
GlyphClass: 2
Flags: W
HStem: -17 122<257.565 341.436> 212 68<54 546> 387 122<257.565 341.436>
VStem: 239 121<1.56469 86.4353 405.565 490.435>
CounterMasks: 1 e0
LayerCount: 2
Fore
SplineSet
360 448 m 0
 360 432 354 417 342 405 c 0
 330 393 316 387 300 387 c 0
 284 387 269 394 257 406 c 0
 245 418 239 432 239 448 c 0
 239 464 245 479 257 491 c 0
 269 503 284 509 300 509 c 0
 317 509 331 503 343 491 c 0
 355 479 360 465 360 448 c 0
546 226 m 2
 546 217 541 212 532 212 c 2
 68 212 l 2
 59 212 54 217 54 226 c 2
 54 266 l 2
 54 275 59 280 68 280 c 2
 532 280 l 2
 541 280 546 275 546 266 c 2
 546 226 l 2
360 44 m 0
 360 28 354 13 342 1 c 0
 330 -11 316 -17 300 -17 c 0
 284 -17 269 -10 257 2 c 0
 245 14 239 28 239 44 c 0
 239 60 245 75 257 87 c 0
 269 99 284 105 300 105 c 0
 317 105 331 99 343 87 c 0
 355 75 360 61 360 44 c 0
EndSplineSet
Substitution2: "smcpLowercasetoSmallCapitalslookup20 subtable" divide_SC
Substitution2: "caseCaseSensitiveFormslookup17 subtable" divide_CAS
Substitution2: "supsSuperscriptlookup16 subtable" divide_SUP
Substitution2: "subsSubscriptlookup15 subtable" divide_sub
Substitution2: "'smcp' Lowercase to Small Capitals lookup 20 subtable" divide_SC
Substitution2: "'case' Case-Sensitive Forms lookup 17 subtable" divide_CAS
Substitution2: "'sups' Superscript lookup 16 subtable" divide_SUP
Substitution2: "'subs' Subscript lookup 15 subtable" divide_sub
EndChar

StartChar: oslash
Encoding: 248 248 186
Width: 453
VWidth: 1099
GlyphClass: 2
Flags: W
HStem: 0 40<143.978 240.249> 411 40<218.787 319.49>
VStem: 346 77<188.068 297.644>
LayerCount: 2
Fore
SplineSet
497 431 m 0
 497 430 468 404 411 354 c 1
 419 333 423 311 423 288 c 0
 423 212 399 145 353 87 c 0
 307 29 254 0 193 0 c 0
 140 0 99 21 70 62 c 1
 32 30 8 13 -2 13 c 0
 -28 13 -42 16 -42 20 c 0
 -42 23 -12 50 49 102 c 1
 42 122 38 143 38 166 c 0
 38 237 60 301 103 358 c 0
 150 420 208 451 277 451 c 0
 326 451 364 432 391 394 c 1
 414 413 425 423 426 423 c 0
 440 433 454 438 468 438 c 0
 488 438 497 435 497 431 c 0
341 351 m 1
 330 391 306 411 271 411 c 0
 234 411 200 384 167 327 c 0
 136 274 120 219 117 160 c 1
 341 351 l 1
346 298 m 1
 121 106 l 1
 132 62 155 40 189 40 c 0
 227 40 262 69 295 126 c 0
 327 180 344 237 346 298 c 1
EndSplineSet
Substitution2: "smcpLowercasetoSmallCapitalslookup20 subtable" Oslash_SC
Substitution2: "supsSuperscriptlookup16 subtable" oslash_SUP
Substitution2: "subsSubscriptlookup15 subtable" oslash_sub
Substitution2: "'smcp' Lowercase to Small Capitals lookup 20 subtable" Oslash_SC
Substitution2: "'sups' Superscript lookup 16 subtable" oslash_SUP
Substitution2: "'subs' Subscript lookup 15 subtable" oslash_sub
EndChar

StartChar: thorn
Encoding: 254 254 192
Width: 453
VWidth: 1099
GlyphClass: 2
Flags: W
HStem: -240 40<-72.0381 -31.2827> 0 40<144.999 226.756> 333 34<20.1214 59.2116> 394 57<234.214 356.439> 699 41<177.636 226.634> 745 20G<296 316.5>
VStem: 228 97<666.5 758.5> 361 78<229.631 370.711>
LayerCount: 2
Fore
SplineSet
439 335 m 0
 439 310 436 286 429 262 c 0
 410 200 375 142 323 86 c 0
 270 29 223 0 183 0 c 0
 155 0 132 11 116 33 c 1
 65 -144 l 2
 62 -154 61 -162 61 -168 c 0
 61 -186 72 -196 94 -199 c 0
 116 -202 127 -205 127 -209 c 0
 127 -230 121 -240 108 -240 c 1
 109 -240 100 -239 80 -237 c 0
 60 -235 40 -234 20 -234 c 0
 0 -234 -20 -235 -41 -237 c 0
 -62 -239 -73 -240 -72 -240 c 1
 -78 -240 -82 -236 -82 -230 c 0
 -82 -225 -80 -219 -76 -211 c 0
 -73 -205 -67 -201 -57 -200 c 0
 -45 -198 -37 -195 -31 -190 c 0
 -20 -181 -11 -165 -4 -142 c 2
 143 371 l 1
 110 362 76 350 41 334 c 0
 40 333 39 333 37 333 c 0
 26 333 20 339 20 353 c 0
 20 358 22 363 27 367 c 0
 42 378 85 395 157 418 c 1
 224 647 l 2
 227 656 228 663 228 670 c 0
 228 685 219 694 202 699 c 0
 185 704 177 708 177 712 c 0
 177 726 182 736 194 740 c 1
 207 741 226 744 252 748 c 0
 261 750 276 754 296 760 c 0
 306 763 312 765 312 765 c 0
 321 765 325 762 325 755 c 0
 325 753 317 726 303 677 c 0
 287 624 264 544 233 437 c 1
 274 446 310 451 340 451 c 0
 372 451 397 440 415 416 c 0
 431 394 439 367 439 335 c 0
361 309 m 0
 361 333 355 353 344 368 c 0
 331 386 314 394 291 394 c 0
 272 394 248 392 219 387 c 1
 140 115 l 2
 139 110 138 104 138 96 c 0
 138 58 152 40 181 40 c 0
 207 40 238 63 275 109 c 0
 312 155 337 204 352 255 c 0
 358 276 361 294 361 309 c 0
EndSplineSet
Substitution2: "smcpLowercasetoSmallCapitalslookup20 subtable" Thorn_SC
Substitution2: "supsSuperscriptlookup16 subtable" thorn_SUP
Substitution2: "subsSubscriptlookup15 subtable" thorn_sub
Substitution2: "'smcp' Lowercase to Small Capitals lookup 20 subtable" Thorn_SC
Substitution2: "'sups' Superscript lookup 16 subtable" thorn_SUP
Substitution2: "'subs' Subscript lookup 15 subtable" thorn_sub
EndChar

StartChar: dcroat
Encoding: 273 273 211
Width: 489
VWidth: 1099
GlyphClass: 2
Flags: W
HStem: 1 56<87.0045 169.12> 412 39<234.244 324.669> 582 46<307.292 404 484 560.59> 705 39<384.989 425.709> 745 20G<500.5 507.5>
VStem: 15 79<63.3976 223.386> 283 66<30.8927 176.352>
LayerCount: 2
Fore
SplineSet
563 619 m 0
 563 613 562 606 558 597 c 0
 553 587 548 582 543 582 c 2
 473 582 l 1
 351 109 l 2
 350 103 349 97 349 90 c 0
 349 78 354 73 363 73 c 0
 376 73 393 87 416 118 c 0
 439 149 452 164 453 164 c 0
 456 164 459 162 464 157 c 0
 469 152 471 150 471 147 c 0
 471 145 470 142 469 140 c 0
 456 114 435 85 408 55 c 0
 375 19 347 1 326 1 c 0
 297 1 283 19 283 56 c 0
 283 69 290 109 306 176 c 1
 232 59 163 0 98 0 c 0
 72 0 51 13 35 41 c 0
 22 64 15 90 15 118 c 0
 15 190 43 262 99 335 c 0
 158 412 223 451 292 451 c 0
 322 451 347 442 366 424 c 1
 404 582 l 1
 314 582 l 2
 308 582 305 585 305 591 c 0
 305 597 306 605 310 613 c 0
 314 623 319 628 325 628 c 2
 415 628 l 1
 423 657 426 675 426 682 c 0
 426 693 418 701 404 705 c 0
 390 709 383 712 383 715 c 0
 383 732 397 741 423 744 c 0
 429 744 438 746 450 748 c 0
 459 750 472 753 489 759 c 0
 494 761 498 763 503 765 c 1
 512 765 517 761 517 755 c 0
 517 754 505 712 484 628 c 1
 554 628 l 2
 560 628 563 625 563 619 c 0
338 351 m 0
 338 367 333 382 325 393 c 0
 315 406 303 412 288 412 c 0
 255 412 220 389 183 343 c 0
 159 313 138 277 121 238 c 0
 103 195 94 156 94 121 c 0
 94 79 109 57 139 57 c 0
 174 57 217 97 267 178 c 0
 314 254 338 312 338 351 c 0
EndSplineSet
EndChar

StartChar: Hbar
Encoding: 294 294 232
Width: 784
VWidth: 1099
GlyphClass: 2
Flags: W
HStem: -6 35<3.14355 69 188.391 264.047 443.023 514.387 651.382 712.062> 358 43<265 617> 554 42<135.109 222 319 670 766 849.73> 692 36<158.115 215.618 356.379 423.901 606.115 681.609 801.426 871.901>
LayerCount: 2
Fore
SplineSet
877 722 m 0
 877 719 875 711 872 701 c 0
 870 696 861 692 844 691 c 0
 824 690 810 685 801 677 c 0
 791 668 782 651 775 627 c 2
 766 596 l 1
 844 596 l 2
 849 596 851 595 851 591 c 0
 851 567 845 554 833 554 c 2
 755 554 l 1
 632 104 l 2
 628 90 626 79 626 71 c 0
 626 52 634 39 651 34 c 0
 659 31 676 30 700 30 c 0
 709 30 713 28 713 24 c 0
 713 4 708 -6 698 -6 c 0
 695 -6 682 -6 658 -4 c 0
 625 -1 597 0 575 0 c 0
 553 0 524 -1 490 -4 c 0
 465 -6 453 -6 450 -6 c 0
 445 -6 442 -3 442 3 c 0
 442 14 446 21 452 26 c 0
 454 28 456 29 459 29 c 0
 484 29 502 34 515 44 c 0
 528 54 537 71 544 95 c 2
 617 358 l 1
 253 358 l 1
 180 95 l 2
 178 87 177 79 177 73 c 0
 177 44 204 29 258 29 c 0
 263 29 265 27 265 24 c 0
 265 4 260 -6 249 -6 c 0
 246 -6 234 -6 210 -4 c 0
 177 -1 149 0 127 0 c 0
 105 0 76 -1 42 -4 c 0
 17 -6 5 -6 2 -6 c 0
 -3 -6 -6 -3 -6 3 c 0
 -6 14 -3 22 3 26 c 0
 6 28 13 29 24 29 c 0
 60 29 84 51 96 95 c 2
 222 554 l 1
 140 554 l 2
 136 554 134 556 134 560 c 0
 134 584 140 596 151 596 c 2
 234 596 l 1
 240 617 l 2
 244 630 245 641 245 651 c 0
 245 671 235 684 216 689 c 0
 208 692 190 692 164 692 c 0
 159 692 157 694 157 698 c 0
 157 718 164 728 175 728 c 0
 177 728 189 727 213 725 c 0
 246 722 273 721 296 721 c 0
 317 721 346 722 381 725 c 0
 406 727 419 728 422 728 c 0
 427 728 429 726 429 722 c 256
 429 718 427 711 424 701 c 0
 422 696 413 693 397 690 c 0
 377 687 364 683 356 677 c 0
 343 667 333 651 327 627 c 2
 319 596 l 1
 682 596 l 1
 690 627 l 2
 692 635 693 642 693 648 c 0
 693 677 666 692 612 692 c 0
 607 692 605 694 605 698 c 0
 605 718 612 728 623 728 c 0
 625 728 637 727 661 725 c 0
 694 722 721 721 744 721 c 0
 766 721 794 722 829 725 c 0
 854 727 868 728 871 728 c 0
 875 728 877 726 877 722 c 0
670 554 m 1
 307 554 l 1
 265 401 l 1
 628 401 l 1
 670 554 l 1
EndSplineSet
Substitution2: "swshSwashinLatinlookup18 subtable" Hbar_swash
Substitution2: "'swsh' Swash in Latin lookup 18 subtable" Hbar_swash
EndChar

StartChar: hbar
Encoding: 295 295 233
Width: 471
VWidth: 1099
GlyphClass: 2
Flags: W
HStem: 0 61<211.75 292.268> 388 63<309.599 405.5> 545 45<76.2924 158 242 356.708> 699 41<135.663 188.972> 745 20G<275.5 280.5>
VStem: 10 66<9.63876 79.4531> 378 79<233.047 385.712>
LayerCount: 2
Fore
SplineSet
457 352 m 0
 457 306 446 257 425 205 c 0
 405 157 380 114 348 76 c 0
 306 26 269 0 237 0 c 0
 206 0 190 13 190 39 c 0
 190 50 193 61 201 70 c 0
 209 79 219 83 230 83 c 256
 241 83 251 79 258 72 c 0
 265 65 269 61 272 61 c 0
 281 61 292 71 305 90 c 0
 324 118 340 156 355 204 c 0
 370 252 378 291 378 324 c 0
 378 367 367 388 345 388 c 0
 302 388 250 342 188 249 c 0
 137 173 102 106 84 48 c 0
 81 39 79 30 76 21 c 1
 71 12 64 8 54 8 c 0
 24 8 10 14 10 28 c 0
 10 30 10 34 12 40 c 2
 158 545 l 1
 83 545 l 2
 77 545 74 548 74 553 c 0
 74 559 75 567 79 575 c 0
 83 585 88 590 94 590 c 2
 172 590 l 1
 185 634 191 660 191 668 c 0
 191 683 182 694 163 699 c 0
 144 704 135 708 135 712 c 0
 135 726 140 735 151 740 c 0
 152 740 161 741 180 743 c 0
 201 746 224 751 247 757 c 0
 266 762 275 765 276 765 c 0
 285 765 289 762 289 755 c 0
 289 752 273 697 242 590 c 1
 351 590 l 2
 357 590 359 588 359 582 c 0
 359 576 358 568 354 560 c 0
 349 550 344 545 339 545 c 2
 229 545 l 1
 141 241 l 1
 229 381 308 451 380 451 c 0
 431 451 457 418 457 352 c 0
EndSplineSet
EndChar

